SplineFontDB: 3.0
FontName: Jost-Medium
FullName: Jost* 500 Medium
FamilyName: Jost* Medium
Weight: Medium
Copyright: This typeface is licensed under the SIL open font license.
UComments: "2018-6-8: Created with FontForge (http://fontforge.org)"
Version: 003.300
ItalicAngle: 0
UnderlinePosition: -100
UnderlineWidth: 50
Ascent: 800
Descent: 200
InvalidEm: 0
LayerCount: 2
Layer: 0 0 "Back" 1
Layer: 1 0 "Fore" 0
XUID: [1021 69 1495626776 15290027]
FSType: 0
OS2Version: 0
OS2_WeightWidthSlopeOnly: 0
OS2_UseTypoMetrics: 0
CreationTime: 1528475722
ModificationTime: 1577665408
PfmFamily: 17
TTFWeight: 500
TTFWidth: 5
LineGap: 100
VLineGap: 0
OS2TypoAscent: 825
OS2TypoAOffset: 0
OS2TypoDescent: -225
OS2TypoDOffset: 0
OS2TypoLinegap: 100
OS2WinAscent: 900
OS2WinAOffset: 0
OS2WinDescent: 300
OS2WinDOffset: 0
HheadAscent: 1030
HheadAOffset: 0
HheadDescent: -350
HheadDOffset: 0
OS2CapHeight: 700
OS2XHeight: 460
OS2Vendor: 'PfEd'
Lookup: 1 0 0 "alt a" { "alt a"  } ['ss01' ('DFLT' <'dflt' > 'latn' <'dflt' > ) ]
Lookup: 1 0 0 "Tabular Numbers lookup" { "Tabular Numbers lookup"  } ['tnum' ('DFLT' <'dflt' > 'grek' <'dflt' > 'latn' <'dflt' > ) ]
Lookup: 258 0 0 "Lets get our kern on" { "kernin like nobodys business" [150,0,4] } ['kern' ('DFLT' <'dflt' > 'latn' <'dflt' > ) ]
MarkAttachClasses: 1
DEI: 91125
KernClass2: 16 14 "kernin like nobodys business"
 43 slash seven V W Wcircumflex uni040E uni0423
 175 quotedbl quotesingle asterisk grave dieresis ordfeminine macron degree acute ordmasculine circumflex breve dotaccent ring tilde quoteleft quoteright quotedblleft quotedblright
 25 nine question F P uni0420
 131 A L backslash Agrave Aacute Acircumflex Atilde Adieresis Aring Amacron Abreve Aogonek Lacute uni013B Lslash uni0410 uni0414 uni041C
 58 three eight B C germandbls uni0411 uni0412 uni0417 uni0421
 29 K X Z uni0416 uni041A uni0425

StartChar: H
Encoding: 72 72 0
Width: 698
VWidth: 0
Flags: HMW
LayerCount: 2
Fore
SplineSet
172 322 m 1
 208 430 l 1
 683 430 l 1
 646 322 l 1
 172 322 l 1
697 699 m 1
 816 700 l 1
 573 0 l 1
 460 0 l 1
 697 699 l 1
255 699 m 1
 373 700 l 1
 131 0 l 1
 18 0 l 1
 255 699 l 1
EndSplineSet
EndChar

StartChar: O
Encoding: 79 79 1
Width: 754
VWidth: 0
Flags: HMW
LayerCount: 2
Fore
SplineSet
221 350 m 0
 181 239 211 104 350 102 c 0
 493 100 619 224 665 350 c 0
 705 462 674 596 535 598 c 0
 392 600 267 476 221 350 c 0
98 350 m 0
 160 542 350 713 558 712 c 0
 760 711 843 527 787 350 c 0
 725 157 535 -16 326 -15 c 0
 123 -14 42 173 98 350 c 0
EndSplineSet
EndChar

StartChar: I
Encoding: 73 73 2
Width: 258
VWidth: 0
Flags: HMW
LayerCount: 2
Fore
SplineSet
255 700 m 1
 374 700 l 1
 132 0 l 1
 18 0 l 1
 255 700 l 1
EndSplineSet
EndChar

StartChar: C
Encoding: 67 67 3
Width: 650
VWidth: 0
Flags: HMW
LayerCount: 2
Fore
SplineSet
223 350 m 0
 182 238 219 107 355 104 c 0
 446 102 529 150 600 201 c 1
 558 61 l 1
 488 17 411 -13 327 -12 c 0
 126 -10 41 174 98 350 c 0
 160 543 350 710 559 712 c 0
 634 713 696 688 751 637 c 1
 707 497 l 1
 670 561 614 596 538 596 c 0
 398 595 269 477 223 350 c 0
EndSplineSet
EndChar

StartChar: E
Encoding: 69 69 4
Width: 537
VWidth: 0
Flags: HMW
LayerCount: 2
Fore
SplineSet
87 0 m 1
 122 104 l 1
 459 104 l 1
 423 0 l 1
 87 0 l 1
291 596 m 1
 326 700 l 1
 662 700 l 1
 626 596 l 1
 291 596 l 1
198 325 m 1
 233 426 l 1
 550 426 l 1
 514 325 l 1
 198 325 l 1
255 700 m 1
 370 700 l 1
 129 0 l 1
 18 0 l 1
 255 700 l 1
EndSplineSet
EndChar

StartChar: F
Encoding: 70 70 6
Width: 490
VWidth: 0
Flags: HMW
LayerCount: 2
Fore
SplineSet
290 594 m 1
 326 700 l 1
 624 700 l 1
 588 594 l 1
 290 594 l 1
195 317 m 1
 230 419 l 1
 519 419 l 1
 484 316 l 1
 195 317 l 1
255 700 m 1
 370 700 l 1
 129 0 l 1
 18 0 l 1
 255 700 l 1
EndSplineSet
EndChar

StartChar: G
Encoding: 71 71 7
Width: 743
VWidth: 0
Flags: HMW
LayerCount: 2
Fore
SplineSet
420 266 m 1
 456 365 l 1
 773 365 l 1
 709 172 555 -15 331 -15 c 0
 127 -15 40 172 98 350 c 0
 161 546 353 711 564 712 c 0
 676 713 759 657 803 555 c 1
 694 493 l 1
 670 564 617 603 541 602 c 0
 396 601 267 480 220 350 c 0
 179 236 211 97 353 96 c 0
 471 95 551 175 614 266 c 1
 420 266 l 1
EndSplineSet
EndChar

StartChar: T
Encoding: 84 84 8
Width: 473
VWidth: 0
Flags: HMW
LayerCount: 2
Fore
SplineSet
152 591 m 1
 190 700 l 1
 654 700 l 1
 616 591 l 1
 443 591 l 1
 240 0 l 1
 124 0 l 1
 327 591 l 1
 152 591 l 1
EndSplineSet
EndChar

StartChar: L
Encoding: 76 76 9
Width: 452
VWidth: 0
Flags: HMW
LayerCount: 2
Fore
SplineSet
256 700 m 1
 373 700 l 1
 169 106 l 1
 430 106 l 1
 393 0 l 1
 16 0 l 1
 256 700 l 1
EndSplineSet
EndChar

StartChar: D
Encoding: 68 68 10
Width: 659
VWidth: 0
Flags: HMW
LayerCount: 2
Fore
SplineSet
255 699 m 1
 375 700 l 1
 133 0 l 1
 18 0 l 1
 255 699 l 1
239 0 m 2
 85 0 l 1
 124 111 l 1
 260 111 l 2
 404 111 526 216 574 350 c 0
 618 471 575 589 437 589 c 2
 286 589 l 1
 325 700 l 1
 463 700 l 2
 661 700 751 532 692 350 c 0
 629 154 447 0 239 0 c 2
EndSplineSet
EndChar

StartChar: Q
Encoding: 81 81 11
Width: 770
VWidth: 0
Flags: HMW
LayerCount: 2
Fore
SplineSet
221 350 m 0
 180 236 214 99 355 97 c 0
 497 95 624 216 670 342 c 0
 711 456 680 596 537 598 c 0
 394 600 267 477 221 350 c 0
98 350 m 0
 160 542 352 713 560 712 c 0
 762 711 843 526 787 350 c 0
 725 158 536 -16 327 -15 c 0
 124 -14 42 173 98 350 c 0
400 300 m 1
 520 300 l 1
 713 -5 l 1
 590 -5 l 1
 400 300 l 1
EndSplineSet
EndChar

StartChar: A
Encoding: 65 65 12
Width: 648
VWidth: 0
Flags: HMW
LayerCount: 2
Fore
SplineSet
159 180 m 1
 213 279 l 1
 522 279 l 1
 510 180 l 1
 159 180 l 1
445 502 m 1
 255 245 l 1
 245 219 l 1
 78 0 l 1
 -58 0 l 1
 522 742 l 1
 591 0 l 1
 468 0 l 1
 453 213 l 1
 459 242 l 1
 445 502 l 1
EndSplineSet
EndChar

StartChar: R
Encoding: 82 82 13
Width: 558
VWidth: 0
Flags: HMW
LayerCount: 2
Fore
SplineSet
270 334 m 1
 387 334 l 1
 496 0 l 1
 368 0 l 1
 270 334 l 1
255 700 m 1
 373 700 l 1
 131 0 l 1
 18 0 l 1
 255 700 l 1
287 597 m 1
 323 700 l 1
 454 700 l 2
 579 700 663 610 626 482 c 0
 588 349 454 265 320 265 c 2
 172 265 l 1
 207 363 l 1
 334 363 l 2
 408 363 482 408 508 480 c 0
 532 547 495 597 428 597 c 2
 287 597 l 1
EndSplineSet
EndChar

StartChar: V
Encoding: 86 86 14
Width: 648
VWidth: 0
Flags: HMW
LayerCount: 2
Fore
SplineSet
351 210 m 1
 697 699 l 1
 834 699 l 1
 280 -42 l 1
 185 700 l 1
 310 700 l 1
 351 210 l 1
EndSplineSet
EndChar

StartChar: M
Encoding: 77 77 15
Width: 792
VWidth: 0
Flags: HMW
LayerCount: 2
Fore
SplineSet
291 425 m 1
 99 0 l 1
 -23 0 l 1
 321 736 l 1
 427 263 l 1
 868 744 l 1
 703 0 l 1
 586 0 l 1
 686 416 l 1
 366 63 l 1
 291 425 l 1
EndSplineSet
EndChar

StartChar: W
Encoding: 87 87 16
Width: 959
VWidth: 0
Flags: HMW
LayerCount: 2
Fore
SplineSet
701 224 m 1
 1002 699 l 1
 1139 699 l 1
 638 -41 l 1
 589 453 l 1
 231 -42 l 1
 189 700 l 1
 318 700 l 1
 322 226 l 1
 672 739 l 1
 701 224 l 1
EndSplineSet
EndChar

StartChar: N
Encoding: 78 78 17
Width: 735
VWidth: 0
Flags: HMW
LayerCount: 2
Fore
SplineSet
738 700 m 1
 851 700 l 1
 599 -33 l 1
 292 472 l 1
 130 0 l 1
 16 0 l 1
 267 733 l 1
 575 228 l 1
 738 700 l 1
EndSplineSet
EndChar

StartChar: a
Encoding: 97 97 18
Width: 478
VWidth: 0
Flags: HMW
LayerCount: 2
Fore
SplineSet
121 135 m 0
 110 96 138 75 173 73 c 0
 247 69 297 123 332 181 c 1
 331 128 l 1
 291 48 221 -10 127 -9 c 0
 45 -8 -10 51 14 133 c 0
 44 231 150 283 247 282 c 0
 301 281 344 265 380 226 c 1
 363 171 l 1
 330 198 296 214 252 213 c 0
 201 212 135 188 121 135 c 0
171 338 m 1
 152 418 l 1
 212 447 276 472 344 471 c 0
 430 470 512 422 483 328 c 1
 371 0 l 1
 267 0 l 1
 379 316 l 1
 392 355 365 378 321 381 c 0
 269 384 217 359 171 338 c 1
EndSplineSet
Substitution2: "alt a" a.alt
EndChar

StartChar: X
Encoding: 88 88 19
Width: 571
VWidth: 0
Flags: HMW
LayerCount: 2
Fore
SplineSet
593 699 m 1
 738 699 l 1
 428 359 l 1
 528 0 l 1
 397 0 l 1
 340 265 l 1
 112 0 l 1
 -33 0 l 1
 305 369 l 1
 214 700 l 1
 346 700 l 1
 394 467 l 1
 593 699 l 1
EndSplineSet
EndChar

StartChar: K
Encoding: 75 75 20
Width: 581
VWidth: 0
Flags: HMW
LayerCount: 2
Fore
SplineSet
255 700 m 1
 375 700 l 1
 133 0 l 1
 18 0 l 1
 255 700 l 1
610 699 m 1
 757 699 l 1
 359 367 l 1
 523 0 l 1
 393 0 l 1
 226 375 l 1
 610 699 l 1
EndSplineSet
EndChar

StartChar: Y
Encoding: 89 89 21
Width: 564
VWidth: 0
Flags: HMW
LayerCount: 2
Fore
SplineSet
616 699 m 1
 754 699 l 1
 386 289 l 1
 286 0 l 1
 169 0 l 1
 274 301 l 1
 189 700 l 1
 313 700 l 1
 362 405 l 1
 616 699 l 1
EndSplineSet
EndChar

StartChar: B
Encoding: 66 66 22
Width: 564
VWidth: 0
Flags: HMW
LayerCount: 2
Fore
SplineSet
226 362 m 1
 245 418 l 1
 347 419 l 2
 404 420 467 453 488 511 c 0
 508 565 474 601 422 602 c 2
 339 603 l 1
 165 97 l 1
 248 98 l 2
 322 99 399 141 425 214 c 0
 449 283 405 326 339 327 c 2
 214 328 l 1
 236 392 l 1
 356 392 l 2
 469 390 575 328 537 201 c 0
 498 69 366 0 237 0 c 2
 16 0 l 1
 256 700 l 1
 449 700 l 2
 552 700 645 639 609 523 c 0
 574 412 454 364 347 362 c 2
 226 362 l 1
EndSplineSet
EndChar

StartChar: Z
Encoding: 90 90 23
Width: 540
VWidth: 0
Flags: HMW
LayerCount: 2
Fore
SplineSet
186 591 m 1
 225 700 l 1
 715 699 l 1
 180 107 l 1
 485 106 l 1
 447 0 l 1
 -49 0 l 1
 485 590 l 1
 186 591 l 1
EndSplineSet
EndChar

StartChar: o
Encoding: 111 111 24
Width: 529
VWidth: 0
Flags: HMW
LayerCount: 2
Fore
SplineSet
66 230 m 0
 102 360 232 469 369 469 c 0
 503 469 572 353 537 230 c 0
 501 100 372 -9 235 -9 c 0
 102 -9 31 107 66 230 c 0
173 230 m 0
 151 166 173 87 251 86 c 0
 331 85 406 158 430 230 c 0
 452 294 430 373 352 374 c 0
 272 375 197 302 173 230 c 0
EndSplineSet
EndChar

StartChar: J
Encoding: 74 74 25
Width: 259
VWidth: 0
Flags: HMW
LayerCount: 2
Fore
SplineSet
-155 -89 m 1
 -138 -108 -121 -125 -93 -123 c 0
 -47 -120 -10 -76 4 -36 c 2
 256 700 l 1
 375 700 l 1
 117 -59 l 2
 81 -156 -5 -229 -112 -227 c 0
 -163 -226 -202 -205 -240 -172 c 1
 -155 -89 l 1
EndSplineSet
EndChar

StartChar: t
Encoding: 116 116 26
Width: 254
VWidth: 0
Flags: HMW
LayerCount: 2
Fore
SplineSet
109 460 m 1
 358 460 l 1
 324 365 l 1
 74 365 l 1
 109 460 l 1
232 619 m 1
 338 620 l 1
 124 0 l 1
 23 0 l 1
 232 619 l 1
EndSplineSet
EndChar

StartChar: d
Encoding: 100 100 27
Width: 553
VWidth: 0
Flags: HMW
LayerCount: 2
Fore
SplineSet
600 779 m 1
 708 780 l 1
 439 0 l 1
 335 0 l 1
 600 779 l 1
53 230 m 0
 91 351 208 472 342 470 c 0
 474 468 484 329 452 230 c 0
 416 117 323 -8 193 -9 c 0
 59 -10 18 120 53 230 c 0
162 230 m 0
 139 167 155 86 235 85 c 0
 315 84 387 161 413 230 c 0
 434 290 425 371 348 375 c 0
 266 379 188 302 162 230 c 0
EndSplineSet
EndChar

StartChar: l
Encoding: 108 108 28
Width: 231
VWidth: 0
Flags: HMW
LayerCount: 2
Fore
SplineSet
274 779 m 1
 383 780 l 1
 113 0 l 1
 10 0 l 1
 274 779 l 1
EndSplineSet
EndChar

StartChar: i
Encoding: 105 105 29
Width: 250
VWidth: 0
Flags: HMW
LayerCount: 2
Fore
SplineSet
223 643 m 0
 223 680 253 708 291 708 c 0
 329 708 358 680 358 643 c 0
 358 606 329 578 291 578 c 0
 253 578 223 606 223 643 c 0
174 459 m 1
 282 459 l 1
 125 0 l 1
 20 0 l 1
 174 459 l 1
EndSplineSet
EndChar

StartChar: r
Encoding: 114 114 30
Width: 350
VWidth: 0
Flags: HMW
LayerCount: 2
Fore
SplineSet
271 460 m 1
 112 0 l 1
 7 0 l 1
 167 460 l 1
 271 460 l 1
366 345 m 1
 352 356 338 368 318 369 c 0
 258 371 221 305 201 260 c 1
 176 282 l 1
 209 360 277 468 367 470 c 0
 399 471 421 454 443 433 c 1
 366 345 l 1
EndSplineSet
EndChar

StartChar: c
Encoding: 99 99 31
Width: 451
VWidth: 0
Flags: HMW
LayerCount: 2
Fore
SplineSet
167 230 m 0
 144 162 169 87 249 84 c 0
 314 82 373 119 420 159 c 1
 387 41 l 1
 339 11 286 -9 228 -9 c 0
 94 -8 24 107 59 230 c 0
 96 362 224 468 363 469 c 0
 416 469 461 452 500 418 c 1
 467 299 l 1
 446 348 408 377 352 376 c 0
 267 375 193 307 167 230 c 0
EndSplineSet
EndChar

StartChar: b
Encoding: 98 98 32
Width: 553
VWidth: 0
Flags: HMW
LayerCount: 2
Fore
SplineSet
379 780 m 1
 111 0 l 1
 4 0 l 1
 272 780 l 1
 379 780 l 1
548 230 m 0
 510 109 395 -12 261 -10 c 0
 129 -8 118 131 150 230 c 0
 186 343 280 468 410 469 c 0
 544 470 583 340 548 230 c 0
441 230 m 0
 464 293 447 374 367 375 c 0
 287 376 215 299 189 230 c 0
 168 170 178 89 255 85 c 0
 337 81 415 158 441 230 c 0
EndSplineSet
EndChar

StartChar: p
Encoding: 112 112 33
Width: 553
VWidth: 0
Flags: HMW
LayerCount: 2
Fore
SplineSet
37 -219 m 1
 -72 -220 l 1
 163 460 l 1
 267 459 l 1
 37 -219 l 1
548 230 m 0
 510 109 395 -14 260 -12 c 0
 126 -10 121 131 153 230 c 0
 189 343 280 470 411 471 c 0
 546 472 583 340 548 230 c 0
441 230 m 0
 464 294 446 372 366 373 c 0
 287 374 214 299 189 230 c 0
 168 170 180 91 256 87 c 0
 338 83 415 158 441 230 c 0
EndSplineSet
EndChar

StartChar: q
Encoding: 113 113 34
Width: 553
VWidth: 0
Flags: HMW
LayerCount: 2
Fore
SplineSet
258 -220 m 1
 492 460 l 1
 599 460 l 1
 365 -220 l 1
 258 -220 l 1
53 230 m 0
 91 351 207 474 342 472 c 0
 476 470 482 329 450 230 c 0
 414 117 323 -10 192 -11 c 0
 57 -12 18 120 53 230 c 0
162 230 m 0
 139 166 156 88 236 87 c 0
 315 86 388 161 413 230 c 0
 434 290 423 369 347 373 c 0
 265 377 188 302 162 230 c 0
EndSplineSet
EndChar

StartChar: h
Encoding: 104 104 35
Width: 509
VWidth: 0
Flags: HMW
LayerCount: 2
Fore
SplineSet
383 780 m 1
 114 0 l 1
 8 0 l 1
 276 780 l 1
 383 780 l 1
386 280 m 2
 399 322 404 378 346 382 c 0
 284 386 238 329 210 282 c 1
 182 282 l 1
 220 372 288 472 397 472 c 0
 503 472 519 379 493 295 c 1
 392 0 l 1
 288 0 l 1
 386 280 l 2
EndSplineSet
EndChar

StartChar: n
Encoding: 110 110 36
Width: 511
VWidth: 0
Flags: HMW
LayerCount: 2
Fore
SplineSet
386 280 m 2
 400 321 404 382 343 382 c 0
 283 382 231 338 213 286 c 2
 114 0 l 1
 7 0 l 1
 167 460 l 1
 273 460 l 1
 250 396 l 1
 287 439 335 469 396 469 c 0
 502 469 524 376 495 292 c 2
 395 0 l 1
 288 0 l 1
 386 280 l 2
EndSplineSet
EndChar

StartChar: m
Encoding: 109 109 37
Width: 748
VWidth: 0
Flags: HMW
LayerCount: 2
Fore
SplineSet
731 292 m 2
 632 0 l 1
 525 0 l 1
 624 280 l 2
 637 318 649 381 593 381 c 0
 534 381 485 334 468 283 c 2
 371 0 l 1
 267 0 l 1
 364 280 l 2
 376 318 389 381 333 381 c 0
 277 381 228 340 211 289 c 2
 112 0 l 1
 7 0 l 1
 167 460 l 1
 270 460 l 1
 250 400 l 1
 285 441 329 469 386 469 c 0
 454 469 480 430 483 381 c 1
 523 431 578 469 646 469 c 0
 751 469 754 372 731 292 c 2
EndSplineSet
EndChar

StartChar: k
Encoding: 107 107 38
Width: 464
VWidth: 0
Flags: HMW
LayerCount: 2
Fore
SplineSet
270 779 m 1
 377 780 l 1
 108 0 l 1
 6 0 l 1
 270 779 l 1
417 459 m 1
 555 459 l 1
 291 259 l 1
 406 0 l 1
 289 0 l 1
 171 276 l 1
 417 459 l 1
EndSplineSet
EndChar

StartChar: u
Encoding: 117 117 39
Width: 511
VWidth: 0
Flags: HMW
LayerCount: 2
Fore
SplineSet
176 180 m 2
 162 138 157 78 215 78 c 0
 275 78 329 118 348 173 c 2
 447 460 l 1
 554 460 l 1
 395 0 l 1
 288 0 l 1
 310 64 l 1
 272 21 226 -9 165 -9 c 0
 59 -9 38 84 66 168 c 1
 167 460 l 1
 273 459 l 1
 176 180 l 2
EndSplineSet
EndChar

StartChar: e
Encoding: 101 101 40
Width: 506
VWidth: 0
Flags: HMW
LayerCount: 2
Fore
SplineSet
237 -10 m 0
 130 -10 57 51 57 170 c 0
 57 318 191 470 357 470 c 0
 462 470 523 412 523 300 c 0
 523 270 513 229 503 205 c 1
 114 205 l 1
 114 280 l 1
 435 280 l 1
 403 234 l 1
 411 256 419 273 419 297 c 0
 419 355 402 388 341 388 c 0
 243 388 174 289 164 189 c 0
 156 130 180 79 249 79 c 0
 305 79 355 114 387 152 c 1
 473 115 l 1
 425 47 343 -10 237 -10 c 0
EndSplineSet
EndChar

StartChar: g
Encoding: 103 103 41
Width: 551
VWidth: 0
Flags: HMW
LayerCount: 2
Fore
SplineSet
-27 -31 m 1
 74 -32 l 1
 68 -93 87 -138 155 -139 c 0
 241 -141 310 -64 336 10 c 2
 492 460 l 1
 596 460 l 1
 442 10 l 2
 397 -120 302 -232 150 -233 c 0
 24 -234 -46 -150 -27 -31 c 1
55 233 m 0
 93 354 209 472 342 470 c 0
 474 468 485 332 453 232 c 0
 417 119 324 -3 194 -4 c 0
 61 -5 20 123 55 233 c 0
163 232 m 0
 140 168 157 91 237 90 c 0
 316 89 390 164 415 233 c 0
 436 293 424 372 348 375 c 0
 264 378 189 304 163 232 c 0
EndSplineSet
EndChar

StartChar: f
Encoding: 102 102 42
Width: 290
VWidth: 0
Flags: HMW
LayerCount: 2
Fore
SplineSet
131 460 m 1
 383 460 l 1
 349 365 l 1
 96 365 l 1
 131 460 l 1
445 665 m 1
 436 677 428 691 410 691 c 0
 370 690 345 639 333 608 c 2
 124 0 l 1
 19 0 l 1
 234 631 l 2
 264 713 331 794 427 791 c 0
 466 790 491 772 517 745 c 1
 445 665 l 1
EndSplineSet
EndChar

StartChar: s
Encoding: 115 115 43
Width: 399
VWidth: 0
Flags: HMW
LayerCount: 2
Fore
SplineSet
95 148 m 1
 125 108 165 71 221 73 c 0
 258 73 288 102 289 132 c 0
 291 171 244 195 216 207 c 0
 168 228 115 262 120 333 c 0
 126 425 208 470 286 470 c 0
 359 470 411 435 447 389 c 1
 386 328 l 1
 359 361 327 390 287 390 c 0
 246 390 220 368 219 341 c 0
 216 305 254 291 288 275 c 0
 347 248 396 215 392 137 c 0
 386 52 312 -14 217 -14 c 0
 126 -14 58 37 21 89 c 1
 95 148 l 1
EndSplineSet
EndChar

StartChar: y
Encoding: 121 121 44
Width: 443
VWidth: 0
Flags: HMW
LayerCount: 2
Fore
SplineSet
557 459 m 1
 40 -219 l 1
 -77 -219 l 1
 137 60 l 1
 101 460 l 1
 209 460 l 1
 229 96 l 1
 179 100 l 1
 438 459 l 1
 557 459 l 1
EndSplineSet
EndChar

StartChar: w
Encoding: 119 119 45
Width: 669
VWidth: 0
Flags: HMW
LayerCount: 2
Fore
SplineSet
105 460 m 1
 213 460 l 1
 218 192 l 1
 447 499 l 1
 464 190 l 1
 659 459 l 1
 779 459 l 1
 403 -37 l 1
 377 274 l 1
 137 -37 l 1
 105 460 l 1
EndSplineSet
EndChar

StartChar: v
Encoding: 118 118 46
Width: 445
VWidth: 0
Flags: HMW
LayerCount: 2
Fore
SplineSet
107 460 m 1
 219 460 l 1
 239 169 l 1
 441 459 l 1
 561 459 l 1
 177 -46 l 1
 107 460 l 1
EndSplineSet
EndChar

StartChar: x
Encoding: 120 120 47
Width: 437
VWidth: 0
Flags: HMW
LayerCount: 2
Fore
SplineSet
417 459 m 1
 542 459 l 1
 314 229 l 1
 401 0 l 1
 292 0 l 1
 235 161 l 1
 87 0 l 1
 -41 0 l 1
 203 249 l 1
 119 460 l 1
 230 460 l 1
 282 316 l 1
 417 459 l 1
EndSplineSet
EndChar

StartChar: z
Encoding: 122 122 48
Width: 455
VWidth: 0
Flags: HMW
LayerCount: 2
Fore
SplineSet
329 360 m 1
 113 360 l 1
 148 460 l 1
 551 460 l 1
 180 100 l 1
 402 100 l 1
 366 0 l 1
 -46 0 l 1
 329 360 l 1
EndSplineSet
EndChar

StartChar: j
Encoding: 106 106 49
Width: 243
VWidth: 0
Flags: HMW
LayerCount: 2
Fore
SplineSet
216 643 m 0
 216 680 245 708 283 708 c 0
 321 708 351 680 351 643 c 0
 351 606 321 578 283 578 c 0
 245 578 216 606 216 643 c 0
-115 -100 m 1
 -107 -113 -92 -125 -78 -126 c 0
 -39 -129 -14 -72 -4 -44 c 2
 169 460 l 1
 274 460 l 1
 95 -66 l 2
 65 -148 7 -230 -89 -227 c 0
 -128 -226 -162 -207 -188 -180 c 1
 -115 -100 l 1
EndSplineSet
EndChar

StartChar: P
Encoding: 80 80 50
Width: 543
VWidth: 0
Flags: HMW
LayerCount: 2
Fore
SplineSet
255 699 m 1
 373 700 l 1
 131 0 l 1
 18 0 l 1
 255 699 l 1
286 596 m 1
 323 700 l 1
 449 700 l 1
 575 699 656 611 621 482 c 0
 585 348 450 266 315 265 c 1
 172 265 l 1
 210 369 l 1
 336 369 l 1
 409 372 482 411 508 483 c 0
 532 550 493 595 427 596 c 2
 286 596 l 1
EndSplineSet
EndChar

StartChar: U
Encoding: 85 85 51
Width: 617
VWidth: 0
Flags: HMW
LayerCount: 2
Fore
SplineSet
252 700 m 1
 368 700 l 1
 206 235 l 2
 186 168 195 93 279 92 c 0
 380 91 434 160 461 235 c 1
 621 700 l 1
 737 700 l 1
 576 230 l 2
 529 94 429 -17 257 -17 c 0
 114 -17 50 102 92 230 c 1
 252 700 l 1
EndSplineSet
EndChar

StartChar: S
Encoding: 83 83 52
Width: 544
VWidth: 0
Flags: HMW
LayerCount: 2
Fore
SplineSet
128 226 m 1
 153 149 186 92 266 92 c 0
 352 92 408 159 411 215 c 0
 416 275 362 296 309 326 c 0
 247 360 177 418 185 509 c 0
 195 621 297 712 435 712 c 0
 547 712 611 646 638 559 c 1
 539 511 l 1
 522 559 494 607 414 607 c 0
 351 607 306 571 303 516 c 0
 297 460 365 425 410 402 c 0
 480 368 538 319 531 222 c 0
 520 94 397 -15 254 -15 c 0
 138 -15 61 66 35 165 c 1
 128 226 l 1
EndSplineSet
EndChar

StartChar: at
Encoding: 64 64 53
Width: 724
VWidth: 0
Flags: HMW
LayerCount: 2
Fore
SplineSet
324 320 m 0
 312 288 313 245 354 240 c 0
 416 232 481 316 498 368 c 0
 509 401 506 444 464 448 c 0
 403 454 341 370 324 320 c 0
233 316 m 0
 261 411 359 534 469 529 c 0
 554 525 557 433 538 369 c 0
 510 274 425 157 314 159 c 0
 226 161 212 246 233 316 c 0
80 320 m 0
 146 525 347 717 572 715 c 0
 755 713 831 549 779 390 c 0
 746 287 652 140 527 148 c 0
 454 153 457 214 469 269 c 1
 464 281 l 1
 573 519 l 1
 663 519 l 1
 551 297 l 2
 547 288 542 279 540 270 c 0
 535 254 532 233 552 227 c 0
 614 208 678 347 694 390 c 0
 737 506 702 633 560 635 c 0
 379 637 222 480 165 320 c 0
 120 194 158 68 308 64 c 0
 379 62 448 84 512 111 c 1
 526 39 l 1
 452 5 373 -16 291 -15 c 0
 96 -12 25 148 80 320 c 0
EndSplineSet
EndChar

StartChar: period
Encoding: 46 46 54
Width: 290
VWidth: 0
Flags: HMW
LayerCount: 2
Fore
SplineSet
41 51 m 0
 41 89 71 120 111 120 c 0
 151 120 181 89 181 51 c 0
 181 13 151 -18 111 -18 c 0
 71 -18 41 13 41 51 c 0
EndSplineSet
EndChar

StartChar: comma
Encoding: 44 44 55
Width: 295
VWidth: 0
Flags: HMW
LayerCount: 2
Fore
SplineSet
108 108 m 1
 208 75 l 1
 14 -169 l 1
 -63 -147 l 1
 108 108 l 1
EndSplineSet
EndChar

StartChar: colon
Encoding: 58 58 56
Width: 290
VWidth: 0
Flags: HMW
LayerCount: 2
Fore
SplineSet
38 51 m 0
 38 89 68 120 108 120 c 0
 148 120 178 89 178 51 c 0
 178 13 148 -18 108 -18 c 0
 68 -18 38 13 38 51 c 0
167 428 m 0
 167 466 197 498 237 498 c 0
 277 498 307 466 307 428 c 0
 307 390 277 359 237 359 c 0
 197 359 167 390 167 428 c 0
EndSplineSet
EndChar

StartChar: semicolon
Encoding: 59 59 57
Width: 333
VWidth: 0
Flags: HMW
LayerCount: 2
Fore
SplineSet
203 426 m 0
 203 464 233 495 273 495 c 0
 313 495 343 464 343 426 c 0
 343 388 313 357 273 357 c 0
 233 357 203 388 203 426 c 0
116 108 m 1
 216 75 l 1
 22 -169 l 1
 -54 -147 l 1
 116 108 l 1
EndSplineSet
EndChar

StartChar: quotedbl
Encoding: 34 34 58
Width: 457
VWidth: 0
Flags: HMW
LayerCount: 2
Fore
SplineSet
291 699 m 1
 414 699 l 1
 226 394 l 1
 153 393 l 1
 291 699 l 1
472 699 m 1
 595 699 l 1
 407 394 l 1
 334 393 l 1
 472 699 l 1
EndSplineSet
EndChar

StartChar: exclam
Encoding: 33 33 59
Width: 298
VWidth: 0
Flags: HMW
LayerCount: 2
Fore
SplineSet
268 700 m 1
 401 700 l 1
 211 213 l 1
 127 213 l 1
 268 700 l 1
42 49 m 0
 42 87 73 116 113 116 c 0
 153 116 184 87 184 49 c 0
 184 11 153 -19 113 -19 c 0
 73 -19 42 11 42 49 c 0
EndSplineSet
EndChar

StartChar: quotesingle
Encoding: 39 39 60
Width: 276
VWidth: 0
Flags: HMW
LayerCount: 2
Fore
SplineSet
291 699 m 1
 414 699 l 1
 226 394 l 1
 153 393 l 1
 291 699 l 1
EndSplineSet
EndChar

StartChar: numbersign
Encoding: 35 35 61
Width: 592
VWidth: 0
Flags: HMW
LayerCount: 2
Fore
SplineSet
163 430 m 1
 191 516 l 1
 683 516 l 1
 654 429 l 1
 522 429 l 1
 504 431 l 1
 318 431 l 1
 299 429 l 1
 163 430 l 1
42 189 m 1
 71 276 l 1
 193 276 l 1
 213 274 l 1
 412 274 l 1
 436 276 l 1
 563 276 l 1
 535 189 l 1
 42 189 l 1
615 699 m 1
 717 699 l 1
 315 0 l 1
 216 0 l 1
 346 226 l 1
 361 247 l 1
 482 460 l 1
 491 482 l 1
 615 699 l 1
406 699 m 1
 507 699 l 1
 383 484 l 1
 368 462 l 1
 245 247 l 1
 236 226 l 1
 106 0 l 1
 10 0 l 1
 406 699 l 1
EndSplineSet
EndChar

StartChar: hyphen
Encoding: 45 45 62
Width: 201
VWidth: 0
Flags: HMW
LayerCount: 2
Fore
SplineSet
14 189 m 1
 47 286 l 1
 245 286 l 1
 211 189 l 1
 14 189 l 1
EndSplineSet
EndChar

StartChar: dollar
Encoding: 36 36 63
Width: 560
VWidth: 0
Flags: HMW
LayerCount: 2
Fore
SplineSet
461 817 m 1
 553 817 l 1
 499 656 l 1
 413 656 l 1
 461 817 l 1
229 53 m 1
 315 53 l 1
 265 -111 l 1
 174 -111 l 1
 229 53 l 1
543 504 m 1
 530 555 510 608 449 610 c 0
 397 612 340 579 323 528 c 0
 298 456 380 427 430 403 c 0
 515 362 566 287 540 191 c 0
 507 69 385 -10 261 -9 c 0
 147 -8 85 76 63 178 c 1
 163 236 l 1
 177 168 201 94 284 93 c 0
 342 93 400 132 419 188 c 0
 443 261 375 297 320 324 c 0
 236 365 178 436 206 533 c 0
 237 640 357 710 464 709 c 0
 561 708 619 648 644 559 c 1
 543 504 l 1
EndSplineSet
EndChar

StartChar: bar
Encoding: 124 124 64
Width: 286
VWidth: 0
Flags: HMW
LayerCount: 2
Fore
SplineSet
300 784 m 1
 402 784 l 1
 95 -214 l 1
 -8 -214 l 1
 300 784 l 1
EndSplineSet
EndChar

StartChar: zero
Encoding: 48 48 65
Width: 587
VWidth: 0
Flags: HMW
LayerCount: 2
Fore
SplineSet
214 350 m 0
 189 279 141 99 265 96 c 0
 389 93 470 252 505 350 c 0
 530 421 577 601 453 604 c 0
 329 607 249 448 214 350 c 0
101 350 m 0
 154 510 285 712 475 711 c 0
 669 710 661 485 618 350 c 0
 565 189 435 -12 244 -11 c 0
 51 -10 58 216 101 350 c 0
EndSplineSet
Substitution2: "Tabular Numbers lookup" uniFF10
EndChar

StartChar: one
Encoding: 49 49 66
Width: 445
VWidth: 0
Flags: HMW
LayerCount: 2
Fore
SplineSet
195 535 m 1
 236 650 l 1
 525 713 l 1
 279 0 l 1
 166 0 l 1
 365 578 l 1
 195 535 l 1
EndSplineSet
Substitution2: "Tabular Numbers lookup" uniFF11
EndChar

StartChar: two
Encoding: 50 50 67
Width: 567
VWidth: 0
Flags: HMW
LayerCount: 2
Fore
SplineSet
-18 0 m 1
 388 341 l 2
 437 382 497 431 516 496 c 0
 532 551 506 603 445 605 c 0
 357 608 304 523 273 453 c 1
 159 453 l 1
 207 587 312 713 466 712 c 0
 582 711 667 618 635 502 c 0
 613 421 551 356 488 305 c 2
 241 111 l 1
 524 110 l 1
 490 0 l 1
 -18 0 l 1
EndSplineSet
Substitution2: "Tabular Numbers lookup" uniFF12
EndChar

StartChar: four
Encoding: 52 52 68
Width: 591
VWidth: 0
Flags: HMW
LayerCount: 2
Fore
SplineSet
6 136 m 1
 568 698 l 1
 642 699 l 1
 403 0 l 1
 284 0 l 1
 345 176 l 1
 356 187 l 1
 457 476 l 1
 209 228 l 1
 425 228 l 1
 444 236 l 1
 588 236 l 1
 553 134 l 1
 6 136 l 1
EndSplineSet
Substitution2: "Tabular Numbers lookup" uniFF14
EndChar

StartChar: slash
Encoding: 47 47 69
Width: 519
VWidth: 0
Flags: HMW
LayerCount: 2
Fore
SplineSet
585 699 m 1
 696 699 l 1
 14 -149 l 1
 -94 -148 l 1
 585 699 l 1
EndSplineSet
EndChar

StartChar: backslash
Encoding: 92 92 70
Width: 495
VWidth: 0
Flags: HMW
LayerCount: 2
Fore
SplineSet
198 701 m 1
 301 700 l 1
 426 0 l 1
 328 0 l 1
 198 701 l 1
EndSplineSet
EndChar

StartChar: eight
Encoding: 56 56 71
Width: 543
VWidth: 0
Flags: HMW
LayerCount: 2
Fore
SplineSet
199 532 m 0
 232 637 345 713 453 712 c 0
 555 711 629 632 599 530 c 0
 567 423 454 351 345 351 c 0
 241 351 167 427 199 532 c 0
303 518 m 0
 287 474 303 423 355 421 c 0
 412 419 470 470 488 519 c 0
 504 563 489 616 435 618 c 0
 377 620 321 568 303 518 c 0
59 191 m 0
 95 310 222 393 344 392 c 0
 459 392 542 305 506 189 c 0
 470 72 341 -13 221 -12 c 0
 109 -11 25 78 59 191 c 0
176 206 m 0
 156 151 177 90 241 88 c 0
 310 86 379 146 401 207 c 0
 419 260 397 321 335 323 c 0
 267 325 198 264 176 206 c 0
EndSplineSet
Substitution2: "Tabular Numbers lookup" uniFF18
EndChar

StartChar: nine
Encoding: 57 57 72
Width: 576
VWidth: 0
Flags: HMW
LayerCount: 2
Fore
SplineSet
530 464 m 0
 553 530 527 607 448 608 c 0
 366 609 290 538 265 464 c 0
 242 398 266 319 346 318 c 0
 428 317 505 390 530 464 c 0
237 2 m 1
 84 2 l 1
 380 274 l 1
 402 275 l 1
 368 254 332 237 290 238 c 0
 169 240 125 361 154 464 c 0
 192 601 323 712 467 712 c 0
 607 712 678 593 641 464 c 0
 624 401 582 345 537 299 c 2
 237 2 l 1
EndSplineSet
Substitution2: "Tabular Numbers lookup" uniFF19
EndChar

StartChar: three
Encoding: 51 51 73
Width: 541
VWidth: 0
Flags: HMW
LayerCount: 2
Fore
SplineSet
318 344 m 1
 335 406 l 1
 401 417 477 445 499 516 c 0
 513 562 497 608 445 610 c 0
 383 612 341 562 312 514 c 1
 203 516 l 1
 246 624 339 712 462 711 c 0
 568 710 645 627 615 521 c 0
 578 392 437 351 318 344 c 1
248 -12 m 0
 120 -12 57 79 76 200 c 1
 189 199 l 1
 182 139 200 93 268 91 c 0
 334 90 400 139 420 201 c 0
 447 284 376 309 309 317 c 1
 329 384 l 1
 445 377 570 326 531 186 c 0
 497 65 370 -12 248 -12 c 0
EndSplineSet
Substitution2: "Tabular Numbers lookup" uniFF13
EndChar

StartChar: five
Encoding: 53 53 74
Width: 560
VWidth: 0
Flags: HMW
LayerCount: 2
Fore
SplineSet
561 227 m 0
 522 90 392 -11 249 -11 c 0
 150 -11 80 39 33 115 c 1
 121 197 l 1
 148 143 188 100 255 99 c 0
 337 98 417 157 442 235 c 0
 465 306 425 365 350 369 c 0
 281 373 215 344 153 317 c 1
 357 700 l 1
 701 700 l 1
 668 596 l 1
 416 597 l 1
 317 435 l 1
 352 448 388 460 426 460 c 0
 553 458 591 333 561 227 c 0
EndSplineSet
Substitution2: "Tabular Numbers lookup" uniFF15
EndChar

StartChar: six
Encoding: 54 54 75
Width: 576
VWidth: 0
Flags: HMW
LayerCount: 2
Fore
SplineSet
194 236 m 0
 171 170 197 93 276 92 c 0
 358 91 435 162 460 236 c 0
 483 302 458 381 378 382 c 0
 296 383 219 310 194 236 c 0
488 698 m 1
 640 698 l 1
 344 426 l 1
 322 425 l 1
 356 446 392 463 434 462 c 0
 555 460 600 339 571 236 c 0
 533 99 401 -12 257 -12 c 0
 117 -12 47 107 84 236 c 0
 101 299 142 355 187 401 c 2
 488 698 l 1
EndSplineSet
Substitution2: "Tabular Numbers lookup" uniFF16
EndChar

StartChar: seven
Encoding: 55 55 76
Width: 522
VWidth: 0
Flags: HMW
LayerCount: 2
Fore
SplineSet
172 589 m 1
 208 700 l 1
 707 699 l 1
 172 0 l 1
 44 0 l 1
 497 588 l 1
 172 589 l 1
EndSplineSet
Substitution2: "Tabular Numbers lookup" uniFF17
EndChar

StartChar: plus
Encoding: 43 43 77
Width: 600
VWidth: 0
Flags: HMW
LayerCount: 2
Fore
SplineSet
77 208 m 1
 113 314 l 1
 596 314 l 1
 560 207 l 1
 77 208 l 1
366 515 m 1
 479 516 l 1
 302 5 l 1
 194 6 l 1
 366 515 l 1
EndSplineSet
EndChar

StartChar: equal
Encoding: 61 61 78
Width: 582
VWidth: 0
Flags: HMW
LayerCount: 2
Fore
SplineSet
44 118 m 1
 76 215 l 1
 548 215 l 1
 514 118 l 1
 44 118 l 1
102 291 m 1
 135 387 l 1
 607 387 l 1
 574 290 l 1
 102 291 l 1
EndSplineSet
EndChar

StartChar: percent
Encoding: 37 37 79
Width: 769
VWidth: 0
Flags: HMW
LayerCount: 2
Fore
SplineSet
158 545 m 0
 185 634 275 713 371 713 c 0
 465 713 508 627 483 543 c 0
 456 454 365 375 269 375 c 0
 175 375 133 461 158 545 c 0
246 543 m 0
 234 509 244 463 289 461 c 0
 333 459 379 505 393 544 c 0
 405 578 397 624 352 626 c 0
 308 628 260 582 246 543 c 0
418 157 m 0
 445 246 535 325 631 325 c 0
 725 325 768 239 743 155 c 0
 716 66 626 -13 530 -13 c 0
 436 -13 393 73 418 157 c 0
507 156 m 0
 495 122 506 76 549 74 c 0
 593 72 639 115 654 157 c 0
 666 191 656 237 613 239 c 0
 569 241 522 198 507 156 c 0
742 699 m 1
 855 699 l 1
 158 0 l 1
 49 0 l 1
 742 699 l 1
EndSplineSet
EndChar

StartChar: ampersand
Encoding: 38 38 80
Width: 663
VWidth: 0
Flags: HMW
LayerCount: 2
Fore
SplineSet
295 379 m 2
 265 434 230 487 247 552 c 0
 272 647 375 713 471 712 c 0
 561 711 623 641 599 551 c 0
 574 458 476 402 397 360 c 0
 320 320 201 287 172 193 c 0
 152 131 192 88 253 85 c 0
 402 76 534 230 630 324 c 1
 693 268 l 1
 570 145 414 -15 226 -11 c 0
 116 -9 27 70 58 185 c 0
 94 317 231 365 341 418 c 0
 395 445 480 482 498 546 c 0
 509 582 493 619 450 621 c 0
 407 623 363 588 350 547 c 0
 334 499 368 454 389 415 c 2
 610 0 l 1
 498 0 l 1
 295 379 l 2
EndSplineSet
EndChar

StartChar: question
Encoding: 63 63 81
Width: 550
VWidth: 0
Flags: HMW
LayerCount: 2
Fore
SplineSet
509 500 m 0
 532 564 500 615 431 616 c 0
 365 618 307 575 260 534 c 1
 197 595 l 1
 270 660 357 715 459 713 c 0
 578 711 651 613 615 499 c 0
 577 380 462 312 346 288 c 1
 302 183 l 1
 217 183 l 1
 256 359 l 1
 281 359 l 1
 369 364 477 411 509 500 c 0
143 48 m 0
 143 84 173 113 211 113 c 0
 250 113 280 82 280 48 c 0
 280 11 249 -18 211 -18 c 0
 172 -18 143 12 143 48 c 0
EndSplineSet
EndChar

StartChar: parenleft
Encoding: 40 40 82
Width: 302
VWidth: 0
Flags: HMW
LayerCount: 2
Fore
SplineSet
388 778 m 1
 488 778 l 1
 382 628 295 465 240 290 c 0
 191 131 165 -35 187 -201 c 1
 94 -201 l 1
 65 -36 82 131 130 290 c 0
 184 468 271 634 388 778 c 1
EndSplineSet
EndChar

StartChar: parenright
Encoding: 41 41 83
Width: 302
VWidth: 0
Flags: HMW
LayerCount: 2
Fore
SplineSet
25 -198 m 1
 -74 -198 l 1
 32 -48 118 115 173 290 c 0
 222 449 248 615 226 781 c 1
 320 781 l 1
 349 616 332 449 284 290 c 0
 230 112 142 -54 25 -198 c 1
EndSplineSet
EndChar

StartChar: asterisk
Encoding: 42 42 84
Width: 557
VWidth: 0
Flags: HMW
LayerCount: 2
Fore
SplineSet
603 600 m 1
 601 507 l 1
 391 460 l 1
 391 519 l 1
 603 600 l 1
498 343 m 1
 405 288 l 1
 362 475 l 1
 415 506 l 1
 498 343 l 1
248 291 m 1
 187 352 l 1
 370 505 l 1
 409 467 l 1
 248 291 l 1
194 510 m 1
 250 599 l 1
 412 515 l 1
 377 462 l 1
 194 510 l 1
416 699 m 1
 512 699 l 1
 421 490 l 1
 363 490 l 1
 416 699 l 1
EndSplineSet
EndChar

StartChar: less
Encoding: 60 60 85
Width: 602
VWidth: 0
Flags: HMW
LayerCount: 2
Fore
SplineSet
253 257 m 1
 529 108 l 1
 492 11 l 1
 83 228 l 1
 106 295 l 1
 666 514 l 1
 627 398 l 1
 253 257 l 1
EndSplineSet
EndChar

StartChar: greater
Encoding: 62 62 86
Width: 602
VWidth: 0
Flags: HMW
LayerCount: 2
Fore
SplineSet
418 263 m 1
 143 412 l 1
 179 509 l 1
 588 291 l 1
 566 225 l 1
 5 6 l 1
 44 122 l 1
 418 263 l 1
EndSplineSet
EndChar

StartChar: bracketleft
Encoding: 91 91 87
Width: 305
VWidth: 0
Flags: HMW
LayerCount: 2
Fore
SplineSet
371 683 m 1
 122 -123 l 1
 218 -123 l 1
 187 -220 l 1
 -14 -220 l 1
 295 780 l 1
 496 780 l 1
 465 683 l 1
 371 683 l 1
EndSplineSet
EndChar

StartChar: bracketright
Encoding: 93 93 88
Width: 305
VWidth: 0
Flags: HMW
LayerCount: 2
Fore
SplineSet
39 -123 m 1
 288 683 l 1
 192 683 l 1
 224 780 l 1
 424 780 l 1
 115 -220 l 1
 -86 -220 l 1
 -56 -123 l 1
 39 -123 l 1
EndSplineSet
EndChar

StartChar: asciicircum
Encoding: 94 94 89
Width: 479
VWidth: 0
Flags: HMW
LayerCount: 2
Fore
SplineSet
397 602 m 1
 254 456 l 1
 146 456 l 1
 395 709 l 1
 453 710 l 1
 528 454 l 1
 435 454 l 1
 397 602 l 1
EndSplineSet
EndChar

StartChar: underscore
Encoding: 95 95 90
Width: 481
VWidth: 0
Flags: HMW
LayerCount: 2
Fore
SplineSet
-104 -140 m 1
 -80 -71 l 1
 406 -71 l 1
 382 -140 l 1
 -104 -140 l 1
EndSplineSet
EndChar

StartChar: grave
Encoding: 96 96 91
Width: 352
VWidth: 0
Flags: HMW
LayerCount: 2
Fore
SplineSet
230 660 m 1
 326 703 l 1
 423 540 l 1
 359 508 l 1
 230 660 l 1
EndSplineSet
EndChar

StartChar: braceleft
Encoding: 123 123 92
Width: 324
VWidth: 0
Flags: HMW
LayerCount: 2
Fore
SplineSet
366 640 m 2
 320 490 l 2
 288 388 247 303 134 281 c 1
 139 300 l 1
 245 271 221 175 195 90 c 2
 147 -61 l 2
 138 -89 146 -108 175 -109 c 2
 212 -109 l 1
 185 -200 l 1
 120 -200 l 2
 45 -200 19 -125 39 -60 c 2
 101 140 l 2
 114 186 119 217 83 250 c 1
 107 330 l 1
 153 356 173 390 190 440 c 2
 252 641 l 2
 276 712 333 778 411 779 c 1
 486 779 l 1
 460 690 l 1
 428 690 l 2
 396 690 376 672 366 640 c 2
EndSplineSet
EndChar

StartChar: braceright
Encoding: 125 125 93
Width: 324
VWidth: 0
Flags: HMW
LayerCount: 2
Fore
SplineSet
76 -60 m 2
 122 90 l 2
 154 192 196 277 309 299 c 1
 303 280 l 1
 197 309 221 405 247 490 c 2
 295 641 l 2
 304 669 295 688 266 689 c 2
 231 690 l 1
 257 780 l 1
 322 780 l 2
 397 779 423 705 403 640 c 2
 341 440 l 2
 328 394 322 363 358 330 c 1
 335 250 l 1
 289 224 268 190 251 140 c 2
 191 -61 l 2
 167 -132 109 -198 31 -199 c 1
 -44 -199 l 1
 -17 -110 l 1
 14 -110 l 2
 46 -110 66 -92 76 -60 c 2
EndSplineSet
EndChar

StartChar: asciitilde
Encoding: 126 126 94
Width: 541
VWidth: 0
Flags: HMW
LayerCount: 2
Fore
SplineSet
160 170 m 1
 72 176 l 1
 73 184 73 193 75 201 c 0
 83 230 102 259 123 280 c 0
 154 311 199 334 245 334 c 0
 286 334 318 311 348 286 c 0
 363 273 382 253 404 254 c 0
 428 255 448 278 457 298 c 0
 461 307 461 319 461 329 c 1
 553 323 l 1
 552 314 552 303 549 294 c 0
 542 265 525 236 504 214 c 0
 477 186 436 164 396 165 c 0
 357 166 327 190 298 214 c 0
 279 230 257 247 231 246 c 0
 202 245 175 222 164 196 c 0
 161 188 161 178 160 170 c 1
EndSplineSet
EndChar

StartChar: exclamdown
Encoding: 161 161 95
Width: 298
VWidth: 0
Flags: HMW
LayerCount: 2
Fore
SplineSet
79 -239 m 1
 -53 -239 l 1
 138 248 l 1
 221 248 l 1
 79 -239 l 1
303 411 m 0
 295 378 251 344 217 346 c 0
 182 348 159 380 168 415 c 0
 176 448 221 481 255 479 c 0
 290 477 312 446 303 411 c 0
EndSplineSet
EndChar

StartChar: cent
Encoding: 162 162 96
Width: 545
VWidth: 0
Flags: HMW
LayerCount: 2
Fore
SplineSet
204 37 m 1
 286 37 l 1
 237 -111 l 1
 149 -111 l 1
 204 37 l 1
193 230 m 0
 168 163 192 87 272 84 c 0
 337 82 397 119 445 159 c 1
 408 41 l 1
 360 11 306 -9 248 -9 c 0
 114 -8 49 108 87 230 c 0
 128 362 258 468 398 469 c 0
 451 469 494 453 533 418 c 1
 496 299 l 1
 476 349 440 377 385 376 c 0
 302 375 221 306 193 230 c 0
386 577 m 1
 474 577 l 1
 418 429 l 1
 337 429 l 1
 386 577 l 1
EndSplineSet
EndChar

StartChar: sterling
Encoding: 163 163 97
Width: 556
VWidth: 0
Flags: HMW
LayerCount: 2
Fore
SplineSet
134 370 m 1
 484 370 l 1
 453 285 l 1
 103 285 l 1
 134 370 l 1
528 475 m 1
 538 531 540 602 466 605 c 0
 406 608 349 563 327 510 c 0
 294 429 358 347 334 265 c 0
 303 159 201 86 101 52 c 1
 137 104 l 1
 479 104 l 1
 442 0 l 1
 1 0 l 1
 84 78 191 150 228 264 c 0
 256 351 192 433 218 520 c 0
 251 631 371 711 485 709 c 0
 599 707 645 614 632 512 c 1
 528 475 l 1
EndSplineSet
EndChar

StartChar: currency
Encoding: 164 164 98
Width: 543
VWidth: 0
Flags: HMW
LayerCount: 2
Fore
SplineSet
145 506 m 1
 214 558 l 1
 275 456 l 1
 210 409 l 1
 145 506 l 1
46 43 m 1
 8 103 l 1
 129 192 l 1
 166 134 l 1
 46 43 l 1
513 408 m 1
 474 467 l 1
 596 558 l 1
 633 499 l 1
 513 408 l 1
364 142 m 1
 432 192 l 1
 494 92 l 1
 429 43 l 1
 364 142 l 1
94 300 m 0
 133 425 259 539 395 539 c 0
 528 539 584 416 547 300 c 0
 508 175 382 61 246 61 c 0
 113 61 57 184 94 300 c 0
194 300 m 0
 171 238 190 162 267 161 c 0
 346 160 420 229 446 300 c 0
 469 362 452 438 375 439 c 0
 296 440 220 371 194 300 c 0
EndSplineSet
EndChar

StartChar: yen
Encoding: 165 165 99
Width: 578
VWidth: 0
Flags: HMW
LayerCount: 2
Fore
SplineSet
83 281 m 1
 112 365 l 1
 606 365 l 1
 577 280 l 1
 83 281 l 1
32 131 m 1
 61 215 l 1
 555 215 l 1
 526 130 l 1
 32 131 l 1
624 699 m 1
 760 699 l 1
 395 292 l 1
 295 0 l 1
 176 0 l 1
 282 303 l 1
 197 700 l 1
 320 700 l 1
 368 405 l 1
 624 699 l 1
EndSplineSet
EndChar

StartChar: brokenbar
Encoding: 166 166 100
Width: 286
VWidth: 0
Flags: HMW
LayerCount: 2
Fore
SplineSet
276 694 m 1
 378 694 l 1
 292 446 l 1
 190 446 l 1
 276 694 l 1
228 254 m 1
 142 6 l 1
 39 6 l 1
 125 254 l 1
 228 254 l 1
EndSplineSet
EndChar

StartChar: section
Encoding: 167 167 101
Width: 446
VWidth: 0
Flags: HMW
LayerCount: 2
Fore
SplineSet
471 568 m 1
 452 597 430 619 392 619 c 0
 367 619 323 606 314 579 c 0
 302 542 363 525 387 512 c 0
 443 486 487 438 469 372 c 0
 441 272 336 244 245 238 c 1
 258 273 l 1
 299 287 350 310 364 356 c 0
 380 407 331 426 294 446 c 0
 239 475 194 519 214 586 c 0
 238 666 328 714 407 715 c 0
 473 716 524 687 551 629 c 1
 471 568 l 1
100 165 m 1
 113 120 137 81 193 81 c 0
 225 80 269 98 281 130 c 0
 296 173 247 191 217 207 c 0
 159 234 107 280 128 350 c 0
 157 448 264 472 353 478 c 1
 343 448 l 1
 302 432 251 414 235 369 c 0
 214 313 271 292 310 271 c 0
 364 242 406 194 388 129 c 0
 363 38 263 -15 173 -14 c 0
 90 -13 38 34 18 106 c 1
 100 165 l 1
EndSplineSet
EndChar

StartChar: dieresis
Encoding: 168 168 102
Width: 457
VWidth: 0
Flags: HMW
LayerCount: 2
Fore
SplineSet
431 651 m 0
 438 682 481 716 513 714 c 0
 547 712 569 680 562 647 c 0
 555 616 512 582 480 584 c 0
 446 586 424 618 431 651 c 0
226 651 m 0
 233 682 277 716 309 714 c 0
 343 712 365 680 358 647 c 0
 351 616 307 582 275 584 c 0
 241 586 219 618 226 651 c 0
EndSplineSet
EndChar

StartChar: copyright
Encoding: 169 169 103
Width: 752
VWidth: 0
Flags: HMW
LayerCount: 2
Fore
SplineSet
318 350 m 0
 295 281 321 205 402 203 c 0
 456 201 505 230 548 259 c 1
 525 176 l 1
 483 151 440 132 390 133 c 0
 271 134 212 242 243 350 c 0
 275 466 388 565 511 567 c 0
 558 568 595 551 630 522 c 1
 606 439 l 1
 580 475 551 498 505 498 c 0
 421 498 344 427 318 350 c 0
164 350 m 0
 117 205 178 42 348 41 c 0
 524 40 684 189 736 350 c 0
 783 495 722 658 552 659 c 0
 376 660 216 511 164 350 c 0
109 350 m 0
 164 541 348 711 553 710 c 0
 751 709 841 526 790 350 c 0
 735 159 551 -11 346 -10 c 0
 148 -9 58 174 109 350 c 0
EndSplineSet
EndChar

StartChar: registered
Encoding: 174 174 104
Width: 752
VWidth: 0
Flags: HMW
LayerCount: 2
Fore
SplineSet
410 346 m 1
 475 346 l 1
 548 149 l 1
 469 149 l 1
 410 346 l 1
390 569 m 1
 460 569 l 1
 331 151 l 1
 261 151 l 1
 390 569 l 1
411 509 m 1
 430 569 l 1
 509 570 l 1
 581 566 638 519 618 441 c 0
 597 362 517 317 439 313 c 1
 350 312 l 1
 368 369 l 1
 445 370 l 1
 486 374 534 397 547 440 c 0
 559 480 532 504 495 508 c 1
 411 509 l 1
164 350 m 0
 117 205 178 42 348 41 c 0
 524 40 684 189 736 350 c 0
 783 495 722 658 552 659 c 0
 376 660 216 511 164 350 c 0
109 350 m 0
 164 540 348 711 553 710 c 0
 751 709 841 526 790 350 c 0
 735 160 551 -11 346 -10 c 0
 148 -9 58 174 109 350 c 0
EndSplineSet
EndChar

StartChar: ordfeminine
Encoding: 170 170 105
Width: 235
VWidth: 0
Flags: HMW
LayerCount: 2
Fore
SplineSet
196 530 m 0
 192 513 205 499 222 497 c 0
 258 494 281 525 301 550 c 1
 301 523 l 1
 277 487 248 454 200 456 c 0
 158 458 130 491 143 532 c 0
 158 578 214 608 259 608 c 0
 287 608 308 597 329 580 c 1
 319 553 l 1
 302 564 286 576 264 575 c 0
 241 574 202 555 196 530 c 0
224 637 m 1
 215 680 l 1
 245 693 276 706 309 705 c 0
 353 704 388 680 380 632 c 1
 321 461 l 1
 268 461 l 1
 328 625 l 1
 323 643 322 655 300 658 c 0
 275 662 246 647 224 637 c 1
EndSplineSet
EndChar

StartChar: ordmasculine
Encoding: 186 186 106
Width: 261
VWidth: 0
Flags: HMW
LayerCount: 2
Fore
SplineSet
160 581 m 0
 179 644 246 700 313 699 c 0
 380 698 415 641 397 579 c 0
 378 516 311 460 244 461 c 0
 177 462 142 519 160 581 c 0
214 580 m 0
 203 551 212 510 249 509 c 0
 288 508 330 546 343 580 c 0
 354 609 345 650 308 651 c 0
 269 652 227 614 214 580 c 0
EndSplineSet
EndChar

StartChar: guillemotleft
Encoding: 171 171 107
Width: 490
VWidth: 0
Flags: HMW
LayerCount: 2
Fore
SplineSet
330 256 m 1
 406 61 l 1
 328 12 l 1
 233 262 l 1
 485 497 l 1
 537 440 l 1
 330 256 l 1
163 256 m 1
 239 61 l 1
 160 12 l 1
 66 262 l 1
 318 497 l 1
 370 440 l 1
 163 256 l 1
EndSplineSet
EndChar

StartChar: guillemotright
Encoding: 187 187 108
Width: 490
VWidth: 0
Flags: HMW
LayerCount: 2
Fore
SplineSet
227 254 m 1
 151 449 l 1
 229 498 l 1
 325 248 l 1
 73 13 l 1
 20 70 l 1
 227 254 l 1
394 254 m 1
 318 449 l 1
 397 498 l 1
 491 248 l 1
 239 13 l 1
 187 70 l 1
 394 254 l 1
EndSplineSet
EndChar

StartChar: uni00AD
Encoding: 173 173 109
Width: 197
VWidth: 0
Flags: HMW
LayerCount: 2
Fore
SplineSet
19 201 m 1
 44 275 l 1
 236 275 l 1
 211 201 l 1
 19 201 l 1
EndSplineSet
EndChar

StartChar: logicalnot
Encoding: 172 172 110
Width: 594
VWidth: 0
Flags: HMW
LayerCount: 2
Fore
SplineSet
104 289 m 1
 138 386 l 1
 615 386 l 1
 540 176 l 1
 455 176 l 1
 496 289 l 1
 104 289 l 1
EndSplineSet
EndChar

StartChar: macron
Encoding: 175 175 111
Width: 487
VWidth: 0
Flags: HMW
LayerCount: 2
Fore
SplineSet
222 589 m 1
 252 686 l 1
 593 686 l 1
 563 589 l 1
 222 589 l 1
EndSplineSet
EndChar

StartChar: degree
Encoding: 176 176 112
Width: 267
VWidth: 0
Flags: HMW
LayerCount: 2
Fore
SplineSet
166 600 m 0
 185 663 253 720 320 719 c 0
 387 718 421 659 403 597 c 0
 384 534 317 478 249 479 c 0
 182 480 148 538 166 600 c 0
218 598 m 0
 207 568 218 528 255 527 c 0
 294 526 337 564 350 599 c 0
 361 629 351 670 314 671 c 0
 275 672 231 633 218 598 c 0
EndSplineSet
EndChar

StartChar: plusminus
Encoding: 177 177 113
Width: 584
VWidth: 0
Flags: HMW
LayerCount: 2
Fore
SplineSet
28 2 m 1
 57 102 l 1
 525 102 l 1
 494 2 l 1
 28 2 l 1
131 340 m 1
 163 443 l 1
 630 443 l 1
 598 340 l 1
 131 340 l 1
394 620 m 1
 506 620 l 1
 362 162 l 1
 255 163 l 1
 394 620 l 1
EndSplineSet
EndChar

StartChar: uni00B2
Encoding: 178 178 114
Width: 348
VWidth: 0
Flags: HMW
LayerCount: 2
Fore
SplineSet
63 284 m 1
 312 487 l 2
 342 511 383 541 395 580 c 0
 404 610 394 641 359 645 c 0
 306 651 271 594 249 555 c 1
 179 556 l 1
 214 634 276 711 370 709 c 0
 443 708 486 648 465 578 c 0
 450 531 413 495 376 465 c 2
 225 349 l 1
 391 347 l 1
 368 283 l 1
 63 284 l 1
EndSplineSet
EndChar

StartChar: uni00B3
Encoding: 179 179 115
Width: 313
VWidth: 0
Flags: HMW
LayerCount: 2
Fore
SplineSet
249 487 m 1
 261 523 l 1
 301 532 349 546 364 590 c 0
 373 616 362 644 333 646 c 0
 297 649 270 615 251 590 c 1
 183 591 l 1
 215 652 267 707 342 706 c 0
 406 705 451 655 431 592 c 0
 407 514 320 494 249 487 c 1
203 273 m 0
 123 273 93 328 101 400 c 1
 168 400 l 1
 168 366 171 337 212 335 c 0
 250 333 296 367 307 402 c 0
 323 452 281 463 242 471 c 1
 255 510 l 1
 325 503 400 476 375 391 c 0
 354 320 275 273 203 273 c 0
EndSplineSet
EndChar

StartChar: acute
Encoding: 180 180 116
Width: 352
VWidth: 0
Flags: HMW
LayerCount: 2
Fore
SplineSet
459 653 m 1
 247 509 l 1
 193 547 l 1
 380 701 l 1
 459 653 l 1
EndSplineSet
EndChar

StartChar: mu
Encoding: 181 181 117
Width: 521
VWidth: 0
Flags: HMW
LayerCount: 2
Fore
SplineSet
275 460 m 1
 174 173 l 2
 160 133 171 87 223 88 c 0
 283 89 334 130 353 184 c 2
 450 460 l 1
 553 460 l 1
 396 0 l 1
 288 0 l 1
 307 55 l 1
 272 17 229 -7 181 -7 c 0
 153 -7 133 0 117 15 c 1
 3 -320 l 1
 -99 -319 l 1
 166 460 l 1
 275 460 l 1
EndSplineSet
EndChar

StartChar: paragraph
Encoding: 182 182 118
Width: 578
VWidth: 0
Flags: HMW
LayerCount: 2
Fore
SplineSet
308 272 m 1
 191 287 128 368 166 486 c 0
 208 616 323 699 454 699 c 2
 709 699 l 1
 396 -219 l 1
 303 -219 l 1
 591 624 l 1
 521 624 l 1
 233 -219 l 1
 140 -219 l 1
 308 272 l 1
EndSplineSet
EndChar

StartChar: periodcentered
Encoding: 183 183 119
Width: 290
VWidth: 0
Flags: HMW
LayerCount: 2
Fore
SplineSet
109 253 m 0
 118 286 162 322 197 320 c 0
 233 318 254 283 245 249 c 0
 236 216 192 180 157 182 c 0
 121 184 100 219 109 253 c 0
EndSplineSet
EndChar

StartChar: uni00B9
Encoding: 185 185 120
Width: 446
VWidth: 0
Flags: HMW
LayerCount: 2
Fore
SplineSet
284 596 m 1
 306 663 l 1
 483 702 l 1
 334 275 l 1
 265 275 l 1
 383 620 l 1
 284 596 l 1
EndSplineSet
EndChar

StartChar: cedilla
Encoding: 184 184 121
Width: 345
VWidth: 0
Flags: HMW
LayerCount: 2
Fore
SplineSet
143 63 m 1
 226 61 l 1
 114 -53 l 1
 119 -52 123 -52 128 -52 c 0
 172 -58 194 -94 183 -137 c 0
 168 -195 99 -234 43 -234 c 0
 3 -235 -25 -217 -55 -193 c 1
 -6 -146 l 1
 10 -157 26 -170 47 -170 c 0
 67 -170 109 -152 114 -130 c 0
 119 -109 94 -98 78 -97 c 0
 54 -95 28 -105 5 -112 c 1
 143 63 l 1
EndSplineSet
EndChar

StartChar: questiondown
Encoding: 191 191 122
Width: 550
VWidth: 0
Flags: HMW
LayerCount: 2
Fore
SplineSet
172 200 m 0
 149 136 181 85 250 84 c 0
 316 82 374 125 421 166 c 1
 484 105 l 1
 411 40 324 -15 222 -13 c 0
 103 -11 30 87 66 201 c 0
 104 320 219 388 335 412 c 1
 379 517 l 1
 464 518 l 1
 425 341 l 1
 400 341 l 1
 312 336 204 289 172 200 c 0
535 650 m 0
 527 618 481 585 448 587 c 0
 414 589 391 620 399 654 c 0
 407 686 453 720 486 718 c 0
 520 716 543 684 535 650 c 0
EndSplineSet
EndChar

StartChar: multiply
Encoding: 215 215 123
Width: 560
VWidth: 0
Flags: HMW
LayerCount: 2
Fore
SplineSet
76 14 m 1
 29 92 l 1
 252 260 l 1
 144 431 l 1
 231 496 l 1
 330 324 l 1
 550 496 l 1
 597 418 l 1
 374 250 l 1
 482 79 l 1
 395 14 l 1
 296 186 l 1
 76 14 l 1
EndSplineSet
EndChar

StartChar: Oslash
Encoding: 216 216 124
Width: 743
VWidth: 0
Flags: HMW
LayerCount: 2
Fore
SplineSet
221 350 m 0
 181 238 211 104 350 102 c 0
 493 100 619 223 665 350 c 0
 705 462 674 596 535 598 c 0
 392 600 267 477 221 350 c 0
98 350 m 0
 160 542 350 713 559 712 c 0
 760 711 843 527 787 350 c 0
 725 158 535 -16 326 -15 c 0
 123 -14 42 174 98 350 c 0
848 751 m 1
 900 703 l 1
 33 -52 l 1
 -18 -5 l 1
 848 751 l 1
EndSplineSet
EndChar

StartChar: Thorn
Encoding: 222 222 125
Width: 540
VWidth: 0
Flags: HMW
LayerCount: 2
Fore
SplineSet
257 699 m 1
 367 700 l 1
 125 0 l 1
 21 0 l 1
 257 699 l 1
238 466 m 1
 275 568 l 1
 401 568 l 0
 526 563 614 479 574 350 c 0
 533 217 402 140 268 135 c 0
 126 135 l 1
 162 236 l 1
 289 236 l 1
 364 240 439 278 467 352 c 0
 493 423 449 460 381 465 c 1
 238 466 l 1
EndSplineSet
EndChar

StartChar: divide
Encoding: 247 247 126
Width: 592
VWidth: 0
Flags: HMW
LayerCount: 2
Fore
SplineSet
340 493 m 0
 349 526 393 562 428 560 c 0
 464 558 486 523 477 489 c 0
 468 456 424 420 389 422 c 0
 353 424 331 459 340 493 c 0
201 83 m 0
 210 116 254 152 289 150 c 0
 325 148 345 113 336 79 c 0
 327 46 284 10 249 12 c 0
 213 14 192 49 201 83 c 0
70 240 m 1
 105 341 l 1
 613 341 l 1
 577 239 l 1
 70 240 l 1
EndSplineSet
EndChar

StartChar: oslash
Encoding: 248 248 127
Width: 513
VWidth: 0
Flags: HMW
LayerCount: 2
Fore
SplineSet
53 230 m 0
 94 360 225 469 364 469 c 0
 499 469 563 352 525 230 c 0
 484 100 354 -9 215 -9 c 0
 80 -9 15 108 53 230 c 0
156 230 m 0
 131 164 151 85 232 84 c 0
 315 83 395 155 422 230 c 0
 446 295 427 375 346 376 c 0
 263 377 183 304 156 230 c 0
532 501 m 1
 578 473 l 1
 35 -45 l 1
 -10 -18 l 1
 532 501 l 1
EndSplineSet
EndChar

StartChar: circumflex
Encoding: 710 710 128
Width: 451
VWidth: 0
Flags: HMW
LayerCount: 2
Fore
SplineSet
395 637 m 1
 267 548 l 1
 211 604 l 1
 419 740 l 1
 542 597 l 1
 461 548 l 1
 395 637 l 1
EndSplineSet
EndChar

StartChar: ogonek
Encoding: 731 731 129
Width: 244
VWidth: 0
Flags: HMW
LayerCount: 2
Fore
SplineSet
109 -122 m 1
 125 -182 l 1
 96 -202 65 -218 29 -219 c 0
 -30 -220 -76 -180 -60 -119 c 0
 -41 -45 46 -6 108 24 c 1
 145 0 l 1
 107 -23 43 -49 31 -98 c 0
 26 -117 32 -137 54 -141 c 0
 72 -144 94 -130 109 -122 c 1
EndSplineSet
EndChar

StartChar: tilde
Encoding: 732 732 130
Width: 498
VWidth: 0
Flags: HMW
LayerCount: 2
Fore
SplineSet
242 633 m 1
 271 673 314 719 368 716 c 0
 409 714 433 666 475 669 c 0
 504 671 528 699 548 717 c 1
 591 660 l 1
 560 625 512 581 460 585 c 0
 420 588 395 637 354 633 c 0
 324 630 307 606 291 584 c 1
 242 633 l 1
EndSplineSet
EndChar

StartChar: ring
Encoding: 730 730 131
Width: 279
VWidth: 0
Flags: HMW
LayerCount: 2
Fore
SplineSet
245 781 m 0
 261 836 325 885 383 884 c 0
 441 883 474 832 458 777 c 0
 442 722 378 673 320 674 c 0
 262 675 229 727 245 781 c 0
305 778 m 0
 299 759 308 732 330 729 c 0
 354 725 392 759 398 780 c 0
 404 799 395 826 373 829 c 0
 349 833 311 799 305 778 c 0
EndSplineSet
EndChar

StartChar: dotaccent
Encoding: 729 729 132
Width: 282
VWidth: 0
Flags: HMW
LayerCount: 2
Fore
SplineSet
294 802 m 0
 298 838 332 866 368 866 c 0
 404 866 433 836 429 800 c 0
 425 764 391 735 355 735 c 0
 319 735 290 766 294 802 c 0
EndSplineSet
EndChar

StartChar: uni2010
Encoding: 8208 8208 133
Width: 201
VWidth: 0
Flags: HMW
LayerCount: 2
Fore
SplineSet
14 189 m 1
 47 286 l 1
 245 286 l 1
 211 189 l 1
 14 189 l 1
EndSplineSet
EndChar

StartChar: endash
Encoding: 8211 8211 134
Width: 712
VWidth: 0
Flags: HMW
LayerCount: 2
Fore
SplineSet
76 189 m 1
 108 286 l 1
 691 286 l 1
 658 189 l 1
 76 189 l 1
EndSplineSet
EndChar

StartChar: figuredash
Encoding: 8210 8210 135
Width: 569
VWidth: 0
Flags: HMW
LayerCount: 2
Fore
SplineSet
76 189 m 1
 108 286 l 1
 547 286 l 1
 513 189 l 1
 76 189 l 1
EndSplineSet
EndChar

StartChar: emdash
Encoding: 8212 8212 136
Width: 855
VWidth: 0
Flags: HMW
LayerCount: 2
Fore
SplineSet
76 189 m 1
 108 286 l 1
 836 286 l 1
 803 189 l 1
 76 189 l 1
EndSplineSet
EndChar

StartChar: minus
Encoding: 8722 8722 137
Width: 555
VWidth: 0
Flags: HMW
LayerCount: 2
Fore
SplineSet
71 189 m 1
 103 286 l 1
 542 286 l 1
 509 189 l 1
 71 189 l 1
EndSplineSet
EndChar

StartChar: quoteright
Encoding: 8217 8217 138
Width: 279
VWidth: 0
Flags: HMW
LayerCount: 2
Fore
SplineSet
282 699 m 1
 405 699 l 1
 225 462 l 1
 147 462 l 1
 282 699 l 1
EndSplineSet
EndChar

StartChar: quoteleft
Encoding: 8216 8216 139
Width: 279
VWidth: 0
Flags: HMW
LayerCount: 2
Fore
SplineSet
285 461 m 1
 162 461 l 1
 342 698 l 1
 420 698 l 1
 285 461 l 1
EndSplineSet
EndChar

StartChar: quotesinglbase
Encoding: 8218 8218 140
Width: 279
VWidth: 0
Flags: HMW
LayerCount: 2
Fore
SplineSet
80 79 m 1
 203 79 l 1
 23 -158 l 1
 -55 -158 l 1
 80 79 l 1
EndSplineSet
EndChar

StartChar: quotedblleft
Encoding: 8220 8220 141
Width: 478
VWidth: 0
Flags: HMW
LayerCount: 2
Fore
SplineSet
285 461 m 1
 162 461 l 1
 342 698 l 1
 420 698 l 1
 285 461 l 1
485 461 m 1
 362 461 l 1
 542 698 l 1
 620 698 l 1
 485 461 l 1
EndSplineSet
EndChar

StartChar: quotedblright
Encoding: 8221 8221 142
Width: 478
VWidth: 0
Flags: HMW
LayerCount: 2
Fore
SplineSet
282 699 m 1
 405 699 l 1
 225 462 l 1
 147 462 l 1
 282 699 l 1
482 699 m 1
 606 699 l 1
 425 462 l 1
 347 462 l 1
 482 699 l 1
EndSplineSet
EndChar

StartChar: perthousand
Encoding: 8240 8240 143
Width: 1155
VWidth: 0
Flags: HMW
LayerCount: 2
Fore
SplineSet
804 157 m 0
 831 246 922 325 1018 325 c 0
 1112 325 1154 239 1129 155 c 0
 1102 66 1011 -13 915 -13 c 0
 821 -13 779 73 804 157 c 0
893 156 m 0
 881 122 889 77 932 74 c 0
 976 71 1025 118 1039 157 c 0
 1051 191 1043 236 1000 239 c 0
 956 242 907 195 893 156 c 0
158 545 m 0
 185 634 275 713 371 713 c 0
 465 713 508 627 483 543 c 0
 456 454 365 375 269 375 c 0
 175 375 133 461 158 545 c 0
246 543 m 0
 234 509 243 464 286 461 c 0
 330 458 379 505 393 544 c 0
 405 578 397 623 354 626 c 0
 310 629 260 582 246 543 c 0
418 157 m 0
 445 246 535 325 631 325 c 0
 725 325 768 239 743 155 c 0
 716 66 626 -13 530 -13 c 0
 436 -13 393 73 418 157 c 0
507 156 m 0
 495 122 504 77 547 74 c 0
 591 71 640 118 654 157 c 0
 666 191 657 236 614 239 c 0
 570 242 521 195 507 156 c 0
742 699 m 1
 855 699 l 1
 158 0 l 1
 49 0 l 1
 742 699 l 1
EndSplineSet
EndChar

StartChar: guilsinglleft
Encoding: 8249 8249 144
Width: 329
VWidth: 0
Flags: HMW
LayerCount: 2
Fore
SplineSet
163 256 m 1
 239 61 l 1
 160 12 l 1
 66 262 l 1
 318 497 l 1
 370 440 l 1
 163 256 l 1
EndSplineSet
EndChar

StartChar: guilsinglright
Encoding: 8250 8250 145
Width: 329
VWidth: 0
Flags: HMW
LayerCount: 2
Fore
SplineSet
232 254 m 1
 156 449 l 1
 234 498 l 1
 329 248 l 1
 77 13 l 1
 25 70 l 1
 232 254 l 1
EndSplineSet
EndChar

StartChar: uni2031
Encoding: 8241 8241 146
Width: 1541
VWidth: 0
Flags: HMW
LayerCount: 2
Fore
SplineSet
1190 157 m 0
 1217 246 1307 325 1403 325 c 0
 1497 325 1540 239 1515 155 c 0
 1488 66 1397 -13 1301 -13 c 0
 1207 -13 1165 73 1190 157 c 0
1279 156 m 0
 1267 122 1275 77 1318 74 c 0
 1362 71 1412 118 1426 157 c 0
 1438 191 1429 236 1386 239 c 0
 1342 242 1293 195 1279 156 c 0
804 157 m 0
 831 246 922 325 1018 325 c 0
 1112 325 1154 239 1129 155 c 0
 1102 66 1011 -13 915 -13 c 0
 821 -13 779 73 804 157 c 0
893 156 m 0
 881 122 889 77 932 74 c 0
 976 71 1025 118 1039 157 c 0
 1051 191 1043 236 1000 239 c 0
 956 242 907 195 893 156 c 0
158 545 m 0
 185 634 275 713 371 713 c 0
 465 713 508 627 483 543 c 0
 456 454 365 375 269 375 c 0
 175 375 133 461 158 545 c 0
246 543 m 0
 234 509 243 464 286 461 c 0
 330 458 379 505 393 544 c 0
 405 578 397 623 354 626 c 0
 310 629 260 582 246 543 c 0
418 157 m 0
 445 246 535 325 631 325 c 0
 725 325 768 239 743 155 c 0
 716 66 626 -13 530 -13 c 0
 436 -13 393 73 418 157 c 0
507 156 m 0
 495 122 504 77 547 74 c 0
 591 71 640 118 654 157 c 0
 666 191 657 236 614 239 c 0
 570 242 521 195 507 156 c 0
742 699 m 1
 855 699 l 1
 158 0 l 1
 49 0 l 1
 742 699 l 1
EndSplineSet
EndChar

StartChar: uni203D
Encoding: 8253 8253 147
Width: 550
VWidth: 0
Flags: HMW
LayerCount: 2
Fore
SplineSet
511 493 m 0
 537 561 501 615 428 616 c 0
 361 617 306 577 260 534 c 1
 197 595 l 1
 268 662 357 715 459 713 c 0
 577 711 651 613 615 499 c 0
 574 368 440 298 311 285 c 1
 292 347 l 1
 382 358 477 402 511 493 c 0
311 508 m 1
 428 507 l 1
 294 183 l 1
 222 183 l 1
 311 508 l 1
146 51 m 0
 154 84 200 117 233 115 c 0
 268 113 290 81 282 47 c 0
 274 14 228 -20 195 -18 c 0
 160 -16 138 17 146 51 c 0
EndSplineSet
EndChar

StartChar: Euro
Encoding: 8364 8364 148
Width: 573
VWidth: 0
Flags: HMW
LayerCount: 2
Fore
SplineSet
108 398 m 1
 130 458 l 1
 601 458 l 1
 580 398 l 1
 108 398 l 1
61 273 m 1
 82 334 l 1
 536 334 l 1
 515 273 l 1
 61 273 l 1
248 350 m 0
 215 259 196 94 334 91 c 0
 395 89 451 120 502 150 c 1
 464 27 l 1
 416 5 366 -13 313 -13 c 0
 115 -12 93 201 141 350 c 0
 196 522 349 714 547 713 c 0
 596 713 640 697 682 673 c 1
 643 548 l 1
 611 585 577 610 526 610 c 0
 388 610 289 465 248 350 c 0
EndSplineSet
EndChar

StartChar: fraction
Encoding: 8260 8260 149
Width: 672
VWidth: 0
Flags: HMW
LayerCount: 2
Fore
SplineSet
725 698 m 1
 816 697 l 1
 89 0 l 1
 -1 0 l 1
 725 698 l 1
EndSplineSet
EndChar

StartChar: onequarter
Encoding: 188 188 150
Width: 734
VWidth: 0
Flags: HMW
LayerCount: 2
Fore
SplineSet
766 698 m 1
 847 697 l 1
 121 0 l 1
 39 0 l 1
 766 698 l 1
174 596 m 1
 196 663 l 1
 372 702 l 1
 225 275 l 1
 155 275 l 1
 272 620 l 1
 174 596 l 1
348 82 m 1
 419 135 l 1
 591 137 l 1
 603 142 l 1
 699 141 l 1
 678 81 l 1
 348 82 l 1
429 94 m 1
 345 80 l 1
 686 418 l 1
 732 419 l 1
 589 0 l 1
 516 0 l 1
 551 102 l 1
 558 108 l 1
 619 280 l 1
 429 94 l 1
EndSplineSet
EndChar

StartChar: onehalf
Encoding: 189 189 151
Width: 798
VWidth: 0
Flags: HMW
LayerCount: 2
Fore
SplineSet
766 698 m 1
 847 697 l 1
 121 0 l 1
 39 0 l 1
 766 698 l 1
174 596 m 1
 196 663 l 1
 372 702 l 1
 225 275 l 1
 155 275 l 1
 272 620 l 1
 174 596 l 1
412 4 m 1
 662 207 l 2
 692 231 732 261 744 300 c 0
 753 330 744 360 709 364 c 0
 656 370 621 314 599 275 c 1
 528 276 l 1
 563 354 625 431 719 429 c 0
 792 428 836 368 815 298 c 0
 800 251 762 215 725 185 c 2
 575 69 l 1
 740 67 l 1
 718 3 l 1
 412 4 l 1
EndSplineSet
EndChar

StartChar: threequarters
Encoding: 190 190 152
Width: 793
VWidth: 0
Flags: HMW
LayerCount: 2
Fore
SplineSet
827 698 m 1
 909 697 l 1
 182 0 l 1
 101 0 l 1
 827 698 l 1
255 487 m 1
 267 523 l 1
 307 532 354 546 369 590 c 0
 378 616 368 644 339 646 c 0
 303 649 275 615 256 590 c 1
 189 591 l 1
 221 652 272 707 347 706 c 0
 411 705 458 655 438 592 c 0
 414 514 326 494 255 487 c 1
209 273 m 0
 129 273 99 328 107 400 c 1
 174 400 l 1
 174 366 177 337 218 335 c 0
 256 333 302 367 313 402 c 0
 329 452 287 463 248 471 c 1
 261 510 l 1
 331 503 406 476 381 391 c 0
 360 320 281 273 209 273 c 0
408 82 m 1
 478 135 l 1
 651 137 l 1
 663 142 l 1
 759 141 l 1
 738 81 l 1
 408 82 l 1
488 94 m 1
 404 80 l 1
 745 418 l 1
 792 419 l 1
 648 0 l 1
 576 0 l 1
 611 102 l 1
 617 108 l 1
 678 280 l 1
 488 94 l 1
EndSplineSet
EndChar

StartChar: uni2150
Encoding: 8528 8528 153
Width: 829
VWidth: 0
Flags: HMW
LayerCount: 2
Fore
SplineSet
728 698 m 1
 819 697 l 1
 92 0 l 1
 2 0 l 1
 728 698 l 1
174 596 m 1
 196 663 l 1
 372 702 l 1
 225 275 l 1
 155 275 l 1
 272 620 l 1
 174 596 l 1
575 354 m 1
 597 419 l 1
 900 419 l 1
 565 0 l 1
 487 0 l 1
 767 352 l 1
 575 354 l 1
EndSplineSet
EndChar

StartChar: uni2151
Encoding: 8529 8529 154
Width: 774
VWidth: 0
Flags: HMW
LayerCount: 2
Fore
SplineSet
725 698 m 1
 816 697 l 1
 90 0 l 1
 -0 0 l 1
 725 698 l 1
174 596 m 1
 196 663 l 1
 372 702 l 1
 225 275 l 1
 155 275 l 1
 272 620 l 1
 174 596 l 1
732 281 m 0
 745 319 734 364 688 366 c 0
 640 369 588 322 573 280 c 0
 560 242 572 196 618 193 c 0
 666 190 717 239 732 281 c 0
550 4 m 1
 456 5 l 1
 637 165 l 1
 652 164 l 1
 631 154 609 143 585 144 c 0
 512 146 488 220 506 281 c 0
 530 362 613 429 697 429 c 0
 781 429 825 356 800 279 c 0
 788 241 763 209 736 181 c 1
 550 4 l 1
EndSplineSet
EndChar

StartChar: uni2152
Encoding: 8530 8530 155
Width: 1065
VWidth: 0
Flags: HMW
LayerCount: 2
Fore
SplineSet
725 698 m 1
 816 697 l 1
 90 0 l 1
 -0 0 l 1
 725 698 l 1
174 596 m 1
 196 663 l 1
 372 702 l 1
 225 275 l 1
 155 275 l 1
 272 620 l 1
 174 596 l 1
538 323 m 1
 560 390 l 1
 736 429 l 1
 588 2 l 1
 519 2 l 1
 636 347 l 1
 538 323 l 1
813 210 m 0
 798 168 769 62 842 58 c 0
 916 54 965 153 987 210 c 0
 1002 252 1032 358 959 362 c 0
 885 366 835 267 813 210 c 0
744 210 m 0
 774 305 855 427 967 426 c 0
 1083 425 1081 293 1055 210 c 0
 1025 115 945 -7 832 -6 c 0
 716 -5 718 128 744 210 c 0
EndSplineSet
EndChar

StartChar: onethird
Encoding: 8531 8531 156
Width: 754
VWidth: 0
Flags: HMW
LayerCount: 2
Fore
SplineSet
725 698 m 1
 816 697 l 1
 90 0 l 1
 -1 0 l 1
 725 698 l 1
174 596 m 1
 196 663 l 1
 372 702 l 1
 225 275 l 1
 155 275 l 1
 272 620 l 1
 174 596 l 1
590 207 m 1
 602 243 l 1
 642 252 690 266 705 310 c 0
 714 336 704 364 675 366 c 0
 639 369 611 335 592 310 c 1
 525 311 l 1
 557 372 608 427 683 426 c 0
 747 425 794 375 774 312 c 0
 750 234 661 214 590 207 c 1
544 -7 m 0
 464 -7 435 48 443 120 c 1
 510 120 l 1
 510 86 513 57 554 55 c 0
 592 53 638 87 649 122 c 0
 665 172 622 183 583 191 c 1
 597 230 l 1
 667 223 741 196 716 111 c 0
 695 40 616 -7 544 -7 c 0
EndSplineSet
EndChar

StartChar: twothirds
Encoding: 8532 8532 157
Width: 876
VWidth: 0
Flags: HMW
LayerCount: 2
Fore
SplineSet
853 698 m 1
 943 697 l 1
 216 0 l 1
 125 0 l 1
 853 698 l 1
67 284 m 1
 317 487 l 2
 347 511 388 541 400 580 c 0
 409 610 399 640 364 644 c 0
 311 650 276 594 254 555 c 1
 183 556 l 1
 218 634 280 711 374 709 c 0
 447 708 491 648 470 578 c 0
 455 531 417 495 380 465 c 2
 230 349 l 1
 396 347 l 1
 373 283 l 1
 67 284 l 1
712 207 m 1
 725 243 l 1
 765 252 812 266 827 310 c 0
 836 336 825 364 796 366 c 0
 760 369 733 335 714 310 c 1
 646 311 l 1
 678 372 730 427 805 426 c 0
 869 425 915 375 895 312 c 0
 871 234 783 214 712 207 c 1
666 -7 m 0
 586 -7 556 48 564 120 c 1
 631 120 l 1
 631 86 635 57 676 55 c 0
 714 53 759 87 770 122 c 0
 786 172 744 183 705 191 c 1
 718 230 l 1
 788 223 864 196 839 111 c 0
 818 40 738 -7 666 -7 c 0
EndSplineSet
EndChar

StartChar: uni2155
Encoding: 8533 8533 158
Width: 744
VWidth: 0
Flags: HMW
LayerCount: 2
Fore
SplineSet
725 698 m 1
 816 697 l 1
 90 0 l 1
 -0 0 l 1
 725 698 l 1
174 596 m 1
 196 663 l 1
 372 702 l 1
 225 275 l 1
 155 275 l 1
 272 620 l 1
 174 596 l 1
713 133 m 0
 689 52 606 -8 522 -8 c 0
 461 -8 421 22 392 68 c 1
 445 117 l 1
 462 86 482 59 523 58 c 0
 570 57 627 94 641 140 c 0
 654 181 633 214 590 219 c 0
 548 223 506 203 469 189 c 1
 522 230 l 1
 553 254 594 275 634 274 c 0
 710 272 733 197 713 133 c 0
636 355 m 1
 561 236 l 1
 458 179 l 1
 598 417 l 1
 806 417 l 1
 785 356 l 1
 636 355 l 1
EndSplineSet
EndChar

StartChar: uni2156
Encoding: 8534 8534 159
Width: 869
VWidth: 0
Flags: HMW
LayerCount: 2
Fore
SplineSet
853 698 m 1
 943 697 l 1
 216 0 l 1
 125 0 l 1
 853 698 l 1
67 284 m 1
 317 487 l 2
 347 511 388 541 400 580 c 0
 409 610 399 640 364 644 c 0
 311 650 276 594 254 555 c 1
 183 556 l 1
 218 634 280 711 374 709 c 0
 447 708 491 648 470 578 c 0
 455 531 417 495 380 465 c 2
 230 349 l 1
 396 347 l 1
 373 283 l 1
 67 284 l 1
835 133 m 0
 811 52 727 -8 643 -8 c 0
 582 -8 543 22 514 68 c 1
 567 117 l 1
 584 86 604 59 645 58 c 0
 692 57 748 94 762 140 c 0
 775 181 756 214 713 219 c 0
 671 223 628 203 591 189 c 1
 643 230 l 1
 674 254 715 275 755 274 c 0
 831 272 855 197 835 133 c 0
757 355 m 1
 683 236 l 1
 579 179 l 1
 720 417 l 1
 928 417 l 1
 906 356 l 1
 757 355 l 1
EndSplineSet
EndChar

StartChar: uni2157
Encoding: 8535 8535 160
Width: 818
VWidth: 0
Flags: HMW
LayerCount: 2
Fore
SplineSet
803 698 m 1
 893 697 l 1
 168 0 l 1
 77 0 l 1
 803 698 l 1
254 487 m 1
 265 523 l 1
 305 532 353 546 368 590 c 0
 377 616 367 644 338 646 c 0
 302 649 274 615 255 590 c 1
 188 591 l 1
 220 652 271 707 346 706 c 0
 410 705 456 655 436 592 c 0
 412 514 325 494 254 487 c 1
208 273 m 0
 128 273 98 328 106 400 c 1
 173 400 l 1
 173 366 176 337 217 335 c 0
 255 333 301 367 312 402 c 0
 328 452 286 463 247 471 c 1
 260 510 l 1
 330 503 405 476 380 391 c 0
 359 320 280 273 208 273 c 0
783 133 m 0
 759 52 676 -8 592 -8 c 0
 531 -8 491 22 462 68 c 1
 515 117 l 1
 532 86 552 59 593 58 c 0
 640 57 697 94 711 140 c 0
 724 181 704 214 661 219 c 0
 619 223 576 203 539 189 c 1
 592 230 l 1
 623 254 664 275 704 274 c 0
 780 272 803 197 783 133 c 0
705 355 m 1
 631 236 l 1
 528 179 l 1
 668 417 l 1
 876 417 l 1
 854 356 l 1
 705 355 l 1
EndSplineSet
EndChar

StartChar: uni2158
Encoding: 8536 8536 161
Width: 870
VWidth: 0
Flags: HMW
LayerCount: 2
Fore
SplineSet
845 698 m 1
 936 697 l 1
 210 0 l 1
 119 0 l 1
 845 698 l 1
91 362 m 1
 162 415 l 1
 334 417 l 1
 346 422 l 1
 442 421 l 1
 421 361 l 1
 91 362 l 1
172 374 m 1
 87 360 l 1
 429 698 l 1
 475 699 l 1
 332 281 l 1
 260 281 l 1
 295 382 l 1
 300 388 l 1
 362 560 l 1
 172 374 l 1
837 133 m 0
 813 52 730 -8 646 -8 c 0
 585 -8 545 22 516 68 c 1
 569 117 l 1
 586 86 606 59 647 58 c 0
 694 57 751 94 765 140 c 0
 778 181 757 214 714 219 c 0
 672 223 630 203 593 189 c 1
 646 230 l 1
 677 254 718 275 758 274 c 0
 834 272 857 197 837 133 c 0
759 355 m 1
 685 236 l 1
 582 178 l 1
 722 417 l 1
 930 417 l 1
 908 356 l 1
 759 355 l 1
EndSplineSet
EndChar

StartChar: uni2159
Encoding: 8537 8537 162
Width: 741
VWidth: 0
Flags: HMW
LayerCount: 2
Fore
SplineSet
733 698 m 1
 823 697 l 1
 97 0 l 1
 6 0 l 1
 733 698 l 1
174 596 m 1
 196 663 l 1
 372 702 l 1
 225 275 l 1
 155 275 l 1
 272 620 l 1
 174 596 l 1
487 139 m 0
 474 101 485 56 531 54 c 0
 579 51 631 98 646 140 c 0
 659 178 648 224 602 227 c 0
 554 230 502 181 487 139 c 0
670 416 m 1
 764 415 l 1
 583 255 l 1
 569 256 l 1
 590 265 610 277 634 276 c 0
 707 275 732 200 714 139 c 0
 691 58 607 -9 523 -9 c 0
 439 -9 394 64 419 141 c 0
 431 179 457 211 484 239 c 1
 670 416 l 1
EndSplineSet
EndChar

StartChar: uni215A
Encoding: 8538 8538 163
Width: 833
VWidth: 0
Flags: HMW
LayerCount: 2
Fore
SplineSet
831 698 m 1
 922 697 l 1
 196 0 l 1
 105 0 l 1
 831 698 l 1
411 413 m 0
 387 332 304 272 220 272 c 0
 159 272 120 302 91 348 c 1
 144 397 l 1
 161 366 181 339 222 338 c 0
 269 337 325 374 339 420 c 0
 352 461 333 494 290 499 c 0
 248 503 205 483 168 469 c 1
 220 510 l 1
 251 534 292 555 332 554 c 0
 408 552 431 477 411 413 c 0
334 635 m 1
 260 516 l 1
 156 459 l 1
 297 697 l 1
 505 697 l 1
 483 636 l 1
 334 635 l 1
578 139 m 0
 565 101 577 56 623 54 c 0
 671 51 722 98 737 140 c 0
 750 178 739 224 693 227 c 0
 645 230 593 181 578 139 c 0
761 416 m 1
 855 415 l 1
 675 255 l 1
 660 256 l 1
 681 265 701 277 725 276 c 0
 798 275 822 200 804 139 c 0
 781 58 698 -9 614 -9 c 0
 530 -9 486 64 511 141 c 0
 523 179 548 211 575 239 c 1
 761 416 l 1
EndSplineSet
EndChar

StartChar: oneeighth
Encoding: 8539 8539 164
Width: 764
VWidth: 0
Flags: HMW
LayerCount: 2
Fore
SplineSet
733 698 m 1
 823 697 l 1
 97 0 l 1
 6 0 l 1
 733 698 l 1
174 596 m 1
 196 663 l 1
 372 702 l 1
 225 275 l 1
 155 275 l 1
 272 620 l 1
 174 596 l 1
537 320 m 0
 555 381 625 428 688 427 c 0
 749 426 797 380 779 318 c 0
 761 255 690 210 626 211 c 0
 563 212 519 257 537 320 c 0
600 310 m 0
 592 285 600 256 630 253 c 0
 661 250 701 285 710 313 c 0
 718 339 710 367 680 370 c 0
 648 373 610 339 600 310 c 0
452 115 m 0
 472 185 551 236 622 235 c 0
 691 235 744 183 723 113 c 0
 703 44 622 -8 552 -7 c 0
 484 -6 432 47 452 115 c 0
523 123 m 0
 511 92 525 55 562 53 c 0
 601 51 646 89 658 124 c 0
 668 154 656 192 620 194 c 0
 582 196 535 156 523 123 c 0
EndSplineSet
EndChar

StartChar: threeeighths
Encoding: 8540 8540 165
Width: 836
VWidth: 0
Flags: HMW
LayerCount: 2
Fore
SplineSet
805 698 m 1
 896 697 l 1
 170 0 l 1
 79 0 l 1
 805 698 l 1
254 487 m 1
 265 523 l 1
 305 532 353 546 368 590 c 0
 377 616 367 644 338 646 c 0
 302 649 274 615 255 590 c 1
 188 591 l 1
 220 652 271 707 346 706 c 0
 410 705 456 655 436 592 c 0
 412 514 325 494 254 487 c 1
208 273 m 0
 128 273 98 328 106 400 c 1
 173 400 l 1
 173 366 176 337 217 335 c 0
 255 333 301 367 312 402 c 0
 328 452 286 463 247 471 c 1
 260 510 l 1
 330 503 405 476 380 391 c 0
 359 320 280 273 208 273 c 0
609 320 m 0
 627 381 698 428 761 427 c 0
 822 426 869 380 851 318 c 0
 833 255 762 210 698 211 c 0
 635 212 591 257 609 320 c 0
672 310 m 0
 664 285 673 256 703 253 c 0
 734 250 774 285 783 313 c 0
 791 339 782 367 752 370 c 0
 720 373 682 339 672 310 c 0
525 115 m 0
 545 185 624 236 695 235 c 0
 764 235 816 183 795 113 c 0
 775 44 695 -8 625 -7 c 0
 557 -6 505 47 525 115 c 0
596 123 m 0
 584 92 597 55 634 53 c 0
 673 51 719 89 731 124 c 0
 741 154 729 192 693 194 c 0
 655 196 608 156 596 123 c 0
EndSplineSet
EndChar

StartChar: fiveeighths
Encoding: 8541 8541 166
Width: 861
VWidth: 0
Flags: HMW
LayerCount: 2
Fore
SplineSet
831 698 m 1
 922 697 l 1
 196 0 l 1
 105 0 l 1
 831 698 l 1
409 413 m 0
 385 332 302 272 218 272 c 0
 157 272 118 302 89 348 c 1
 142 397 l 1
 159 366 178 339 219 338 c 0
 266 337 323 374 337 420 c 0
 350 461 330 494 287 499 c 0
 245 503 203 483 166 469 c 1
 218 510 l 1
 249 534 290 555 330 554 c 0
 406 552 429 477 409 413 c 0
332 635 m 1
 257 516 l 1
 154 459 l 1
 294 697 l 1
 502 697 l 1
 481 636 l 1
 332 635 l 1
635 320 m 0
 653 381 724 428 787 427 c 0
 848 426 895 380 877 318 c 0
 859 255 789 210 725 211 c 0
 662 212 617 257 635 320 c 0
698 310 m 0
 690 285 698 256 728 253 c 0
 759 250 799 285 808 313 c 0
 816 339 808 367 778 370 c 0
 746 373 708 339 698 310 c 0
551 115 m 0
 571 185 650 236 721 235 c 0
 790 235 842 183 821 113 c 0
 801 44 721 -8 651 -7 c 0
 583 -6 531 47 551 115 c 0
622 123 m 0
 610 92 623 55 660 53 c 0
 699 51 744 89 756 124 c 0
 766 154 754 192 718 194 c 0
 680 196 634 156 622 123 c 0
EndSplineSet
EndChar

StartChar: seveneighths
Encoding: 8542 8542 167
Width: 758
VWidth: 0
Flags: HMW
LayerCount: 2
Fore
SplineSet
725 698 m 1
 816 697 l 1
 89 0 l 1
 -1 0 l 1
 725 698 l 1
186 634 m 1
 208 699 l 1
 511 699 l 1
 176 282 l 1
 98 282 l 1
 379 632 l 1
 186 634 l 1
532 320 m 0
 550 381 621 428 684 427 c 0
 745 426 791 380 773 318 c 0
 755 255 685 210 621 211 c 0
 558 212 514 257 532 320 c 0
594 310 m 0
 586 285 594 256 624 253 c 0
 655 250 696 285 705 313 c 0
 713 339 705 367 675 370 c 0
 643 373 604 339 594 310 c 0
447 115 m 0
 467 185 547 236 618 235 c 0
 687 235 738 183 717 113 c 0
 697 44 617 -8 547 -7 c 0
 479 -6 427 47 447 115 c 0
518 123 m 0
 506 92 519 55 556 53 c 0
 595 51 641 89 653 124 c 0
 663 154 651 192 615 194 c 0
 577 196 530 156 518 123 c 0
EndSplineSet
EndChar

StartChar: uni2074
Encoding: 8308 8308 168
Width: 378
VWidth: 0
Flags: HMW
LayerCount: 2
Fore
SplineSet
88 362 m 1
 159 415 l 1
 331 417 l 1
 343 422 l 1
 440 421 l 1
 419 361 l 1
 88 362 l 1
170 374 m 1
 85 360 l 1
 427 698 l 1
 472 699 l 1
 330 281 l 1
 258 281 l 1
 292 382 l 1
 298 388 l 1
 359 560 l 1
 170 374 l 1
EndSplineSet
EndChar

StartChar: uni2075
Encoding: 8309 8309 169
Width: 346
VWidth: 0
Flags: HMW
LayerCount: 2
Fore
SplineSet
409 413 m 0
 385 332 302 272 218 272 c 0
 157 272 118 302 89 348 c 1
 142 397 l 1
 159 366 178 339 219 338 c 0
 266 337 323 374 337 420 c 0
 350 461 330 494 287 499 c 0
 245 503 203 483 166 469 c 1
 218 510 l 1
 249 534 290 555 330 554 c 0
 406 552 429 477 409 413 c 0
332 635 m 1
 257 516 l 1
 154 459 l 1
 294 697 l 1
 502 697 l 1
 481 636 l 1
 332 635 l 1
EndSplineSet
EndChar

StartChar: uni2076
Encoding: 8310 8310 170
Width: 339
VWidth: 0
Flags: HMW
LayerCount: 2
Fore
SplineSet
183 419 m 0
 170 381 182 336 228 334 c 0
 276 331 328 378 343 420 c 0
 356 458 345 504 299 507 c 0
 251 510 198 461 183 419 c 0
366 696 m 1
 460 695 l 1
 279 535 l 1
 264 536 l 1
 285 545 306 557 330 556 c 0
 403 555 428 480 410 419 c 0
 387 338 302 271 218 271 c 0
 134 271 91 344 116 421 c 0
 128 459 153 491 180 519 c 1
 366 696 l 1
EndSplineSet
EndChar

StartChar: uni2077
Encoding: 8311 8311 171
Width: 342
VWidth: 0
Flags: HMW
LayerCount: 2
Fore
SplineSet
186 634 m 1
 208 699 l 1
 511 699 l 1
 176 282 l 1
 98 282 l 1
 379 632 l 1
 186 634 l 1
EndSplineSet
EndChar

StartChar: uni2078
Encoding: 8312 8312 172
Width: 317
VWidth: 0
Flags: HMW
LayerCount: 2
Fore
SplineSet
188 600 m 0
 206 661 277 708 340 707 c 0
 401 706 447 660 429 598 c 0
 411 535 342 490 278 491 c 0
 215 492 170 537 188 600 c 0
250 590 m 0
 242 565 251 536 281 533 c 0
 312 530 353 565 362 593 c 0
 370 619 361 647 331 650 c 0
 299 653 260 619 250 590 c 0
104 395 m 0
 124 465 203 516 274 515 c 0
 343 515 395 463 374 393 c 0
 354 324 274 272 204 273 c 0
 136 274 84 327 104 395 c 0
175 403 m 0
 163 372 176 335 213 333 c 0
 252 331 297 369 309 404 c 0
 319 434 307 472 271 474 c 0
 233 476 187 436 175 403 c 0
EndSplineSet
EndChar

StartChar: uni2079
Encoding: 8313 8313 173
Width: 337
VWidth: 0
Flags: HMW
LayerCount: 2
Fore
SplineSet
394 561 m 0
 407 599 396 644 350 646 c 0
 302 649 250 602 235 560 c 0
 222 522 234 476 280 473 c 0
 328 470 379 519 394 561 c 0
211 284 m 1
 118 285 l 1
 298 445 l 1
 313 444 l 1
 292 434 271 423 247 424 c 0
 174 426 150 500 168 561 c 0
 192 642 274 709 358 709 c 0
 442 709 487 636 462 559 c 0
 450 521 424 489 397 461 c 1
 211 284 l 1
EndSplineSet
EndChar

StartChar: uni2070
Encoding: 8304 8304 174
Width: 356
VWidth: 0
Flags: HMW
LayerCount: 2
Fore
SplineSet
204 490 m 0
 189 448 160 342 233 338 c 0
 307 334 357 433 379 490 c 0
 394 532 423 638 350 642 c 0
 276 646 226 547 204 490 c 0
135 490 m 0
 165 585 246 707 358 706 c 0
 474 705 474 573 448 490 c 0
 418 395 338 273 225 274 c 0
 109 275 109 408 135 490 c 0
EndSplineSet
EndChar

StartChar: uni2080
Encoding: 8320 8320 175
Width: 356
VWidth: 0
Flags: HMW
LayerCount: 2
Fore
SplineSet
108 210 m 0
 93 168 64 62 137 58 c 0
 211 54 261 153 283 210 c 0
 298 252 328 358 255 362 c 0
 181 366 130 267 108 210 c 0
40 210 m 0
 70 305 151 427 263 426 c 0
 379 425 378 293 352 210 c 0
 322 115 242 -7 129 -6 c 0
 13 -5 14 128 40 210 c 0
EndSplineSet
EndChar

StartChar: uni2084
Encoding: 8324 8324 176
Width: 379
VWidth: 0
Flags: HMW
LayerCount: 2
Fore
SplineSet
-8 82 m 1
 64 135 l 1
 236 137 l 1
 248 142 l 1
 344 141 l 1
 323 81 l 1
 -8 82 l 1
73 94 m 1
 -10 80 l 1
 331 418 l 1
 377 419 l 1
 233 0 l 1
 161 0 l 1
 196 102 l 1
 202 108 l 1
 264 280 l 1
 73 94 l 1
EndSplineSet
EndChar

StartChar: uni2085
Encoding: 8325 8325 177
Width: 349
VWidth: 0
Flags: HMW
LayerCount: 2
Fore
SplineSet
315 133 m 0
 291 52 208 -8 124 -8 c 0
 63 -8 23 22 -6 68 c 1
 47 117 l 1
 64 86 83 59 124 58 c 0
 171 57 229 94 243 140 c 0
 256 181 235 214 192 219 c 0
 150 223 108 203 71 189 c 1
 124 230 l 1
 155 254 196 275 236 274 c 0
 312 272 335 197 315 133 c 0
238 355 m 1
 162 236 l 1
 59 179 l 1
 200 417 l 1
 407 417 l 1
 386 356 l 1
 238 355 l 1
EndSplineSet
EndChar

StartChar: uni2086
Encoding: 8326 8326 178
Width: 343
VWidth: 0
Flags: HMW
LayerCount: 2
Fore
SplineSet
88 139 m 0
 75 101 87 56 133 54 c 0
 181 51 233 98 248 140 c 0
 261 178 249 224 203 227 c 0
 155 230 103 181 88 139 c 0
272 416 m 1
 366 415 l 1
 185 255 l 1
 170 256 l 1
 191 265 211 277 235 276 c 0
 308 275 333 200 315 139 c 0
 292 58 208 -9 124 -9 c 0
 40 -9 -4 64 21 141 c 0
 33 179 59 211 86 239 c 1
 272 416 l 1
EndSplineSet
EndChar

StartChar: uni2087
Encoding: 8327 8327 179
Width: 344
VWidth: 0
Flags: HMW
LayerCount: 2
Fore
SplineSet
92 354 m 1
 114 419 l 1
 417 419 l 1
 82 0 l 1
 4 0 l 1
 284 352 l 1
 92 354 l 1
EndSplineSet
EndChar

StartChar: uni2088
Encoding: 8328 8328 180
Width: 319
VWidth: 0
Flags: HMW
LayerCount: 2
Fore
SplineSet
94 320 m 0
 112 381 183 428 246 427 c 0
 307 426 354 380 336 318 c 0
 318 255 247 210 183 211 c 0
 120 212 76 257 94 320 c 0
157 310 m 0
 149 285 157 256 187 253 c 0
 218 250 258 285 267 313 c 0
 275 339 267 367 237 370 c 0
 205 373 167 339 157 310 c 0
10 115 m 0
 30 185 109 236 180 235 c 0
 249 235 301 183 280 113 c 0
 260 44 180 -8 110 -7 c 0
 42 -6 -10 47 10 115 c 0
81 123 m 0
 69 92 82 55 119 53 c 0
 158 51 204 89 216 124 c 0
 226 154 214 192 178 194 c 0
 140 196 93 156 81 123 c 0
EndSplineSet
EndChar

StartChar: uni2089
Encoding: 8329 8329 181
Width: 344
VWidth: 0
Flags: HMW
LayerCount: 2
Fore
SplineSet
289 281 m 0
 302 319 291 364 245 366 c 0
 197 369 145 322 130 280 c 0
 117 242 128 196 174 193 c 0
 222 190 274 239 289 281 c 0
107 4 m 1
 13 5 l 1
 194 165 l 1
 209 164 l 1
 188 154 166 143 142 144 c 0
 69 146 45 220 63 281 c 0
 87 362 171 429 255 429 c 0
 339 429 382 356 357 279 c 0
 345 241 320 209 293 181 c 1
 107 4 l 1
EndSplineSet
EndChar

StartChar: uni2081
Encoding: 8321 8321 182
Width: 312
VWidth: 0
Flags: HMW
LayerCount: 2
Fore
SplineSet
139 323 m 1
 162 390 l 1
 338 429 l 1
 190 2 l 1
 121 2 l 1
 237 347 l 1
 139 323 l 1
EndSplineSet
EndChar

StartChar: uni2082
Encoding: 8322 8322 183
Width: 349
VWidth: 0
Flags: HMW
LayerCount: 2
Fore
SplineSet
-32 4 m 1
 218 207 l 2
 248 231 289 261 301 300 c 0
 310 330 300 361 265 365 c 0
 212 371 176 314 154 275 c 1
 84 276 l 1
 119 354 181 431 275 429 c 0
 348 428 392 368 371 298 c 0
 356 251 318 215 281 185 c 2
 131 69 l 1
 296 67 l 1
 274 3 l 1
 -32 4 l 1
EndSplineSet
EndChar

StartChar: uni2083
Encoding: 8323 8323 184
Width: 315
VWidth: 0
Flags: HMW
LayerCount: 2
Fore
SplineSet
154 207 m 1
 167 243 l 1
 207 252 254 266 269 310 c 0
 278 336 268 364 239 366 c 0
 203 369 176 335 157 310 c 1
 89 311 l 1
 121 372 173 427 248 426 c 0
 312 425 358 375 338 312 c 0
 314 234 225 214 154 207 c 1
108 -7 m 0
 28 -7 -1 48 7 120 c 1
 74 120 l 1
 74 86 77 57 118 55 c 0
 156 53 202 87 213 122 c 0
 229 172 186 183 147 191 c 1
 161 230 l 1
 231 223 306 196 281 111 c 0
 260 40 180 -7 108 -7 c 0
EndSplineSet
EndChar

StartChar: Agrave
Encoding: 192 192 185
Width: 648
VWidth: 0
Flags: HMW
LayerCount: 2
Fore
SplineSet
159 182 m 1
 213 279 l 1
 522 280 l 1
 510 180 l 1
 159 182 l 1
447 502 m 1
 255 245 l 1
 245 219 l 1
 78 0 l 1
 -58 0 l 1
 522 742 l 1
 591 0 l 1
 468 0 l 1
 450 213 l 1
 459 242 l 1
 447 502 l 1
459 952 m 1
 558 994 l 1
 649 831 l 1
 584 799 l 1
 459 952 l 1
EndSplineSet
EndChar

StartChar: Aacute
Encoding: 193 193 186
Width: 648
VWidth: 0
Flags: HMW
LayerCount: 2
Fore
SplineSet
159 182 m 1
 213 279 l 1
 522 280 l 1
 510 180 l 1
 159 182 l 1
447 502 m 1
 255 245 l 1
 245 219 l 1
 78 0 l 1
 -58 0 l 1
 522 742 l 1
 591 0 l 1
 468 0 l 1
 450 213 l 1
 459 242 l 1
 447 502 l 1
729 943 m 1
 513 801 l 1
 459 838 l 1
 651 992 l 1
 729 943 l 1
EndSplineSet
EndChar

StartChar: Acircumflex
Encoding: 194 194 187
Width: 648
VWidth: 0
Flags: HMW
LayerCount: 2
Fore
SplineSet
159 182 m 1
 213 279 l 1
 522 280 l 1
 510 180 l 1
 159 182 l 1
447 502 m 1
 255 245 l 1
 245 219 l 1
 78 0 l 1
 -58 0 l 1
 522 742 l 1
 591 0 l 1
 468 0 l 1
 450 213 l 1
 459 242 l 1
 447 502 l 1
570 859 m 1
 441 770 l 1
 385 825 l 1
 594 961 l 1
 717 818 l 1
 634 769 l 1
 570 859 l 1
EndSplineSet
EndChar

StartChar: Atilde
Encoding: 195 195 188
Width: 648
VWidth: 0
Flags: HMW
LayerCount: 2
Fore
SplineSet
159 182 m 1
 213 279 l 1
 522 280 l 1
 510 180 l 1
 159 182 l 1
447 502 m 1
 255 245 l 1
 245 219 l 1
 78 0 l 1
 -58 0 l 1
 522 742 l 1
 591 0 l 1
 468 0 l 1
 450 213 l 1
 459 242 l 1
 447 502 l 1
385 835 m 1
 415 874 459 921 514 918 c 0
 555 916 578 869 619 872 c 0
 649 874 674 902 695 920 c 1
 734 861 l 1
 702 827 655 784 603 788 c 0
 563 791 540 839 499 835 c 0
 469 832 450 807 433 786 c 1
 385 835 l 1
EndSplineSet
EndChar

StartChar: Adieresis
Encoding: 196 196 189
Width: 648
VWidth: 0
Flags: HMW
LayerCount: 2
Fore
SplineSet
159 182 m 1
 213 279 l 1
 522 280 l 1
 510 180 l 1
 159 182 l 1
447 502 m 1
 255 245 l 1
 245 219 l 1
 78 0 l 1
 -58 0 l 1
 522 742 l 1
 591 0 l 1
 468 0 l 1
 450 213 l 1
 459 242 l 1
 447 502 l 1
602 844 m 0
 610 875 654 909 686 907 c 0
 720 905 741 873 733 840 c 0
 725 809 680 775 648 777 c 0
 614 779 594 811 602 844 c 0
381 847 m 0
 389 878 434 911 466 909 c 0
 500 907 521 875 513 842 c 0
 505 811 460 778 428 780 c 0
 394 782 373 814 381 847 c 0
EndSplineSet
EndChar

StartChar: Aring
Encoding: 197 197 190
Width: 648
VWidth: 0
Flags: HMW
LayerCount: 2
Fore
SplineSet
159 182 m 1
 213 279 l 1
 522 280 l 1
 510 180 l 1
 159 182 l 1
447 502 m 1
 255 245 l 1
 245 219 l 1
 78 0 l 1
 -58 0 l 1
 522 742 l 1
 591 0 l 1
 468 0 l 1
 450 213 l 1
 459 242 l 1
 447 502 l 1
437 801 m 0
 453 856 516 905 574 904 c 0
 632 903 666 852 650 797 c 0
 634 742 570 693 512 694 c 0
 454 695 421 747 437 801 c 0
496 798 m 0
 490 779 499 752 521 749 c 0
 545 745 583 779 589 800 c 0
 595 819 586 846 564 849 c 0
 540 853 502 819 496 798 c 0
EndSplineSet
EndChar

StartChar: AE
Encoding: 198 198 191
Width: 949
VWidth: 0
Flags: HMW
LayerCount: 2
Fore
SplineSet
232 187 m 1
 273 296 l 1
 559 296 l 1
 521 186 l 1
 232 187 l 1
600 700 m 1
 685 655 l 1
 93 0 l 1
 -49 0 l 1
 600 700 l 1
486 0 m 1
 521 104 l 1
 869 104 l 1
 833 0 l 1
 486 0 l 1
704 596 m 1
 600 700 l 1
 1072 700 l 1
 1037 596 l 1
 704 596 l 1
596 325 m 1
 631 426 l 1
 961 426 l 1
 925 324 l 1
 596 325 l 1
665 699 m 1
 788 700 l 1
 547 0 l 1
 428 0 l 1
 665 699 l 1
EndSplineSet
EndChar

StartChar: Ccedilla
Encoding: 199 199 192
Width: 650
VWidth: 0
Flags: HMW
LayerCount: 2
Fore
SplineSet
223 350 m 0
 182 238 219 107 355 104 c 0
 446 102 529 150 600 201 c 1
 558 61 l 1
 488 17 411 -13 327 -12 c 0
 126 -10 41 174 98 350 c 0
 160 543 350 711 559 712 c 0
 634 713 696 688 751 637 c 1
 707 497 l 1
 670 561 614 596 538 596 c 0
 398 595 269 477 223 350 c 0
309 53 m 1
 392 51 l 1
 279 -63 l 1
 284 -62 290 -62 295 -62 c 0
 338 -68 361 -105 349 -147 c 0
 333 -204 266 -243 210 -244 c 0
 170 -245 141 -226 111 -203 c 1
 160 -156 l 1
 176 -167 192 -179 213 -179 c 0
 233 -179 275 -162 280 -140 c 0
 285 -119 261 -108 245 -107 c 0
 221 -105 194 -115 171 -122 c 1
 309 53 l 1
EndSplineSet
EndChar

StartChar: Egrave
Encoding: 200 200 193
Width: 537
VWidth: 0
Flags: HMW
LayerCount: 2
Fore
SplineSet
87 0 m 1
 122 104 l 1
 459 104 l 1
 423 0 l 1
 87 0 l 1
291 597 m 1
 326 700 l 1
 662 700 l 1
 626 596 l 1
 291 597 l 1
198 325 m 1
 233 426 l 1
 550 426 l 1
 514 324 l 1
 198 325 l 1
255 699 m 1
 370 700 l 1
 129 0 l 1
 18 0 l 1
 255 699 l 1
400 928 m 1
 498 970 l 1
 589 807 l 1
 525 775 l 1
 400 928 l 1
EndSplineSet
EndChar

StartChar: Eacute
Encoding: 201 201 194
Width: 537
VWidth: 0
Flags: HMW
LayerCount: 2
Fore
SplineSet
87 0 m 1
 122 104 l 1
 459 104 l 1
 423 0 l 1
 87 0 l 1
291 597 m 1
 326 700 l 1
 662 700 l 1
 626 596 l 1
 291 597 l 1
198 325 m 1
 233 426 l 1
 550 426 l 1
 514 324 l 1
 198 325 l 1
255 699 m 1
 370 700 l 1
 129 0 l 1
 18 0 l 1
 255 699 l 1
670 919 m 1
 453 777 l 1
 399 814 l 1
 592 969 l 1
 670 919 l 1
EndSplineSet
EndChar

StartChar: Ecircumflex
Encoding: 202 202 195
Width: 537
VWidth: 0
Flags: HMW
LayerCount: 2
Fore
SplineSet
87 0 m 1
 122 104 l 1
 459 104 l 1
 423 0 l 1
 87 0 l 1
291 597 m 1
 326 700 l 1
 662 700 l 1
 626 596 l 1
 291 597 l 1
198 325 m 1
 233 426 l 1
 550 426 l 1
 514 324 l 1
 198 325 l 1
255 699 m 1
 370 700 l 1
 129 0 l 1
 18 0 l 1
 255 699 l 1
531 871 m 1
 393 778 l 1
 353 821 l 1
 548 958 l 1
 657 815 l 1
 601 778 l 1
 531 871 l 1
EndSplineSet
EndChar

StartChar: Edieresis
Encoding: 203 203 196
Width: 537
VWidth: 0
Flags: HMW
LayerCount: 2
Fore
SplineSet
87 0 m 1
 122 104 l 1
 459 104 l 1
 423 0 l 1
 87 0 l 1
291 597 m 1
 326 700 l 1
 662 700 l 1
 626 596 l 1
 291 597 l 1
198 325 m 1
 233 426 l 1
 550 426 l 1
 514 324 l 1
 198 325 l 1
255 699 m 1
 370 700 l 1
 129 0 l 1
 18 0 l 1
 255 699 l 1
554 855 m 0
 562 886 607 920 639 918 c 0
 673 916 694 884 686 851 c 0
 678 820 633 787 601 789 c 0
 567 791 546 822 554 855 c 0
350 855 m 0
 358 886 401 920 433 918 c 0
 467 916 489 884 481 851 c 0
 473 820 429 787 397 789 c 0
 363 791 342 822 350 855 c 0
EndSplineSet
EndChar

StartChar: Igrave
Encoding: 204 204 197
Width: 258
VWidth: 0
Flags: HMW
LayerCount: 2
Fore
SplineSet
255 699 m 1
 374 700 l 1
 132 0 l 1
 18 0 l 1
 255 699 l 1
253 928 m 1
 352 970 l 1
 443 807 l 1
 378 775 l 1
 253 928 l 1
EndSplineSet
EndChar

StartChar: Iacute
Encoding: 205 205 198
Width: 258
VWidth: 0
Flags: HMW
LayerCount: 2
Fore
SplineSet
255 699 m 1
 374 700 l 1
 132 0 l 1
 18 0 l 1
 255 699 l 1
523 919 m 1
 306 776 l 1
 253 814 l 1
 446 969 l 1
 523 919 l 1
EndSplineSet
EndChar

StartChar: Icircumflex
Encoding: 206 206 199
Width: 258
VWidth: 0
Flags: HMW
LayerCount: 2
Fore
SplineSet
255 699 m 1
 374 700 l 1
 132 0 l 1
 18 0 l 1
 255 699 l 1
377 871 m 1
 239 778 l 1
 199 821 l 1
 394 958 l 1
 503 815 l 1
 448 778 l 1
 377 871 l 1
EndSplineSet
EndChar

StartChar: Idieresis
Encoding: 207 207 200
Width: 258
VWidth: 0
Flags: HMW
LayerCount: 2
Fore
SplineSet
255 699 m 1
 374 700 l 1
 132 0 l 1
 18 0 l 1
 255 699 l 1
398 841 m 0
 406 872 450 905 482 903 c 0
 516 901 538 869 530 836 c 0
 522 805 477 771 445 773 c 0
 410 775 390 808 398 841 c 0
194 841 m 0
 202 872 245 905 277 903 c 0
 311 901 333 869 325 836 c 0
 317 805 272 771 240 773 c 0
 205 775 186 808 194 841 c 0
EndSplineSet
EndChar

StartChar: Ntilde
Encoding: 209 209 201
Width: 735
VWidth: 0
Flags: HMW
LayerCount: 2
Fore
SplineSet
738 700 m 1
 851 700 l 1
 599 -33 l 1
 292 472 l 1
 130 0 l 1
 16 0 l 1
 267 733 l 1
 575 228 l 1
 738 700 l 1
406 812 m 1
 436 851 479 898 534 895 c 0
 575 893 598 845 639 848 c 0
 669 850 694 878 715 896 c 1
 754 838 l 1
 722 804 675 760 623 764 c 0
 583 767 560 815 519 811 c 0
 489 808 470 783 453 762 c 1
 406 812 l 1
EndSplineSet
EndChar

StartChar: Eth
Encoding: 208 208 202
Width: 659
VWidth: 0
Flags: HMW
LayerCount: 2
Fore
SplineSet
55 308 m 1
 84 392 l 1
 389 392 l 1
 360 307 l 1
 55 308 l 1
255 699 m 1
 375 700 l 1
 133 0 l 1
 18 0 l 1
 255 699 l 1
239 0 m 0
 85 0 l 1
 124 111 l 1
 260 111 l 0
 404 117 526 216 574 350 c 0
 618 471 575 582 437 589 c 1
 286 589 l 1
 325 700 l 1
 463 700 l 0
 661 693 751 532 692 350 c 0
 629 154 447 6 239 0 c 0
EndSplineSet
EndChar

StartChar: Ograve
Encoding: 210 210 203
Width: 754
VWidth: 0
Flags: HMW
LayerCount: 2
Fore
SplineSet
221 350 m 0
 181 239 211 104 350 102 c 0
 493 100 619 224 665 350 c 0
 705 462 674 596 535 598 c 0
 392 600 267 476 221 350 c 0
98 350 m 0
 160 542 350 713 558 712 c 0
 760 711 843 527 787 350 c 0
 725 157 535 -16 326 -15 c 0
 123 -14 42 173 98 350 c 0
515 928 m 1
 613 970 l 1
 704 807 l 1
 639 775 l 1
 515 928 l 1
EndSplineSet
EndChar

StartChar: Oacute
Encoding: 211 211 204
Width: 754
VWidth: 0
Flags: HMW
LayerCount: 2
Fore
SplineSet
221 350 m 0
 181 239 211 104 350 102 c 0
 493 100 619 224 665 350 c 0
 705 462 674 596 535 598 c 0
 392 600 267 476 221 350 c 0
98 350 m 0
 160 542 350 713 558 712 c 0
 760 711 843 527 787 350 c 0
 725 157 535 -16 326 -15 c 0
 123 -14 42 173 98 350 c 0
770 919 m 1
 554 777 l 1
 500 814 l 1
 692 969 l 1
 770 919 l 1
EndSplineSet
EndChar

StartChar: Ocircumflex
Encoding: 212 212 205
Width: 754
VWidth: 0
Flags: HMW
LayerCount: 2
Fore
SplineSet
221 350 m 0
 181 239 211 104 350 102 c 0
 493 100 619 224 665 350 c 0
 705 462 674 596 535 598 c 0
 392 600 267 476 221 350 c 0
98 350 m 0
 160 542 351 713 559 712 c 0
 761 711 843 527 787 350 c 0
 725 157 535 -16 326 -15 c 0
 123 -14 42 173 98 350 c 0
631 871 m 1
 493 778 l 1
 454 821 l 1
 649 958 l 1
 758 815 l 1
 702 778 l 1
 631 871 l 1
EndSplineSet
EndChar

StartChar: Otilde
Encoding: 213 213 206
Width: 754
VWidth: 0
Flags: HMW
LayerCount: 2
Fore
SplineSet
221 350 m 0
 181 239 211 104 350 102 c 0
 493 100 619 224 665 350 c 0
 705 462 674 596 535 598 c 0
 392 600 267 476 221 350 c 0
98 350 m 0
 160 542 351 713 559 712 c 0
 761 711 843 527 787 350 c 0
 725 157 535 -16 326 -15 c 0
 123 -14 42 173 98 350 c 0
448 824 m 1
 439 864 540 903 568 902 c 0
 607 900 629 854 669 857 c 0
 697 859 722 886 741 903 c 1
 775 858 l 1
 745 827 704 785 656 789 c 0
 618 792 597 836 558 834 c 0
 528 832 508 806 491 785 c 1
 448 824 l 1
EndSplineSet
EndChar

StartChar: Odieresis
Encoding: 214 214 207
Width: 754
VWidth: 0
Flags: HMW
LayerCount: 2
Fore
SplineSet
221 350 m 0
 181 239 211 104 350 102 c 0
 493 100 619 224 665 350 c 0
 705 462 674 596 535 598 c 0
 392 600 267 476 221 350 c 0
98 350 m 0
 160 542 350 713 558 712 c 0
 760 711 843 527 787 350 c 0
 725 157 535 -16 326 -15 c 0
 123 -14 42 173 98 350 c 0
646 841 m 0
 654 872 698 905 730 903 c 0
 764 901 786 869 778 836 c 0
 770 805 725 771 693 773 c 0
 659 775 638 808 646 841 c 0
442 841 m 0
 450 872 493 905 525 903 c 0
 559 901 581 869 573 836 c 0
 565 805 521 771 489 773 c 0
 455 775 434 808 442 841 c 0
EndSplineSet
EndChar

StartChar: Ugrave
Encoding: 217 217 208
Width: 617
VWidth: 0
Flags: HMW
LayerCount: 2
Fore
SplineSet
252 700 m 1
 368 700 l 1
 206 235 l 2
 186 168 195 94 279 92 c 0
 365 90 431 161 461 235 c 1
 621 700 l 1
 737 700 l 1
 576 230 l 2
 527 95 406 -17 256 -17 c 0
 113 -17 54 101 92 230 c 0
 252 700 l 1
434 926 m 1
 532 968 l 1
 623 804 l 1
 559 772 l 1
 434 926 l 1
EndSplineSet
EndChar

StartChar: Uacute
Encoding: 218 218 209
Width: 617
VWidth: 0
Flags: HMW
LayerCount: 2
Fore
SplineSet
252 700 m 1
 368 700 l 1
 206 235 l 2
 186 168 195 94 279 92 c 0
 365 90 431 161 461 235 c 1
 621 700 l 1
 737 700 l 1
 576 230 l 2
 527 95 406 -17 256 -17 c 0
 113 -17 54 101 92 230 c 0
 252 700 l 1
705 917 m 1
 488 774 l 1
 435 811 l 1
 628 966 l 1
 705 917 l 1
EndSplineSet
EndChar

StartChar: Ucircumflex
Encoding: 219 219 210
Width: 617
VWidth: 0
Flags: HMW
LayerCount: 2
Fore
SplineSet
252 700 m 1
 368 700 l 1
 206 235 l 2
 186 168 195 94 279 92 c 0
 365 90 431 161 461 235 c 1
 621 700 l 1
 737 700 l 1
 576 230 l 2
 527 95 406 -17 256 -17 c 0
 113 -17 54 101 92 230 c 0
 252 700 l 1
555 862 m 1
 427 773 l 1
 371 829 l 1
 579 965 l 1
 702 822 l 1
 620 773 l 1
 555 862 l 1
EndSplineSet
EndChar

StartChar: Udieresis
Encoding: 220 220 211
Width: 617
VWidth: 0
Flags: HMW
LayerCount: 2
Fore
SplineSet
252 700 m 1
 368 700 l 1
 206 235 l 2
 186 168 195 94 279 92 c 0
 365 90 431 161 461 235 c 1
 621 700 l 1
 737 700 l 1
 576 230 l 2
 527 95 406 -17 256 -17 c 0
 113 -17 54 101 92 230 c 0
 252 700 l 1
584 841 m 0
 592 872 636 905 668 903 c 0
 702 901 724 869 716 836 c 0
 708 805 664 771 632 773 c 0
 598 775 576 808 584 841 c 0
365 841 m 0
 373 872 418 905 450 903 c 0
 484 901 505 869 497 836 c 0
 489 805 444 771 412 773 c 0
 378 775 357 808 365 841 c 0
EndSplineSet
EndChar

StartChar: Yacute
Encoding: 221 221 212
Width: 564
VWidth: 0
Flags: HMW
LayerCount: 2
Fore
SplineSet
679 917 m 1
 462 773 l 1
 409 811 l 1
 601 966 l 1
 679 917 l 1
616 699 m 1
 754 699 l 1
 386 289 l 1
 286 0 l 1
 169 0 l 1
 274 301 l 1
 189 700 l 1
 313 700 l 1
 362 405 l 1
 616 699 l 1
EndSplineSet
EndChar

StartChar: agrave
Encoding: 224 224 213
Width: 478
VWidth: 0
Flags: HMW
LayerCount: 2
Fore
SplineSet
121 135 m 0
 108 95 136 75 173 73 c 0
 247 70 297 122 332 181 c 1
 331 128 l 1
 291 48 221 -10 127 -9 c 0
 47 -8 -11 45 13 127 c 0
 42 226 149 283 247 282 c 0
 301 282 344 265 380 226 c 1
 363 171 l 1
 330 198 296 214 252 213 c 0
 202 212 138 187 121 135 c 0
171 338 m 1
 152 418 l 1
 212 447 276 472 344 471 c 0
 430 470 507 423 483 328 c 1
 371 0 l 1
 267 0 l 1
 379 316 l 1
 382 358 365 378 321 381 c 0
 269 384 217 359 171 338 c 1
266 684 m 1
 364 726 l 1
 455 563 l 1
 391 531 l 1
 266 684 l 1
EndSplineSet
Substitution2: "alt a" agrave.alt
EndChar

StartChar: aacute
Encoding: 225 225 214
Width: 478
VWidth: 0
Flags: HMW
LayerCount: 2
Fore
SplineSet
121 135 m 0
 108 95 136 75 173 73 c 0
 247 70 297 122 332 181 c 1
 331 128 l 1
 291 48 221 -10 127 -9 c 0
 47 -8 -11 45 13 127 c 0
 42 226 149 283 247 282 c 0
 301 282 344 265 380 226 c 1
 363 171 l 1
 330 198 296 214 252 213 c 0
 202 212 138 187 121 135 c 0
171 338 m 1
 152 418 l 1
 212 447 276 472 344 471 c 0
 430 470 507 423 483 328 c 1
 371 0 l 1
 267 0 l 1
 379 316 l 1
 382 358 365 378 321 381 c 0
 269 384 217 359 171 338 c 1
579 676 m 1
 362 533 l 1
 309 570 l 1
 502 725 l 1
 579 676 l 1
EndSplineSet
Substitution2: "alt a" aacute.alt
EndChar

StartChar: acircumflex
Encoding: 226 226 215
Width: 478
VWidth: 0
Flags: HMW
LayerCount: 2
Fore
SplineSet
121 135 m 0
 108 95 136 75 173 73 c 0
 247 70 297 122 332 181 c 1
 331 128 l 1
 291 48 221 -10 127 -9 c 0
 47 -8 -11 45 13 127 c 0
 42 226 149 283 247 282 c 0
 301 282 344 265 380 226 c 1
 363 171 l 1
 330 198 296 214 252 213 c 0
 202 212 138 187 121 135 c 0
171 338 m 1
 152 418 l 1
 212 447 276 472 344 471 c 0
 430 470 507 423 483 328 c 1
 371 0 l 1
 267 0 l 1
 379 316 l 1
 382 358 365 378 321 381 c 0
 269 384 217 359 171 338 c 1
408 621 m 1
 280 532 l 1
 223 588 l 1
 432 724 l 1
 555 580 l 1
 473 531 l 1
 408 621 l 1
EndSplineSet
Substitution2: "alt a" acircumflex.alt
EndChar

StartChar: atilde
Encoding: 227 227 216
Width: 478
VWidth: 0
Flags: HMW
LayerCount: 2
Fore
SplineSet
121 135 m 0
 108 95 136 75 173 73 c 0
 247 70 297 122 332 181 c 1
 331 128 l 1
 291 48 221 -10 127 -9 c 0
 47 -8 -11 45 13 127 c 0
 42 226 149 283 247 282 c 0
 301 282 344 265 380 226 c 1
 363 171 l 1
 330 198 296 214 252 213 c 0
 202 212 138 187 121 135 c 0
171 338 m 1
 152 418 l 1
 212 447 276 472 344 471 c 0
 430 470 507 423 483 328 c 1
 371 0 l 1
 267 0 l 1
 379 316 l 1
 382 358 365 378 321 381 c 0
 269 384 217 359 171 338 c 1
219 583 m 1
 249 622 292 669 347 666 c 0
 388 664 411 616 452 619 c 0
 482 621 507 649 528 667 c 1
 567 609 l 1
 535 575 488 531 436 535 c 0
 396 538 373 586 332 582 c 0
 302 579 283 554 266 533 c 1
 219 583 l 1
EndSplineSet
Substitution2: "alt a" atilde.alt
EndChar

StartChar: adieresis
Encoding: 228 228 217
Width: 478
VWidth: 0
Flags: HMW
LayerCount: 2
Fore
SplineSet
121 135 m 0
 108 95 136 75 173 73 c 0
 247 70 297 122 332 181 c 1
 331 128 l 1
 291 48 221 -10 127 -9 c 0
 47 -8 -11 45 13 127 c 0
 42 226 149 283 247 282 c 0
 301 282 344 265 380 226 c 1
 363 171 l 1
 330 198 296 214 252 213 c 0
 202 212 138 187 121 135 c 0
171 338 m 1
 152 418 l 1
 212 447 276 472 344 471 c 0
 430 470 507 423 483 328 c 1
 371 0 l 1
 267 0 l 1
 379 316 l 1
 382 358 365 378 321 381 c 0
 269 384 217 359 171 338 c 1
430 599 m 0
 438 630 482 664 514 662 c 0
 548 660 570 628 562 595 c 0
 554 564 509 530 477 532 c 0
 443 534 422 566 430 599 c 0
226 599 m 0
 234 630 277 664 309 662 c 0
 343 660 364 628 356 595 c 0
 348 564 304 530 272 532 c 0
 238 534 218 566 226 599 c 0
EndSplineSet
Substitution2: "alt a" adieresis.alt
EndChar

StartChar: aring
Encoding: 229 229 218
Width: 478
VWidth: 0
Flags: HMW
LayerCount: 2
Fore
SplineSet
121 135 m 0
 108 95 136 75 173 73 c 0
 247 70 297 122 332 181 c 1
 331 128 l 1
 291 48 221 -10 127 -9 c 0
 47 -8 -11 45 13 127 c 0
 42 226 149 283 247 282 c 0
 301 282 344 265 380 226 c 1
 363 171 l 1
 330 198 296 214 252 213 c 0
 202 212 138 187 121 135 c 0
171 338 m 1
 152 418 l 1
 212 447 276 472 344 471 c 0
 430 470 507 423 483 328 c 1
 371 0 l 1
 267 0 l 1
 379 316 l 1
 382 358 365 378 321 381 c 0
 269 384 217 359 171 338 c 1
301 640 m 0
 317 695 380 744 438 743 c 0
 496 742 530 691 514 636 c 0
 498 581 434 531 376 532 c 0
 318 533 285 586 301 640 c 0
361 636 m 0
 355 617 363 591 385 588 c 0
 409 584 448 618 454 639 c 0
 460 658 451 685 429 688 c 0
 405 692 367 657 361 636 c 0
EndSplineSet
Substitution2: "alt a" aring.alt
EndChar

StartChar: germandbls
Encoding: 223 223 219
Width: 580
VWidth: 0
Flags: HMW
LayerCount: 2
Fore
SplineSet
364 -12 m 0
 306 -12 242 12 207 45 c 1
 249 127 l 1
 278 100 314 82 350 82 c 0
 406 82 447 125 447 179 c 0
 447 285 327 292 327 393 c 0
 327 501 528 524 528 634 c 0
 528 677 499 697 455 697 c 0
 385 697 341 651 315 573 c 2
 121 -2 l 1
 12 -2 l 1
 206 586 l 2
 244 701 317 795 475 795 c 0
 571 795 642 732 642 650 c 0
 642 489 444 470 444 396 c 0
 444 328 560 330 560 186 c 0
 560 76 477 -12 364 -12 c 0
EndSplineSet
EndChar

StartChar: ae
Encoding: 230 230 220
Width: 816
VWidth: 0
Flags: HMW
LayerCount: 2
Fore
SplineSet
158 -10 m 0
 44 -10 0 50 8 119 c 0
 15 205 108 283 233 283 c 0
 289 283 330 270 402 228 c 1
 354 228 l 1
 378 308 l 2
 393 360 364 383 320 383 c 0
 275 383 217 365 176 338 c 1
 142 416 l 1
 205 453 271 471 336 471 c 0
 430 471 482 433 462 358 c 1
 437 335 l 1
 481 406 563 470 673 470 c 0
 773 470 831 407 819 288 c 0
 817 253 808 225 799 205 c 1
 438 205 l 1
 461 224 l 1
 435 154 450 79 532 79 c 0
 589 79 644 103 675 152 c 1
 766 115 l 1
 707 32 611 -10 523 -10 c 0
 427 -10 372 26 356 107 c 1
 374 107 l 1
 330 34 262 -10 158 -10 c 0
200 72 m 0
 266 72 316 110 352 190 c 1
 340 123 l 1
 346 211 l 1
 357 184 l 1
 324 204 284 214 241 214 c 0
 180 214 121 180 119 129 c 0
 117 85 142 72 200 72 c 0
463 238 m 1
 446 280 l 1
 733 280 l 1
 707 250 l 1
 710 256 710 258 710 266 c 0
 715 342 710 388 638 388 c 0
 559 388 507 331 463 238 c 1
EndSplineSet
EndChar

StartChar: ccedilla
Encoding: 231 231 221
Width: 455
VWidth: 0
Flags: HMW
LayerCount: 2
Fore
SplineSet
157 230 m 0
 132 163 155 87 235 84 c 0
 300 82 360 119 408 159 c 1
 372 41 l 1
 324 11 270 -9 212 -9 c 0
 78 -8 13 108 51 230 c 0
 92 362 222 468 362 469 c 0
 415 469 458 452 497 418 c 1
 460 299 l 1
 440 349 404 377 349 376 c 0
 266 375 185 306 157 230 c 0
197 58 m 1
 279 57 l 1
 167 -58 l 1
 172 -57 177 -57 182 -57 c 0
 225 -63 248 -100 236 -142 c 0
 220 -199 153 -238 97 -239 c 0
 57 -240 28 -221 -2 -198 c 1
 48 -151 l 1
 64 -162 80 -175 101 -175 c 0
 121 -175 163 -156 168 -134 c 0
 173 -113 148 -103 132 -102 c 0
 108 -100 81 -110 58 -117 c 1
 197 58 l 1
EndSplineSet
EndChar

StartChar: egrave
Encoding: 232 232 222
Width: 506
VWidth: 0
Flags: HMW
LayerCount: 2
Fore
SplineSet
109 206 m 1
 132 279 l 1
 402 280 l 1
 410 333 405 385 341 387 c 0
 263 390 203 321 172 257 c 2
 160 230 l 1
 136 166 141 84 224 80 c 0
 282 77 332 115 374 151 c 1
 456 111 l 1
 387 42 303 -11 203 -9 c 0
 68 -7 19 112 54 230 c 0
 59 247 65 263 73 279 c 0
 125 385 235 470 357 469 c 0
 495 468 535 353 502 235 c 0
 500 225 496 216 493 206 c 1
 109 206 l 1
297 691 m 1
 394 733 l 1
 485 570 l 1
 422 538 l 1
 297 691 l 1
EndSplineSet
EndChar

StartChar: eacute
Encoding: 233 233 223
Width: 506
VWidth: 0
Flags: HMW
LayerCount: 2
Fore
SplineSet
109 206 m 1
 132 279 l 1
 402 280 l 1
 410 333 405 385 341 387 c 0
 263 390 203 321 172 257 c 2
 160 230 l 1
 136 166 141 84 224 80 c 0
 282 77 332 115 374 151 c 1
 456 111 l 1
 387 42 303 -11 203 -9 c 0
 68 -7 19 112 54 230 c 0
 59 247 65 263 73 279 c 0
 125 385 235 470 357 469 c 0
 495 468 535 353 502 235 c 0
 500 225 496 216 493 206 c 1
 109 206 l 1
596 682 m 1
 379 540 l 1
 325 577 l 1
 518 731 l 1
 596 682 l 1
EndSplineSet
EndChar

StartChar: ecircumflex
Encoding: 234 234 224
Width: 506
VWidth: 0
Flags: HMW
LayerCount: 2
Fore
SplineSet
109 206 m 1
 132 279 l 1
 402 280 l 1
 410 333 405 385 341 387 c 0
 263 390 203 321 172 257 c 2
 160 230 l 1
 136 166 141 84 224 80 c 0
 282 77 332 115 374 151 c 1
 456 111 l 1
 387 42 303 -11 203 -9 c 0
 68 -7 19 112 54 230 c 0
 59 247 65 263 73 279 c 0
 125 385 235 470 357 469 c 0
 495 468 535 353 502 235 c 0
 500 225 496 216 493 206 c 1
 109 206 l 1
422 620 m 1
 293 531 l 1
 237 587 l 1
 445 723 l 1
 568 580 l 1
 486 531 l 1
 422 620 l 1
EndSplineSet
EndChar

StartChar: edieresis
Encoding: 235 235 225
Width: 506
VWidth: 0
Flags: HMW
LayerCount: 2
Fore
SplineSet
109 206 m 1
 132 279 l 1
 402 280 l 1
 410 333 405 385 341 387 c 0
 263 390 203 321 172 257 c 2
 160 230 l 1
 136 166 141 84 224 80 c 0
 282 77 332 115 374 151 c 1
 456 111 l 1
 387 42 303 -11 203 -9 c 0
 68 -7 19 112 54 230 c 0
 59 247 65 263 73 279 c 0
 125 385 235 470 357 469 c 0
 495 468 535 353 502 235 c 0
 500 225 496 216 493 206 c 1
 109 206 l 1
444 598 m 0
 452 629 496 663 528 661 c 0
 562 659 583 627 575 594 c 0
 567 563 523 529 491 531 c 0
 457 533 436 565 444 598 c 0
239 598 m 0
 247 629 291 663 323 661 c 0
 357 659 379 627 371 594 c 0
 363 563 318 529 286 531 c 0
 252 533 231 565 239 598 c 0
EndSplineSet
EndChar

StartChar: igrave
Encoding: 236 236 226
Width: 250
VWidth: 0
Flags: HMW
LayerCount: 2
Fore
SplineSet
174 459 m 1
 282 460 l 1
 121 0 l 1
 20 0 l 1
 174 459 l 1
149 698 m 1
 248 740 l 1
 339 577 l 1
 274 545 l 1
 149 698 l 1
EndSplineSet
EndChar

StartChar: dotlessi
Encoding: 305 305 227
Width: 250
VWidth: 0
Flags: HMW
LayerCount: 2
Fore
SplineSet
174 459 m 1
 282 460 l 1
 121 0 l 1
 20 0 l 1
 174 459 l 1
EndSplineSet
EndChar

StartChar: kgreenlandic
Encoding: 312 312 228
Width: 464
VWidth: 0
Flags: HMW
LayerCount: 2
Fore
SplineSet
161 459 m 1
 267 460 l 1
 108 0 l 1
 6 0 l 1
 161 459 l 1
417 459 m 1
 555 459 l 1
 294 265 l 1
 406 0 l 1
 289 0 l 1
 171 276 l 1
 417 459 l 1
EndSplineSet
EndChar

StartChar: iacute
Encoding: 237 237 229
Width: 250
VWidth: 0
Flags: HMW
LayerCount: 2
Fore
SplineSet
174 459 m 1
 282 460 l 1
 121 0 l 1
 20 0 l 1
 174 459 l 1
465 690 m 1
 249 547 l 1
 195 584 l 1
 388 739 l 1
 465 690 l 1
EndSplineSet
EndChar

StartChar: icircumflex
Encoding: 238 238 230
Width: 250
VWidth: 0
Flags: HMW
LayerCount: 2
Fore
SplineSet
174 459 m 1
 282 460 l 1
 121 0 l 1
 20 0 l 1
 174 459 l 1
292 628 m 1
 163 539 l 1
 107 594 l 1
 315 730 l 1
 438 587 l 1
 357 538 l 1
 292 628 l 1
EndSplineSet
EndChar

StartChar: idieresis
Encoding: 239 239 231
Width: 250
VWidth: 0
Flags: HMW
LayerCount: 2
Fore
SplineSet
174 459 m 1
 282 460 l 1
 121 0 l 1
 20 0 l 1
 174 459 l 1
319 621 m 0
 327 652 371 685 403 683 c 0
 437 681 458 649 450 616 c 0
 442 585 398 552 366 554 c 0
 332 556 311 588 319 621 c 0
114 621 m 0
 122 652 166 685 198 683 c 0
 232 681 254 649 246 616 c 0
 238 585 194 552 162 554 c 0
 128 556 106 588 114 621 c 0
EndSplineSet
EndChar

StartChar: ntilde
Encoding: 241 241 232
Width: 511
VWidth: 0
Flags: HMW
LayerCount: 2
Fore
SplineSet
273 460 m 1
 114 0 l 1
 7 0 l 1
 167 460 l 1
 273 460 l 1
386 280 m 1
 399 322 404 378 346 382 c 0
 284 386 238 329 210 282 c 1
 175 280 l 1
 214 371 286 469 396 469 c 0
 502 469 519 377 495 292 c 1
 395 0 l 1
 288 0 l 1
 386 280 l 1
232 582 m 1
 262 621 305 668 360 665 c 0
 401 663 424 615 465 618 c 0
 495 620 519 648 540 666 c 1
 580 608 l 1
 548 574 500 530 448 534 c 0
 408 537 386 586 345 582 c 0
 315 579 295 554 278 533 c 1
 232 582 l 1
EndSplineSet
EndChar

StartChar: ograve
Encoding: 242 242 233
Width: 529
VWidth: 0
Flags: HMW
LayerCount: 2
Fore
SplineSet
53 230 m 0
 93 359 225 469 364 469 c 0
 498 469 563 352 525 230 c 0
 485 101 353 -9 215 -9 c 0
 81 -9 15 108 53 230 c 0
161 230 m 0
 138 167 154 87 233 86 c 0
 314 85 392 158 418 230 c 0
 441 293 424 373 345 374 c 0
 264 375 187 302 161 230 c 0
297 698 m 1
 394 740 l 1
 486 577 l 1
 422 545 l 1
 297 698 l 1
EndSplineSet
EndChar

StartChar: oacute
Encoding: 243 243 234
Width: 529
VWidth: 0
Flags: HMW
LayerCount: 2
Fore
SplineSet
53 230 m 0
 93 359 225 469 364 469 c 0
 498 469 563 352 525 230 c 0
 485 101 353 -9 215 -9 c 0
 81 -9 15 108 53 230 c 0
161 230 m 0
 138 167 154 87 233 86 c 0
 314 85 392 158 418 230 c 0
 441 293 424 373 345 374 c 0
 264 375 187 302 161 230 c 0
600 690 m 1
 384 547 l 1
 330 584 l 1
 523 739 l 1
 600 690 l 1
EndSplineSet
EndChar

StartChar: ocircumflex
Encoding: 244 244 235
Width: 529
VWidth: 0
Flags: HMW
LayerCount: 2
Fore
SplineSet
53 230 m 0
 93 359 225 469 364 469 c 0
 498 469 563 352 525 230 c 0
 485 101 353 -9 215 -9 c 0
 81 -9 15 108 53 230 c 0
161 230 m 0
 138 167 154 87 233 86 c 0
 314 85 392 158 418 230 c 0
 441 293 424 373 345 374 c 0
 264 375 187 302 161 230 c 0
434 635 m 1
 305 546 l 1
 249 602 l 1
 457 738 l 1
 580 594 l 1
 499 545 l 1
 434 635 l 1
EndSplineSet
EndChar

StartChar: otilde
Encoding: 245 245 236
Width: 529
VWidth: 0
Flags: HMW
LayerCount: 2
Fore
SplineSet
53 230 m 0
 93 359 225 469 364 469 c 0
 498 469 563 352 525 230 c 0
 485 101 353 -9 215 -9 c 0
 81 -9 15 108 53 230 c 0
161 230 m 0
 138 167 154 87 233 86 c 0
 314 85 392 158 418 230 c 0
 441 293 424 373 345 374 c 0
 264 375 187 302 161 230 c 0
239 582 m 1
 230 625 337 666 368 665 c 0
 409 663 430 615 472 618 c 0
 502 620 527 648 548 666 c 1
 589 608 l 1
 557 574 509 530 457 534 c 0
 417 537 393 586 352 582 c 0
 322 579 304 554 287 533 c 1
 239 582 l 1
EndSplineSet
EndChar

StartChar: odieresis
Encoding: 246 246 237
Width: 529
VWidth: 0
Flags: HMW
LayerCount: 2
Fore
SplineSet
53 230 m 0
 93 359 225 469 364 469 c 0
 498 469 563 352 525 230 c 0
 485 101 353 -9 215 -9 c 0
 81 -9 15 108 53 230 c 0
161 230 m 0
 138 167 154 87 233 86 c 0
 314 85 392 158 418 230 c 0
 441 293 424 373 345 374 c 0
 264 375 187 302 161 230 c 0
459 621 m 0
 467 652 511 685 543 683 c 0
 577 681 597 649 589 616 c 0
 581 585 538 552 506 554 c 0
 472 556 451 588 459 621 c 0
254 621 m 0
 262 652 306 685 338 683 c 0
 372 681 393 649 385 616 c 0
 377 585 333 552 301 554 c 0
 267 556 246 588 254 621 c 0
EndSplineSet
EndChar

StartChar: ugrave
Encoding: 249 249 238
Width: 511
VWidth: 0
Flags: HMW
LayerCount: 2
Fore
SplineSet
288 0 m 1
 447 460 l 1
 554 460 l 1
 395 0 l 1
 288 0 l 1
176 180 m 1
 163 138 157 82 215 78 c 0
 277 74 323 131 351 178 c 1
 387 180 l 1
 348 89 275 -9 165 -9 c 0
 59 -9 42 83 66 168 c 1
 167 460 l 1
 273 459 l 1
 176 180 l 1
316 698 m 1
 414 740 l 1
 505 577 l 1
 441 545 l 1
 316 698 l 1
EndSplineSet
EndChar

StartChar: uacute
Encoding: 250 250 239
Width: 511
VWidth: 0
Flags: HMW
LayerCount: 2
Fore
SplineSet
288 0 m 1
 447 460 l 1
 554 460 l 1
 395 0 l 1
 288 0 l 1
176 180 m 1
 163 138 157 82 215 78 c 0
 277 74 323 131 351 178 c 1
 387 180 l 1
 348 89 275 -9 165 -9 c 0
 59 -9 42 83 66 168 c 1
 167 460 l 1
 273 459 l 1
 176 180 l 1
563 690 m 1
 347 546 l 1
 294 584 l 1
 486 739 l 1
 563 690 l 1
EndSplineSet
EndChar

StartChar: ucircumflex
Encoding: 251 251 240
Width: 511
VWidth: 0
Flags: HMW
LayerCount: 2
Fore
SplineSet
288 0 m 1
 447 460 l 1
 554 460 l 1
 395 0 l 1
 288 0 l 1
176 180 m 1
 163 138 157 82 215 78 c 0
 277 74 323 131 351 178 c 1
 387 180 l 1
 348 89 275 -9 165 -9 c 0
 59 -9 42 83 66 168 c 1
 167 460 l 1
 273 459 l 1
 176 180 l 1
425 635 m 1
 296 546 l 1
 239 602 l 1
 448 738 l 1
 572 594 l 1
 490 545 l 1
 425 635 l 1
EndSplineSet
EndChar

StartChar: udieresis
Encoding: 252 252 241
Width: 511
VWidth: 0
Flags: HMW
LayerCount: 2
Fore
SplineSet
288 0 m 1
 447 460 l 1
 554 460 l 1
 395 0 l 1
 288 0 l 1
176 180 m 1
 163 138 157 82 215 78 c 0
 277 74 323 131 351 178 c 1
 387 180 l 1
 348 89 275 -9 165 -9 c 0
 59 -9 42 83 66 168 c 1
 167 460 l 1
 273 459 l 1
 176 180 l 1
448 613 m 0
 456 644 499 678 531 676 c 0
 565 674 587 642 579 609 c 0
 571 578 526 544 494 546 c 0
 459 548 440 580 448 613 c 0
243 613 m 0
 251 644 295 678 327 676 c 0
 361 674 382 642 374 609 c 0
 366 578 322 544 290 546 c 0
 255 548 235 580 243 613 c 0
EndSplineSet
EndChar

StartChar: yacute
Encoding: 253 253 242
Width: 443
VWidth: 0
Flags: HMW
LayerCount: 2
Fore
SplineSet
557 459 m 1
 40 -219 l 1
 -77 -219 l 1
 137 60 l 1
 101 460 l 1
 215 460 l 1
 229 96 l 1
 179 100 l 1
 438 459 l 1
 557 459 l 1
541 690 m 1
 324 547 l 1
 272 584 l 1
 463 739 l 1
 541 690 l 1
EndSplineSet
EndChar

StartChar: thorn
Encoding: 254 254 243
Width: 553
VWidth: 0
Flags: HMW
LayerCount: 2
Fore
SplineSet
37 -219 m 1
 -72 -220 l 1
 272 780 l 1
 377 779 l 1
 37 -219 l 1
548 230 m 0
 510 109 395 -12 261 -10 c 0
 129 -8 118 131 150 230 c 0
 186 343 280 468 410 469 c 0
 544 470 583 340 548 230 c 0
441 230 m 0
 464 293 447 374 367 375 c 0
 287 376 214 299 188 230 c 0
 167 170 178 89 255 85 c 0
 337 81 415 158 441 230 c 0
EndSplineSet
EndChar

StartChar: ydieresis
Encoding: 255 255 244
Width: 443
VWidth: 0
Flags: HMW
LayerCount: 2
Fore
SplineSet
557 459 m 1
 40 -219 l 1
 -77 -219 l 1
 137 60 l 1
 101 460 l 1
 215 460 l 1
 229 96 l 1
 179 100 l 1
 438 459 l 1
 557 459 l 1
408 598 m 0
 416 629 461 663 493 661 c 0
 527 659 547 627 539 594 c 0
 531 563 487 529 455 531 c 0
 421 533 400 565 408 598 c 0
204 598 m 0
 212 629 256 663 288 661 c 0
 322 659 343 627 335 594 c 0
 327 563 283 529 251 531 c 0
 217 533 196 565 204 598 c 0
EndSplineSet
EndChar

StartChar: Amacron
Encoding: 256 256 245
Width: 648
VWidth: 0
Flags: HMW
LayerCount: 2
Fore
SplineSet
159 182 m 1
 213 279 l 1
 522 280 l 1
 510 180 l 1
 159 182 l 1
447 502 m 1
 255 245 l 1
 245 219 l 1
 78 0 l 1
 -58 0 l 1
 522 742 l 1
 591 0 l 1
 468 0 l 1
 450 213 l 1
 459 242 l 1
 447 502 l 1
374 800 m 1
 406 896 l 1
 748 896 l 1
 715 799 l 1
 374 800 l 1
EndSplineSet
EndChar

StartChar: amacron
Encoding: 257 257 246
Width: 478
VWidth: 0
Flags: HMW
LayerCount: 2
Fore
SplineSet
121 135 m 0
 108 95 136 75 173 73 c 0
 247 70 297 122 332 181 c 1
 331 128 l 1
 291 48 221 -10 127 -9 c 0
 47 -8 -11 45 13 127 c 0
 42 226 149 283 247 282 c 0
 301 282 344 265 380 226 c 1
 363 171 l 1
 330 198 296 214 252 213 c 0
 202 212 138 187 121 135 c 0
171 338 m 1
 152 418 l 1
 212 447 276 472 344 471 c 0
 430 470 507 423 483 328 c 1
 371 0 l 1
 267 0 l 1
 379 316 l 1
 382 358 365 378 321 381 c 0
 269 384 217 359 171 338 c 1
207 547 m 1
 240 644 l 1
 582 644 l 1
 548 546 l 1
 207 547 l 1
EndSplineSet
Substitution2: "alt a" amacron.alt
EndChar

StartChar: breve
Encoding: 728 728 247
Width: 513
VWidth: 0
Flags: HMW
LayerCount: 2
Fore
SplineSet
331 850 m 1
 408 850 l 1
 407 815 414 784 456 782 c 0
 501 780 531 815 554 849 c 1
 636 848 l 1
 601 770 537 709 446 709 c 0
 358 709 322 769 331 850 c 1
EndSplineSet
EndChar

StartChar: Abreve
Encoding: 258 258 248
Width: 648
VWidth: 0
Flags: HMW
LayerCount: 2
Fore
SplineSet
159 182 m 1
 213 279 l 1
 522 280 l 1
 510 180 l 1
 159 182 l 1
447 502 m 1
 255 245 l 1
 245 219 l 1
 78 0 l 1
 -58 0 l 1
 522 742 l 1
 591 0 l 1
 468 0 l 1
 450 213 l 1
 459 242 l 1
 447 502 l 1
438 941 m 1
 515 940 l 1
 513 905 519 875 561 873 c 0
 606 871 637 907 661 940 c 1
 743 939 l 1
 706 861 641 800 550 800 c 0
 461 800 427 861 438 941 c 1
EndSplineSet
EndChar

StartChar: abreve
Encoding: 259 259 249
Width: 478
VWidth: 0
Flags: HMW
LayerCount: 2
Fore
SplineSet
121 135 m 0
 108 95 136 75 173 73 c 0
 247 70 297 122 332 181 c 1
 331 128 l 1
 291 48 221 -10 127 -9 c 0
 47 -8 -11 45 13 127 c 0
 42 226 149 283 247 282 c 0
 301 282 344 265 380 226 c 1
 363 171 l 1
 330 198 296 214 252 213 c 0
 202 212 138 187 121 135 c 0
171 338 m 1
 152 418 l 1
 212 447 276 472 344 471 c 0
 430 470 507 423 483 328 c 1
 371 0 l 1
 267 0 l 1
 379 316 l 1
 382 358 365 378 321 381 c 0
 269 384 217 359 171 338 c 1
266 674 m 1
 343 673 l 1
 341 638 347 608 389 606 c 0
 434 604 465 640 489 673 c 1
 572 672 l 1
 535 595 468 532 377 532 c 0
 288 532 255 594 266 674 c 1
EndSplineSet
Substitution2: "alt a" abreve.alt
EndChar

StartChar: Aogonek
Encoding: 260 260 250
Width: 648
VWidth: 0
Flags: HMW
LayerCount: 2
Fore
SplineSet
159 182 m 1
 213 279 l 1
 522 280 l 1
 510 180 l 1
 159 182 l 1
447 502 m 1
 255 245 l 1
 245 219 l 1
 78 0 l 1
 -58 0 l 1
 522 742 l 1
 591 0 l 1
 468 0 l 1
 450 213 l 1
 459 242 l 1
 447 502 l 1
534 -122 m 1
 549 -183 l 1
 519 -203 488 -218 452 -219 c 0
 393 -220 349 -180 366 -119 c 0
 388 -45 475 -6 538 24 c 1
 576 0 l 1
 537 -23 472 -49 458 -98 c 0
 453 -117 457 -137 479 -141 c 0
 497 -144 519 -130 534 -122 c 1
EndSplineSet
EndChar

StartChar: aogonek
Encoding: 261 261 251
Width: 478
VWidth: 0
Flags: HMW
LayerCount: 2
Fore
SplineSet
121 135 m 0
 109 96 138 75 173 73 c 0
 247 69 297 123 332 181 c 1
 331 128 l 1
 291 48 221 -10 127 -9 c 0
 45 -8 -10 51 14 133 c 0
 44 231 150 283 247 282 c 0
 301 281 344 265 380 226 c 1
 363 171 l 1
 330 198 296 214 252 213 c 0
 202 212 136 188 121 135 c 0
171 338 m 1
 152 418 l 1
 212 447 276 472 344 471 c 0
 430 470 507 423 483 328 c 1
 371 0 l 1
 267 0 l 1
 379 316 l 1
 382 358 365 378 321 381 c 0
 269 384 217 359 171 338 c 1
319 -122 m 1
 334 -183 l 1
 304 -203 273 -218 237 -219 c 0
 178 -220 133 -180 150 -119 c 0
 172 -45 261 -6 324 24 c 1
 360 0 l 1
 321 -23 257 -49 243 -98 c 0
 238 -117 242 -137 264 -141 c 0
 282 -144 304 -130 319 -122 c 1
EndSplineSet
Substitution2: "alt a" aogonek.alt
EndChar

StartChar: Cacute
Encoding: 262 262 252
Width: 650
VWidth: 0
Flags: HMW
LayerCount: 2
Fore
SplineSet
223 350 m 0
 182 238 219 107 355 104 c 0
 446 102 529 150 600 201 c 1
 558 61 l 1
 488 17 411 -13 327 -12 c 0
 126 -10 41 174 98 350 c 0
 160 543 350 711 559 712 c 0
 634 713 696 688 751 637 c 1
 707 497 l 1
 670 561 614 596 538 596 c 0
 398 595 269 477 223 350 c 0
762 917 m 1
 546 774 l 1
 493 811 l 1
 684 966 l 1
 762 917 l 1
EndSplineSet
EndChar

StartChar: cacute
Encoding: 263 263 253
Width: 455
VWidth: 0
Flags: HMW
LayerCount: 2
Fore
SplineSet
157 230 m 0
 132 163 155 87 235 84 c 0
 300 82 360 119 408 159 c 1
 372 41 l 1
 324 11 270 -9 212 -9 c 0
 78 -8 13 108 51 230 c 0
 92 362 222 468 362 469 c 0
 415 469 458 452 497 418 c 1
 460 299 l 1
 440 349 404 377 349 376 c 0
 266 375 185 306 157 230 c 0
565 675 m 1
 348 532 l 1
 295 569 l 1
 487 724 l 1
 565 675 l 1
EndSplineSet
EndChar

StartChar: Ccircumflex
Encoding: 264 264 254
Width: 650
VWidth: 0
Flags: HMW
LayerCount: 2
Fore
SplineSet
223 350 m 0
 182 238 219 107 355 104 c 0
 446 102 529 150 600 201 c 1
 558 61 l 1
 488 17 411 -13 327 -12 c 0
 126 -10 41 174 98 350 c 0
 160 543 350 711 559 712 c 0
 634 713 696 688 751 637 c 1
 707 497 l 1
 670 561 614 596 538 596 c 0
 398 595 269 477 223 350 c 0
624 862 m 1
 496 773 l 1
 439 829 l 1
 647 965 l 1
 771 822 l 1
 689 773 l 1
 624 862 l 1
EndSplineSet
EndChar

StartChar: ccircumflex
Encoding: 265 265 255
Width: 455
VWidth: 0
Flags: HMW
LayerCount: 2
Fore
SplineSet
157 230 m 0
 132 163 155 87 235 84 c 0
 300 82 360 119 408 159 c 1
 372 41 l 1
 324 11 270 -9 212 -9 c 0
 78 -8 13 108 51 230 c 0
 92 362 222 468 362 469 c 0
 415 469 458 452 497 418 c 1
 460 299 l 1
 440 349 404 377 349 376 c 0
 266 375 185 306 157 230 c 0
415 620 m 1
 286 531 l 1
 230 587 l 1
 438 723 l 1
 562 580 l 1
 480 531 l 1
 415 620 l 1
EndSplineSet
EndChar

StartChar: Cdotaccent
Encoding: 266 266 256
Width: 650
VWidth: 0
Flags: HMW
LayerCount: 2
Fore
SplineSet
223 350 m 0
 182 238 219 107 355 104 c 0
 446 102 529 150 600 201 c 1
 558 61 l 1
 488 17 411 -13 327 -12 c 0
 126 -10 41 174 98 350 c 0
 160 543 350 711 559 712 c 0
 634 713 696 688 751 637 c 1
 707 497 l 1
 670 561 614 596 538 596 c 0
 398 595 269 477 223 350 c 0
535 841 m 0
 543 872 587 905 619 903 c 0
 653 901 673 869 665 836 c 0
 657 805 614 771 582 773 c 0
 548 775 527 808 535 841 c 0
EndSplineSet
EndChar

StartChar: cdotaccent
Encoding: 267 267 257
Width: 455
VWidth: 0
Flags: HMW
LayerCount: 2
Fore
SplineSet
157 230 m 0
 132 163 155 87 235 84 c 0
 300 82 360 119 408 159 c 1
 372 41 l 1
 324 11 270 -9 212 -9 c 0
 78 -8 13 108 51 230 c 0
 92 362 222 468 362 469 c 0
 415 469 458 452 497 418 c 1
 460 299 l 1
 440 349 404 377 349 376 c 0
 266 375 185 306 157 230 c 0
338 601 m 0
 346 632 390 665 422 663 c 0
 456 661 477 629 469 596 c 0
 461 565 417 532 385 534 c 0
 351 536 330 568 338 601 c 0
EndSplineSet
EndChar

StartChar: Ccaron
Encoding: 268 268 258
Width: 650
VWidth: 0
Flags: HMW
LayerCount: 2
Fore
SplineSet
223 350 m 0
 182 238 219 107 355 104 c 0
 446 102 529 150 600 201 c 1
 558 61 l 1
 488 17 411 -13 327 -12 c 0
 126 -10 41 174 98 350 c 0
 160 543 350 711 559 712 c 0
 634 713 696 688 751 637 c 1
 707 497 l 1
 670 561 614 596 538 596 c 0
 398 595 269 477 223 350 c 0
615 875 m 1
 744 964 l 1
 800 909 l 1
 592 772 l 1
 469 916 l 1
 551 965 l 1
 615 875 l 1
EndSplineSet
EndChar

StartChar: ccaron
Encoding: 269 269 259
Width: 455
VWidth: 0
Flags: HMW
LayerCount: 2
Fore
SplineSet
157 230 m 0
 132 163 155 87 235 84 c 0
 300 82 360 119 408 159 c 1
 372 41 l 1
 324 11 270 -9 212 -9 c 0
 78 -8 13 108 51 230 c 0
 92 362 222 468 362 469 c 0
 415 469 458 452 497 418 c 1
 460 299 l 1
 440 349 404 377 349 376 c 0
 266 375 185 306 157 230 c 0
407 633 m 1
 535 722 l 1
 591 666 l 1
 383 530 l 1
 259 674 l 1
 342 723 l 1
 407 633 l 1
EndSplineSet
EndChar

StartChar: Dcaron
Encoding: 270 270 260
Width: 659
VWidth: 0
Flags: HMW
LayerCount: 2
Fore
SplineSet
255 699 m 1
 375 700 l 1
 133 0 l 1
 18 0 l 1
 255 699 l 1
239 0 m 0
 85 0 l 1
 124 111 l 1
 260 111 l 0
 404 117 526 216 574 350 c 0
 618 471 575 582 437 589 c 1
 286 589 l 1
 325 700 l 1
 463 700 l 0
 661 693 751 532 692 350 c 0
 629 154 447 6 239 0 c 0
566 875 m 1
 694 964 l 1
 751 909 l 1
 543 772 l 1
 419 916 l 1
 500 965 l 1
 566 875 l 1
EndSplineSet
EndChar

StartChar: dcaron
Encoding: 271 271 261
Width: 553
VWidth: 0
Flags: HMW
LayerCount: 2
Fore
SplineSet
600 779 m 1
 708 780 l 1
 439 0 l 1
 335 0 l 1
 600 779 l 1
53 230 m 0
 91 351 208 472 342 470 c 0
 474 468 485 329 453 230 c 0
 417 117 323 -8 193 -9 c 0
 59 -10 18 120 53 230 c 0
162 230 m 0
 139 167 155 86 235 85 c 0
 315 84 388 161 414 230 c 0
 435 290 425 371 348 375 c 0
 266 379 188 302 162 230 c 0
812 778 m 1
 912 745 l 1
 717 501 l 1
 642 523 l 1
 812 778 l 1
EndSplineSet
EndChar

StartChar: Dcroat
Encoding: 272 272 262
Width: 659
VWidth: 0
Flags: HMW
LayerCount: 2
Fore
SplineSet
54 306 m 1
 83 390 l 1
 385 390 l 1
 356 305 l 1
 54 306 l 1
255 699 m 1
 375 700 l 1
 133 0 l 1
 18 0 l 1
 255 699 l 1
239 0 m 0
 85 0 l 1
 124 111 l 1
 260 111 l 0
 404 117 526 216 574 350 c 0
 618 471 575 582 437 589 c 1
 286 589 l 1
 325 700 l 1
 463 700 l 0
 661 693 751 532 692 350 c 0
 629 154 447 6 239 0 c 0
EndSplineSet
EndChar

StartChar: dcroat
Encoding: 273 273 263
Width: 553
VWidth: 0
Flags: HMW
LayerCount: 2
Fore
SplineSet
421 581 m 1
 450 665 l 1
 758 665 l 1
 728 580 l 1
 421 581 l 1
600 779 m 1
 708 780 l 1
 439 0 l 1
 335 0 l 1
 600 779 l 1
53 230 m 0
 91 351 208 472 342 470 c 0
 474 468 485 329 453 230 c 0
 417 117 323 -8 193 -9 c 0
 59 -10 18 120 53 230 c 0
162 230 m 0
 139 167 155 86 235 85 c 0
 315 84 388 161 414 230 c 0
 435 290 425 371 348 375 c 0
 266 379 188 302 162 230 c 0
EndSplineSet
EndChar

StartChar: Emacron
Encoding: 274 274 264
Width: 537
VWidth: 0
Flags: HMW
LayerCount: 2
Fore
SplineSet
87 0 m 1
 122 104 l 1
 459 104 l 1
 423 0 l 1
 87 0 l 1
291 597 m 1
 326 700 l 1
 662 700 l 1
 626 596 l 1
 291 597 l 1
198 325 m 1
 233 426 l 1
 550 426 l 1
 514 324 l 1
 198 325 l 1
255 699 m 1
 370 700 l 1
 129 0 l 1
 18 0 l 1
 255 699 l 1
314 773 m 1
 347 870 l 1
 688 870 l 1
 655 772 l 1
 314 773 l 1
EndSplineSet
EndChar

StartChar: emacron
Encoding: 275 275 265
Width: 506
VWidth: 0
Flags: HMW
LayerCount: 2
Fore
SplineSet
109 206 m 1
 132 279 l 1
 402 280 l 1
 410 333 405 385 341 387 c 0
 263 390 203 321 172 257 c 2
 160 230 l 1
 136 166 141 84 224 80 c 0
 282 77 332 115 374 151 c 1
 456 111 l 1
 387 42 303 -11 203 -9 c 0
 68 -7 19 112 54 230 c 0
 59 247 65 263 73 279 c 0
 125 385 235 470 357 469 c 0
 495 468 535 353 502 235 c 0
 500 225 496 216 493 206 c 1
 109 206 l 1
215 531 m 1
 249 628 l 1
 590 628 l 1
 556 530 l 1
 215 531 l 1
EndSplineSet
EndChar

StartChar: Ebreve
Encoding: 276 276 266
Width: 537
VWidth: 0
Flags: HMW
LayerCount: 2
Fore
SplineSet
87 0 m 1
 122 104 l 1
 459 104 l 1
 423 0 l 1
 87 0 l 1
291 597 m 1
 326 700 l 1
 662 700 l 1
 626 596 l 1
 291 597 l 1
198 325 m 1
 233 426 l 1
 550 426 l 1
 514 324 l 1
 198 325 l 1
255 699 m 1
 370 700 l 1
 129 0 l 1
 18 0 l 1
 255 699 l 1
377 915 m 1
 455 914 l 1
 453 879 458 849 500 847 c 0
 545 845 577 881 601 914 c 1
 684 913 l 1
 647 835 580 773 489 773 c 0
 400 773 366 835 377 915 c 1
EndSplineSet
EndChar

StartChar: ebreve
Encoding: 277 277 267
Width: 506
VWidth: 0
Flags: HMW
LayerCount: 2
Fore
SplineSet
109 206 m 1
 132 279 l 1
 402 280 l 1
 410 333 405 385 341 387 c 0
 263 390 203 321 172 257 c 2
 160 230 l 1
 136 166 141 84 224 80 c 0
 282 77 332 115 374 151 c 1
 456 111 l 1
 387 42 303 -11 203 -9 c 0
 68 -7 19 112 54 230 c 0
 59 247 65 263 73 279 c 0
 125 385 235 470 357 469 c 0
 495 468 535 353 502 235 c 0
 500 225 496 216 493 206 c 1
 109 206 l 1
280 673 m 1
 357 672 l 1
 355 637 361 607 403 605 c 0
 448 603 479 639 503 672 c 1
 586 670 l 1
 549 593 482 531 391 531 c 0
 302 531 269 593 280 673 c 1
EndSplineSet
EndChar

StartChar: Edotaccent
Encoding: 278 278 268
Width: 537
VWidth: 0
Flags: HMW
LayerCount: 2
Fore
SplineSet
87 0 m 1
 122 104 l 1
 459 104 l 1
 423 0 l 1
 87 0 l 1
291 597 m 1
 326 700 l 1
 662 700 l 1
 626 596 l 1
 291 597 l 1
198 325 m 1
 233 426 l 1
 550 426 l 1
 514 324 l 1
 198 325 l 1
255 699 m 1
 370 700 l 1
 129 0 l 1
 18 0 l 1
 255 699 l 1
440 841 m 0
 448 872 491 905 523 903 c 0
 557 901 579 869 571 836 c 0
 563 805 518 771 486 773 c 0
 452 775 432 808 440 841 c 0
EndSplineSet
EndChar

StartChar: edotaccent
Encoding: 279 279 269
Width: 506
VWidth: 0
Flags: HMW
LayerCount: 2
Fore
SplineSet
109 206 m 1
 132 279 l 1
 402 280 l 1
 410 333 405 385 341 387 c 0
 263 390 203 321 172 257 c 2
 160 230 l 1
 136 166 141 84 224 80 c 0
 282 77 332 115 374 151 c 1
 456 111 l 1
 387 42 303 -11 203 -9 c 0
 68 -7 19 112 54 230 c 0
 59 247 65 263 73 279 c 0
 125 385 235 470 357 469 c 0
 495 468 535 353 502 235 c 0
 500 225 496 216 493 206 c 1
 109 206 l 1
342 598 m 0
 350 629 393 663 425 661 c 0
 459 659 481 627 473 594 c 0
 465 563 420 529 388 531 c 0
 354 533 334 565 342 598 c 0
EndSplineSet
EndChar

StartChar: Eogonek
Encoding: 280 280 270
Width: 537
VWidth: 0
Flags: HMW
LayerCount: 2
Fore
SplineSet
87 0 m 1
 122 104 l 1
 459 104 l 1
 423 0 l 1
 87 0 l 1
291 597 m 1
 326 700 l 1
 662 700 l 1
 626 596 l 1
 291 597 l 1
198 325 m 1
 233 426 l 1
 550 426 l 1
 514 324 l 1
 198 325 l 1
255 699 m 1
 370 700 l 1
 129 0 l 1
 18 0 l 1
 255 699 l 1
258 -122 m 1
 272 -183 l 1
 242 -203 212 -218 176 -219 c 0
 117 -220 72 -180 89 -119 c 0
 111 -45 199 -6 262 24 c 1
 299 0 l 1
 260 -23 196 -49 182 -98 c 0
 177 -117 181 -137 203 -141 c 0
 221 -144 243 -130 258 -122 c 1
EndSplineSet
EndChar

StartChar: eogonek
Encoding: 281 281 271
Width: 506
VWidth: 0
Flags: HMW
LayerCount: 2
Fore
SplineSet
109 206 m 1
 132 279 l 1
 402 280 l 1
 410 333 405 385 341 387 c 0
 263 390 203 321 172 257 c 2
 160 230 l 1
 136 166 141 84 224 80 c 0
 282 77 332 115 374 151 c 1
 456 111 l 1
 387 42 303 -11 203 -9 c 0
 68 -7 19 112 54 230 c 0
 59 247 65 263 73 279 c 0
 125 385 235 470 357 469 c 0
 495 468 535 353 502 235 c 0
 500 225 496 216 493 206 c 1
 109 206 l 1
194 -120 m 1
 209 -180 l 1
 179 -200 148 -215 112 -216 c 0
 53 -217 9 -177 26 -116 c 0
 48 -42 135 -3 198 27 c 1
 236 -2 l 1
 196 -21 132 -47 118 -95 c 0
 112 -114 117 -135 139 -139 c 0
 157 -142 179 -128 194 -120 c 1
EndSplineSet
EndChar

StartChar: Ecaron
Encoding: 282 282 272
Width: 537
VWidth: 0
Flags: HMW
LayerCount: 2
Fore
SplineSet
87 0 m 1
 122 104 l 1
 459 104 l 1
 423 0 l 1
 87 0 l 1
291 597 m 1
 326 700 l 1
 662 700 l 1
 626 596 l 1
 291 597 l 1
198 325 m 1
 233 426 l 1
 550 426 l 1
 514 324 l 1
 198 325 l 1
255 699 m 1
 370 700 l 1
 129 0 l 1
 18 0 l 1
 255 699 l 1
512 875 m 1
 640 964 l 1
 696 909 l 1
 488 772 l 1
 365 916 l 1
 446 965 l 1
 512 875 l 1
EndSplineSet
EndChar

StartChar: ecaron
Encoding: 283 283 273
Width: 506
VWidth: 0
Flags: HMW
LayerCount: 2
Fore
SplineSet
109 206 m 1
 132 279 l 1
 402 280 l 1
 410 333 405 385 341 387 c 0
 263 390 203 321 172 257 c 2
 160 230 l 1
 136 166 141 84 224 80 c 0
 282 77 332 115 374 151 c 1
 456 111 l 1
 387 42 303 -11 203 -9 c 0
 68 -7 19 112 54 230 c 0
 59 247 65 263 73 279 c 0
 125 385 235 470 357 469 c 0
 495 468 535 353 502 235 c 0
 500 225 496 216 493 206 c 1
 109 206 l 1
414 633 m 1
 541 722 l 1
 598 666 l 1
 390 530 l 1
 267 674 l 1
 348 723 l 1
 414 633 l 1
EndSplineSet
EndChar

StartChar: Gcircumflex
Encoding: 284 284 274
Width: 743
VWidth: 0
Flags: HMW
LayerCount: 2
Fore
SplineSet
420 266 m 1
 456 366 l 1
 773 365 l 1
 709 172 546 -15 328 -15 c 0
 124 -15 40 172 98 350 c 0
 161 546 353 712 564 712 c 0
 676 713 759 657 803 555 c 1
 694 493 l 1
 670 564 617 602 541 602 c 0
 396 603 267 480 220 350 c 0
 179 236 211 97 353 96 c 0
 471 95 561 179 626 267 c 1
 420 266 l 1
629 862 m 1
 500 773 l 1
 444 829 l 1
 652 965 l 1
 775 822 l 1
 694 773 l 1
 629 862 l 1
EndSplineSet
EndChar

StartChar: gcircumflex
Encoding: 285 285 275
Width: 551
VWidth: 0
Flags: HMW
LayerCount: 2
Fore
SplineSet
-27 -31 m 1
 74 -32 l 1
 68 -93 87 -138 155 -139 c 0
 241 -141 306 -63 336 10 c 1
 492 460 l 1
 596 460 l 1
 442 10 l 2
 395 -119 285 -232 140 -233 c 0
 14 -234 -46 -150 -27 -31 c 1
55 233 m 0
 93 354 209 472 342 470 c 0
 474 468 486 332 454 232 c 0
 418 119 324 -3 194 -4 c 0
 61 -5 20 123 55 233 c 0
163 232 m 0
 140 168 157 91 237 90 c 0
 316 89 390 164 415 233 c 0
 436 293 424 371 348 375 c 0
 266 379 189 304 163 232 c 0
433 620 m 1
 304 531 l 1
 248 587 l 1
 456 723 l 1
 579 580 l 1
 497 531 l 1
 433 620 l 1
EndSplineSet
EndChar

StartChar: Gbreve
Encoding: 286 286 276
Width: 743
VWidth: 0
Flags: HMW
LayerCount: 2
Fore
SplineSet
420 266 m 1
 456 366 l 1
 773 365 l 1
 709 172 546 -15 328 -15 c 0
 124 -15 40 172 98 350 c 0
 161 546 353 712 564 712 c 0
 676 713 759 657 803 555 c 1
 694 493 l 1
 670 564 617 602 541 602 c 0
 396 603 267 480 220 350 c 0
 179 236 211 97 353 96 c 0
 471 95 561 179 626 267 c 1
 420 266 l 1
487 915 m 1
 564 914 l 1
 562 879 568 849 610 847 c 0
 655 845 686 881 710 914 c 1
 792 913 l 1
 755 835 689 773 598 773 c 0
 509 773 476 835 487 915 c 1
EndSplineSet
EndChar

StartChar: gbreve
Encoding: 287 287 277
Width: 551
VWidth: 0
Flags: HMW
LayerCount: 2
Fore
SplineSet
-27 -31 m 1
 74 -32 l 1
 68 -93 87 -138 155 -139 c 0
 241 -141 306 -63 336 10 c 1
 492 460 l 1
 596 460 l 1
 442 10 l 2
 395 -119 285 -232 140 -233 c 0
 14 -234 -46 -150 -27 -31 c 1
55 233 m 0
 93 354 209 472 342 470 c 0
 474 468 486 332 454 232 c 0
 418 119 324 -3 194 -4 c 0
 61 -5 20 123 55 233 c 0
163 232 m 0
 140 168 157 91 237 90 c 0
 316 89 390 164 415 233 c 0
 436 293 424 371 348 375 c 0
 266 379 189 304 163 232 c 0
291 673 m 1
 368 672 l 1
 366 637 372 607 414 605 c 0
 459 603 489 639 513 672 c 1
 596 670 l 1
 559 593 493 531 402 531 c 0
 313 531 280 593 291 673 c 1
EndSplineSet
EndChar

StartChar: Gdotaccent
Encoding: 288 288 278
Width: 743
VWidth: 0
Flags: HMW
LayerCount: 2
Fore
SplineSet
420 266 m 1
 456 366 l 1
 773 365 l 1
 709 172 546 -15 328 -15 c 0
 124 -15 40 172 98 350 c 0
 161 546 353 712 564 712 c 0
 676 713 759 657 803 555 c 1
 694 493 l 1
 670 564 617 602 541 602 c 0
 396 603 267 480 220 350 c 0
 179 236 211 97 353 96 c 0
 471 95 561 179 626 267 c 1
 420 266 l 1
548 841 m 0
 556 872 600 905 632 903 c 0
 666 901 688 869 680 836 c 0
 672 805 628 771 596 773 c 0
 562 775 540 808 548 841 c 0
EndSplineSet
EndChar

StartChar: gdotaccent
Encoding: 289 289 279
Width: 551
VWidth: 0
Flags: HMW
LayerCount: 2
Fore
SplineSet
-27 -31 m 1
 74 -32 l 1
 68 -93 87 -138 155 -139 c 0
 241 -141 306 -63 336 10 c 1
 492 460 l 1
 596 460 l 1
 442 10 l 2
 395 -119 285 -232 140 -233 c 0
 14 -234 -46 -150 -27 -31 c 1
55 233 m 0
 93 354 209 472 342 470 c 0
 474 468 486 332 454 232 c 0
 418 119 324 -3 194 -4 c 0
 61 -5 20 123 55 233 c 0
163 232 m 0
 140 168 157 91 237 90 c 0
 316 89 390 164 415 233 c 0
 436 293 424 371 348 375 c 0
 266 379 189 304 163 232 c 0
370 628 m 0
 378 659 422 693 454 691 c 0
 488 689 508 657 500 624 c 0
 492 593 449 559 417 561 c 0
 383 563 362 595 370 628 c 0
EndSplineSet
EndChar

StartChar: uni0122
Encoding: 290 290 280
Width: 743
VWidth: 0
Flags: HMW
LayerCount: 2
Fore
SplineSet
420 266 m 1
 456 366 l 1
 773 365 l 1
 709 172 546 -15 328 -15 c 0
 124 -15 40 172 98 350 c 0
 161 546 353 712 564 712 c 0
 676 713 759 657 803 555 c 1
 694 493 l 1
 670 564 617 602 541 602 c 0
 396 603 267 480 220 350 c 0
 179 236 211 97 353 96 c 0
 471 95 561 179 626 267 c 1
 420 266 l 1
274 -77 m 1
 375 -110 l 1
 180 -354 l 1
 104 -331 l 1
 274 -77 l 1
EndSplineSet
EndChar

StartChar: Hcircumflex
Encoding: 292 292 281
Width: 698
VWidth: 0
Flags: HMW
LayerCount: 2
Fore
SplineSet
172 322 m 1
 208 430 l 1
 683 430 l 1
 646 321 l 1
 172 322 l 1
697 699 m 1
 816 700 l 1
 573 0 l 1
 460 0 l 1
 697 699 l 1
255 699 m 1
 373 700 l 1
 131 0 l 1
 18 0 l 1
 255 699 l 1
597 862 m 1
 468 773 l 1
 412 829 l 1
 620 965 l 1
 743 822 l 1
 662 773 l 1
 597 862 l 1
EndSplineSet
EndChar

StartChar: hcircumflex
Encoding: 293 293 282
Width: 509
VWidth: 0
Flags: HMW
LayerCount: 2
Fore
SplineSet
383 780 m 1
 114 0 l 1
 8 0 l 1
 276 780 l 1
 383 780 l 1
386 280 m 1
 399 322 404 378 346 382 c 0
 284 386 238 329 210 282 c 1
 176 282 l 1
 215 373 287 472 397 472 c 0
 503 472 517 379 493 295 c 0
 392 0 l 1
 288 0 l 1
 386 280 l 1
426 930 m 1
 297 841 l 1
 241 897 l 1
 449 1032 l 1
 572 889 l 1
 491 840 l 1
 426 930 l 1
EndSplineSet
EndChar

StartChar: Itilde
Encoding: 296 296 283
Width: 258
VWidth: 0
Flags: HMW
LayerCount: 2
Fore
SplineSet
255 699 m 1
 374 700 l 1
 132 0 l 1
 18 0 l 1
 255 699 l 1
187 824 m 1
 217 863 260 910 315 907 c 0
 356 905 379 857 420 860 c 0
 450 862 475 890 496 908 c 1
 535 850 l 1
 503 816 456 773 404 777 c 0
 364 780 341 828 300 824 c 0
 270 821 251 796 234 775 c 1
 187 824 l 1
EndSplineSet
EndChar

StartChar: itilde
Encoding: 297 297 284
Width: 250
VWidth: 0
Flags: HMW
LayerCount: 2
Fore
SplineSet
174 459 m 1
 282 460 l 1
 121 0 l 1
 20 0 l 1
 174 459 l 1
100 582 m 1
 130 621 173 668 228 665 c 0
 269 663 292 615 333 618 c 0
 363 620 388 648 409 666 c 1
 448 608 l 1
 416 574 368 530 316 534 c 0
 276 537 254 586 213 582 c 0
 183 579 164 554 147 533 c 1
 100 582 l 1
EndSplineSet
EndChar

StartChar: Imacron
Encoding: 298 298 285
Width: 258
VWidth: 0
Flags: HMW
LayerCount: 2
Fore
SplineSet
255 699 m 1
 374 700 l 1
 132 0 l 1
 18 0 l 1
 255 699 l 1
170 773 m 1
 203 870 l 1
 545 870 l 1
 511 772 l 1
 170 773 l 1
EndSplineSet
EndChar

StartChar: imacron
Encoding: 299 299 286
Width: 250
VWidth: 0
Flags: HMW
LayerCount: 2
Fore
SplineSet
174 459 m 1
 282 460 l 1
 121 0 l 1
 20 0 l 1
 174 459 l 1
83 531 m 1
 116 628 l 1
 457 628 l 1
 424 530 l 1
 83 531 l 1
EndSplineSet
EndChar

StartChar: Ibreve
Encoding: 300 300 287
Width: 258
VWidth: 0
Flags: HMW
LayerCount: 2
Fore
SplineSet
255 699 m 1
 374 700 l 1
 132 0 l 1
 18 0 l 1
 255 699 l 1
234 915 m 1
 311 914 l 1
 309 879 315 849 357 847 c 0
 402 845 434 881 458 914 c 1
 540 913 l 1
 503 836 437 773 346 773 c 0
 257 773 223 835 234 915 c 1
EndSplineSet
EndChar

StartChar: ibreve
Encoding: 301 301 288
Width: 250
VWidth: 0
Flags: HMW
LayerCount: 2
Fore
SplineSet
174 459 m 1
 282 460 l 1
 121 0 l 1
 20 0 l 1
 174 459 l 1
147 673 m 1
 224 672 l 1
 222 637 227 607 269 605 c 0
 314 603 346 639 370 672 c 1
 452 670 l 1
 415 593 349 531 258 531 c 0
 169 531 136 593 147 673 c 1
EndSplineSet
EndChar

StartChar: Iogonek
Encoding: 302 302 289
Width: 258
VWidth: 0
Flags: HMW
LayerCount: 2
Fore
SplineSet
255 699 m 1
 374 700 l 1
 132 0 l 1
 18 0 l 1
 255 699 l 1
82 -122 m 1
 98 -182 l 1
 68 -202 37 -218 1 -219 c 0
 -58 -220 -103 -179 -86 -118 c 0
 -65 -44 24 -5 87 25 c 1
 124 -0 l 1
 84 -22 20 -48 6 -97 c 0
 0 -116 5 -137 27 -141 c 0
 45 -144 67 -130 82 -122 c 1
EndSplineSet
EndChar

StartChar: iogonek
Encoding: 303 303 290
Width: 250
VWidth: 0
Flags: HMW
LayerCount: 2
Fore
SplineSet
225 645 m 0
 233 676 277 710 309 708 c 0
 343 706 365 674 357 641 c 0
 349 610 304 576 272 578 c 0
 238 580 217 612 225 645 c 0
174 459 m 1
 282 460 l 1
 121 0 l 1
 20 0 l 1
 174 459 l 1
72 -122 m 1
 87 -183 l 1
 57 -203 26 -218 -10 -219 c 0
 -69 -220 -113 -180 -96 -119 c 0
 -74 -45 14 -6 77 24 c 1
 113 0 l 1
 74 -23 10 -49 -4 -98 c 0
 -9 -117 -5 -137 17 -141 c 0
 35 -144 57 -130 72 -122 c 1
EndSplineSet
EndChar

StartChar: Idotaccent
Encoding: 304 304 291
Width: 258
VWidth: 0
Flags: HMW
LayerCount: 2
Fore
SplineSet
255 699 m 1
 374 700 l 1
 132 0 l 1
 18 0 l 1
 255 699 l 1
295 841 m 0
 303 872 348 905 380 903 c 0
 414 901 435 869 427 836 c 0
 419 805 374 771 342 773 c 0
 308 775 287 808 295 841 c 0
EndSplineSet
EndChar

StartChar: uni0136
Encoding: 310 310 292
Width: 581
VWidth: 0
Flags: HMW
LayerCount: 2
Fore
SplineSet
255 699 m 1
 375 700 l 1
 133 0 l 1
 18 0 l 1
 255 699 l 1
610 699 m 1
 757 699 l 1
 359 367 l 1
 523 0 l 1
 393 0 l 1
 226 375 l 1
 610 699 l 1
228 -62 m 1
 329 -95 l 1
 133 -339 l 1
 58 -317 l 1
 228 -62 l 1
EndSplineSet
EndChar

StartChar: uni0137
Encoding: 311 311 293
Width: 464
VWidth: 0
Flags: HMW
LayerCount: 2
Fore
SplineSet
270 779 m 1
 377 780 l 1
 108 0 l 1
 6 0 l 1
 270 779 l 1
417 459 m 1
 555 459 l 1
 294 265 l 1
 406 0 l 1
 289 0 l 1
 171 276 l 1
 417 459 l 1
164 -62 m 1
 265 -95 l 1
 70 -339 l 1
 -6 -317 l 1
 164 -62 l 1
EndSplineSet
EndChar

StartChar: Lacute
Encoding: 313 313 294
Width: 452
VWidth: 0
Flags: HMW
LayerCount: 2
Fore
SplineSet
256 700 m 1
 373 700 l 1
 169 106 l 1
 430 106 l 1
 393 0 l 1
 16 0 l 1
 256 700 l 1
656 917 m 1
 439 774 l 1
 386 811 l 1
 578 966 l 1
 656 917 l 1
EndSplineSet
EndChar

StartChar: lacute
Encoding: 314 314 295
Width: 231
VWidth: 0
Flags: HMW
LayerCount: 2
Fore
SplineSet
274 779 m 1
 383 780 l 1
 113 0 l 1
 10 0 l 1
 274 779 l 1
536 985 m 1
 319 842 l 1
 266 879 l 1
 457 1034 l 1
 536 985 l 1
EndSplineSet
EndChar

StartChar: uni013B
Encoding: 315 315 296
Width: 452
VWidth: 0
Flags: HMW
LayerCount: 2
Fore
SplineSet
256 700 m 1
 373 700 l 1
 169 106 l 1
 430 106 l 1
 393 0 l 1
 16 0 l 1
 256 700 l 1
170 -62 m 1
 271 -95 l 1
 76 -339 l 1
 0 -317 l 1
 170 -62 l 1
EndSplineSet
EndChar

StartChar: uni013C
Encoding: 316 316 297
Width: 231
VWidth: 0
Flags: HMW
LayerCount: 2
Fore
SplineSet
274 779 m 1
 383 780 l 1
 113 0 l 1
 10 0 l 1
 274 779 l 1
27 -62 m 1
 128 -95 l 1
 -68 -339 l 1
 -143 -317 l 1
 27 -62 l 1
EndSplineSet
EndChar

StartChar: Lcaron
Encoding: 317 317 298
Width: 452
VWidth: 0
Flags: HMW
LayerCount: 2
Fore
SplineSet
256 700 m 1
 373 700 l 1
 169 106 l 1
 430 106 l 1
 393 0 l 1
 16 0 l 1
 256 700 l 1
525 710 m 1
 625 678 l 1
 431 434 l 1
 356 456 l 1
 525 710 l 1
EndSplineSet
EndChar

StartChar: lcaron
Encoding: 318 318 299
Width: 231
VWidth: 0
Flags: HMW
LayerCount: 2
Fore
SplineSet
274 779 m 1
 383 780 l 1
 113 0 l 1
 10 0 l 1
 274 779 l 1
504 778 m 1
 605 745 l 1
 410 501 l 1
 334 523 l 1
 504 778 l 1
EndSplineSet
EndChar

StartChar: Ldot
Encoding: 319 319 300
Width: 452
VWidth: 0
Flags: HMW
LayerCount: 2
Fore
SplineSet
256 700 m 1
 373 700 l 1
 169 106 l 1
 430 106 l 1
 393 0 l 1
 16 0 l 1
 256 700 l 1
354 423 m 0
 363 456 406 492 441 490 c 0
 477 488 499 453 490 419 c 0
 481 386 437 350 402 352 c 0
 366 354 345 389 354 423 c 0
EndSplineSet
EndChar

StartChar: ldot
Encoding: 320 320 301
Width: 388
VWidth: 0
Flags: HMW
LayerCount: 2
Fore
SplineSet
274 779 m 1
 383 780 l 1
 113 0 l 1
 10 0 l 1
 274 779 l 1
302 415 m 0
 311 448 355 483 390 481 c 0
 426 479 446 445 437 411 c 0
 428 378 385 341 350 343 c 0
 314 345 293 381 302 415 c 0
EndSplineSet
EndChar

StartChar: eth
Encoding: 240 240 302
Width: 596
VWidth: 0
Flags: HMW
LayerCount: 2
Fore
SplineSet
254 -12 m 0
 132 -12 52 58 52 181 c 0
 52 341 209 463 339 463 c 0
 407 463 448 432 499 369 c 1
 461 370 l 1
 427 503 377 580 254 675 c 1
 328 739 l 1
 513 577 564 465 564 316 c 0
 564 159 449 -12 254 -12 c 0
263 89 m 0
 371 89 443 192 443 275 c 0
 443 346 406 378 350 378 c 0
 266 378 166 289 166 190 c 0
 166 127 205 89 263 89 c 0
268 505 m 1
 250 555 l 1
 558 664 l 1
 576 614 l 1
 268 505 l 1
EndSplineSet
EndChar

StartChar: racute
Encoding: 341 341 303
Width: 348
VWidth: 0
Flags: HMW
LayerCount: 2
Fore
SplineSet
271 460 m 1
 112 0 l 1
 7 0 l 1
 167 460 l 1
 271 460 l 1
364 345 m 1
 350 356 335 368 315 369 c 0
 255 371 224 305 202 260 c 1
 171 282 l 1
 204 360 267 470 365 470 c 0
 397 470 418 454 440 433 c 1
 364 345 l 1
517 675 m 1
 301 531 l 1
 249 569 l 1
 441 724 l 1
 517 675 l 1
EndSplineSet
EndChar

StartChar: rcaron
Encoding: 345 345 304
Width: 348
VWidth: 0
Flags: HMW
LayerCount: 2
Fore
SplineSet
271 460 m 1
 112 0 l 1
 7 0 l 1
 167 460 l 1
 271 460 l 1
364 345 m 1
 350 356 335 368 315 369 c 0
 255 371 224 305 202 260 c 1
 171 282 l 1
 204 360 267 470 365 470 c 0
 397 470 418 454 440 433 c 1
 364 345 l 1
359 633 m 1
 488 722 l 1
 544 667 l 1
 336 530 l 1
 213 674 l 1
 295 723 l 1
 359 633 l 1
EndSplineSet
EndChar

StartChar: Rcaron
Encoding: 344 344 305
Width: 558
VWidth: 0
Flags: HMW
LayerCount: 2
Fore
SplineSet
270 334 m 1
 387 334 l 1
 496 0 l 1
 368 0 l 1
 270 334 l 1
255 699 m 1
 373 700 l 1
 131 0 l 1
 18 0 l 1
 255 699 l 1
287 598 m 1
 323 700 l 1
 454 700 l 0
 579 695 666 610 626 482 c 0
 585 349 454 270 320 265 c 0
 172 265 l 1
 207 363 l 1
 334 363 l 1
 408 368 482 408 508 480 c 0
 532 547 495 591 428 596 c 1
 287 598 l 1
500 875 m 1
 628 964 l 1
 684 909 l 1
 476 772 l 1
 353 916 l 1
 435 965 l 1
 500 875 l 1
EndSplineSet
EndChar

StartChar: uni0213
Encoding: 531 531 306
Width: 348
VWidth: 0
Flags: HMW
LayerCount: 2
Fore
SplineSet
271 460 m 1
 112 0 l 1
 7 0 l 1
 167 460 l 1
 271 460 l 1
364 345 m 1
 350 356 335 368 315 369 c 0
 255 371 224 305 202 260 c 1
 171 282 l 1
 204 360 267 470 365 470 c 0
 397 470 418 454 440 433 c 1
 364 345 l 1
179 530 m 1
 259 531 l 1
 282 565 312 599 357 598 c 0
 402 597 410 568 410 529 c 1
 479 530 l 1
 497 606 475 670 387 672 c 0
 293 674 223 607 179 530 c 1
EndSplineSet
EndChar

StartChar: uni0212
Encoding: 530 530 307
Width: 558
VWidth: 0
Flags: HMW
LayerCount: 2
Fore
SplineSet
270 334 m 1
 387 334 l 1
 496 0 l 1
 368 0 l 1
 270 334 l 1
255 699 m 1
 373 700 l 1
 131 0 l 1
 18 0 l 1
 255 699 l 1
287 598 m 1
 323 700 l 1
 454 700 l 0
 579 695 666 610 626 482 c 0
 585 349 454 270 320 265 c 0
 172 265 l 1
 207 363 l 1
 334 363 l 1
 408 368 482 408 508 480 c 0
 532 547 495 591 428 596 c 1
 287 598 l 1
335 772 m 1
 415 773 l 1
 438 807 468 841 513 840 c 0
 558 839 566 810 566 771 c 1
 635 772 l 1
 653 848 631 912 543 914 c 0
 449 916 379 849 335 772 c 1
EndSplineSet
EndChar

StartChar: OE
Encoding: 338 338 308
Width: 926
VWidth: 0
Flags: HMW
LayerCount: 2
Fore
SplineSet
584 325 m 1
 620 426 l 1
 950 426 l 1
 914 324 l 1
 584 325 l 1
644 669 m 1
 760 670 l 1
 538 30 l 1
 428 31 l 1
 644 669 l 1
855 103 m 1
 822 0 l 1
 321 0 l 0
 125 7 41 174 98 350 c 0
 160 542 339 694 543 700 c 0
 1062 700 l 1
 1024 596 l 1
 692 596 l 1
 674 592 l 1
 535 592 l 0
 389 586 265 485 216 350 c 0
 171 229 215 115 354 108 c 0
 491 108 l 1
 512 104 l 1
 855 103 l 1
EndSplineSet
EndChar

StartChar: oe
Encoding: 339 339 309
Width: 846
VWidth: 0
Flags: HMW
LayerCount: 2
Fore
SplineSet
737 250 m 2
 755 306 759 382 683 386 c 0
 606 390 544 323 514 260 c 2
 501 230 l 1
 478 167 479 82 564 79 c 0
 622 77 673 115 715 151 c 1
 796 111 l 1
 732 48 651 -10 557 -9 c 0
 425 -7 394 123 427 230 c 0
 432 247 438 263 446 279 c 0
 496 380 599 471 717 469 c 0
 847 467 871 336 842 234 c 0
 840 224 835 216 832 206 c 1
 731 231 l 1
 737 250 l 2
469 206 m 1
 492 279 l 1
 836 279 l 1
 831 205 l 1
 469 206 l 1
55 230 m 0
 94 352 211 470 346 469 c 0
 481 468 498 335 465 230 c 0
 427 113 331 -8 198 -9 c 0
 64 -10 19 118 55 230 c 0
160 230 m 0
 137 167 152 87 232 86 c 0
 310 85 377 162 402 230 c 0
 423 287 421 370 344 374 c 0
 262 378 186 302 160 230 c 0
EndSplineSet
EndChar

StartChar: a.alt
Encoding: 65536 -1 310
Width: 553
VWidth: 0
Flags: HMW
LayerCount: 2
Fore
SplineSet
494 459 m 1
 599 460 l 1
 440 0 l 1
 339 0 l 1
 494 459 l 1
53 230 m 0
 91 351 208 472 342 470 c 0
 474 468 484 329 452 230 c 0
 416 117 323 -8 193 -9 c 0
 59 -10 18 120 53 230 c 0
162 230 m 0
 139 167 155 86 235 85 c 0
 315 84 387 161 413 230 c 0
 434 290 425 371 348 375 c 0
 266 379 188 302 162 230 c 0
EndSplineSet
EndChar

StartChar: Jcircumflex
Encoding: 308 308 312
Width: 259
VWidth: 0
Flags: HMW
LayerCount: 2
Fore
SplineSet
-155 -89 m 1
 -138 -108 -121 -125 -93 -123 c 0
 -47 -120 -13 -75 4 -36 c 1
 256 700 l 1
 375 700 l 1
 117 -59 l 2
 81 -156 -5 -229 -112 -227 c 0
 -163 -226 -202 -205 -240 -172 c 1
 -155 -89 l 1
376 862 m 1
 248 773 l 1
 191 829 l 1
 399 965 l 1
 523 822 l 1
 442 773 l 1
 376 862 l 1
EndSplineSet
EndChar

StartChar: jcircumflex
Encoding: 309 309 313
Width: 243
VWidth: 0
Flags: HMW
LayerCount: 2
Fore
SplineSet
-115 -100 m 1
 -106 -112 -98 -126 -80 -126 c 0
 -40 -125 -17 -75 -4 -44 c 1
 169 460 l 1
 274 460 l 1
 95 -66 l 2
 65 -148 -1 -230 -97 -227 c 0
 -136 -226 -162 -207 -188 -180 c 1
 -115 -100 l 1
282 620 m 1
 154 531 l 1
 97 587 l 1
 305 723 l 1
 428 580 l 1
 347 531 l 1
 282 620 l 1
EndSplineSet
EndChar

StartChar: Nacute
Encoding: 323 323 314
Width: 735
VWidth: 0
Flags: HMW
LayerCount: 2
Fore
SplineSet
738 700 m 1
 851 700 l 1
 599 -33 l 1
 292 472 l 1
 130 0 l 1
 16 0 l 1
 267 733 l 1
 575 228 l 1
 738 700 l 1
779 902 m 1
 563 759 l 1
 509 796 l 1
 702 951 l 1
 779 902 l 1
EndSplineSet
EndChar

StartChar: nacute
Encoding: 324 324 315
Width: 511
VWidth: 0
Flags: HMW
LayerCount: 2
Fore
SplineSet
273 460 m 1
 114 0 l 1
 7 0 l 1
 167 460 l 1
 273 460 l 1
386 280 m 1
 399 322 404 378 346 382 c 0
 284 386 238 329 210 282 c 1
 182 280 l 1
 219 370 287 469 396 469 c 0
 502 469 519 377 495 292 c 1
 395 0 l 1
 288 0 l 1
 386 280 l 1
576 675 m 1
 360 531 l 1
 308 569 l 1
 500 724 l 1
 576 675 l 1
EndSplineSet
EndChar

StartChar: uni0145
Encoding: 325 325 316
Width: 735
VWidth: 0
Flags: HMW
LayerCount: 2
Fore
SplineSet
289 -45 m 1
 389 -77 l 1
 194 -321 l 1
 119 -299 l 1
 289 -45 l 1
738 700 m 1
 851 700 l 1
 599 -33 l 1
 292 472 l 1
 130 0 l 1
 16 0 l 1
 267 733 l 1
 575 228 l 1
 738 700 l 1
EndSplineSet
EndChar

StartChar: uni0146
Encoding: 326 326 317
Width: 511
VWidth: 0
Flags: HMW
LayerCount: 2
Fore
SplineSet
273 460 m 1
 114 0 l 1
 7 0 l 1
 167 460 l 1
 273 460 l 1
386 280 m 1
 399 322 404 378 346 382 c 0
 284 386 238 329 210 282 c 1
 175 280 l 1
 214 371 286 469 396 469 c 0
 502 469 519 377 495 292 c 1
 395 0 l 1
 288 0 l 1
 386 280 l 1
167 -62 m 1
 268 -95 l 1
 73 -339 l 1
 -3 -317 l 1
 167 -62 l 1
EndSplineSet
EndChar

StartChar: Ncaron
Encoding: 327 327 318
Width: 735
VWidth: 0
Flags: HMW
LayerCount: 2
Fore
SplineSet
610 890 m 1
 739 979 l 1
 795 924 l 1
 587 787 l 1
 463 931 l 1
 545 980 l 1
 610 890 l 1
738 700 m 1
 851 700 l 1
 599 -33 l 1
 292 472 l 1
 130 0 l 1
 16 0 l 1
 267 733 l 1
 575 228 l 1
 738 700 l 1
EndSplineSet
EndChar

StartChar: ncaron
Encoding: 328 328 319
Width: 511
VWidth: 0
Flags: HMW
LayerCount: 2
Fore
SplineSet
273 460 m 1
 114 0 l 1
 7 0 l 1
 167 460 l 1
 273 460 l 1
386 280 m 1
 399 322 404 378 346 382 c 0
 284 386 238 329 210 282 c 1
 175 280 l 1
 214 371 286 469 396 469 c 0
 502 469 519 377 495 292 c 1
 395 0 l 1
 288 0 l 1
 386 280 l 1
411 633 m 1
 540 722 l 1
 596 666 l 1
 388 530 l 1
 265 674 l 1
 346 723 l 1
 411 633 l 1
EndSplineSet
EndChar

StartChar: Omacron
Encoding: 332 332 320
Width: 754
VWidth: 0
Flags: HMW
LayerCount: 2
Fore
SplineSet
221 350 m 0
 181 239 211 104 350 102 c 0
 493 100 619 224 665 350 c 0
 705 462 674 596 535 598 c 0
 392 600 267 476 221 350 c 0
98 350 m 0
 160 542 351 713 559 712 c 0
 761 711 843 527 787 350 c 0
 725 157 535 -16 326 -15 c 0
 123 -14 42 173 98 350 c 0
418 773 m 1
 451 870 l 1
 792 870 l 1
 758 772 l 1
 418 773 l 1
EndSplineSet
EndChar

StartChar: omacron
Encoding: 333 333 321
Width: 529
VWidth: 0
Flags: HMW
LayerCount: 2
Fore
SplineSet
53 230 m 0
 93 359 225 469 364 469 c 0
 498 469 563 352 525 230 c 0
 485 101 353 -9 215 -9 c 0
 81 -9 15 108 53 230 c 0
161 230 m 0
 138 167 154 87 233 86 c 0
 314 85 392 158 418 230 c 0
 441 293 424 373 345 374 c 0
 264 375 187 302 161 230 c 0
223 531 m 1
 256 628 l 1
 597 628 l 1
 563 530 l 1
 223 531 l 1
EndSplineSet
EndChar

StartChar: Obreve
Encoding: 334 334 322
Width: 754
VWidth: 0
Flags: HMW
LayerCount: 2
Fore
SplineSet
221 350 m 0
 181 239 211 104 350 102 c 0
 493 100 619 224 665 350 c 0
 705 462 674 596 535 598 c 0
 392 600 267 476 221 350 c 0
98 350 m 0
 160 542 351 713 559 712 c 0
 761 711 843 527 787 350 c 0
 725 157 535 -16 326 -15 c 0
 123 -14 42 173 98 350 c 0
482 915 m 1
 559 914 l 1
 557 879 563 849 605 847 c 0
 650 845 682 881 706 914 c 1
 788 913 l 1
 751 836 684 773 593 773 c 0
 504 773 471 835 482 915 c 1
EndSplineSet
EndChar

StartChar: obreve
Encoding: 335 335 323
Width: 529
VWidth: 0
Flags: HMW
LayerCount: 2
Fore
SplineSet
53 230 m 0
 93 359 225 469 364 469 c 0
 498 469 563 352 525 230 c 0
 485 101 353 -9 215 -9 c 0
 81 -9 15 108 53 230 c 0
161 230 m 0
 138 167 154 87 233 86 c 0
 314 85 392 158 418 230 c 0
 441 293 424 373 345 374 c 0
 264 375 187 302 161 230 c 0
287 673 m 1
 364 672 l 1
 362 637 368 607 410 605 c 0
 455 603 486 639 510 672 c 1
 592 670 l 1
 555 593 490 531 399 531 c 0
 310 531 276 593 287 673 c 1
EndSplineSet
EndChar

StartChar: Racute
Encoding: 340 340 324
Width: 558
VWidth: 0
Flags: HMW
LayerCount: 2
Fore
SplineSet
270 334 m 1
 387 334 l 1
 496 0 l 1
 368 0 l 1
 270 334 l 1
255 699 m 1
 373 700 l 1
 131 0 l 1
 18 0 l 1
 255 699 l 1
287 598 m 1
 323 700 l 1
 454 700 l 0
 579 695 666 610 626 482 c 0
 585 349 454 270 320 265 c 0
 172 265 l 1
 207 363 l 1
 334 363 l 1
 408 368 482 408 508 480 c 0
 532 547 495 591 428 596 c 1
 287 598 l 1
668 917 m 1
 451 774 l 1
 397 811 l 1
 590 966 l 1
 668 917 l 1
EndSplineSet
EndChar

StartChar: uni0156
Encoding: 342 342 325
Width: 558
VWidth: 0
Flags: HMW
LayerCount: 2
Fore
SplineSet
270 334 m 1
 387 334 l 1
 496 0 l 1
 368 0 l 1
 270 334 l 1
255 699 m 1
 373 700 l 1
 131 0 l 1
 18 0 l 1
 255 699 l 1
287 598 m 1
 323 700 l 1
 454 700 l 0
 579 695 666 610 626 482 c 0
 585 349 454 270 320 265 c 0
 172 265 l 1
 207 363 l 1
 334 363 l 1
 408 368 482 408 508 480 c 0
 532 547 495 591 428 596 c 1
 287 598 l 1
223 -62 m 1
 324 -95 l 1
 130 -339 l 1
 54 -317 l 1
 223 -62 l 1
EndSplineSet
EndChar

StartChar: uni0157
Encoding: 343 343 326
Width: 348
VWidth: 0
Flags: HMW
LayerCount: 2
Fore
SplineSet
271 460 m 1
 112 0 l 1
 7 0 l 1
 167 460 l 1
 271 460 l 1
364 345 m 1
 350 356 335 368 315 369 c 0
 255 371 224 305 202 260 c 1
 171 282 l 1
 204 360 267 470 365 470 c 0
 397 470 418 454 440 433 c 1
 364 345 l 1
26 -62 m 1
 127 -95 l 1
 -68 -339 l 1
 -143 -317 l 1
 26 -62 l 1
EndSplineSet
EndChar

StartChar: Scedilla
Encoding: 350 350 327
Width: 544
VWidth: 0
Flags: HMW
LayerCount: 2
Fore
SplineSet
143 236 m 1
 154 169 176 94 258 93 c 0
 317 92 376 131 397 187 c 0
 425 260 358 297 303 324 c 0
 219 364 164 428 194 526 c 0
 229 638 345 712 460 712 c 0
 559 712 615 650 635 559 c 1
 532 505 l 1
 518 556 494 605 433 606 c 0
 383 607 328 570 311 522 c 0
 287 455 369 426 415 403 c 0
 500 361 547 286 518 191 c 0
 481 69 358 -14 232 -14 c 0
 116 -14 56 73 40 179 c 1
 143 236 l 1
241 58 m 1
 324 57 l 1
 211 -58 l 1
 216 -57 221 -57 226 -57 c 0
 269 -63 291 -100 279 -142 c 0
 263 -199 196 -238 140 -239 c 0
 100 -240 71 -221 41 -198 c 1
 92 -151 l 1
 108 -162 124 -175 145 -175 c 0
 165 -175 206 -156 211 -134 c 0
 216 -113 192 -103 176 -102 c 0
 152 -100 125 -110 102 -117 c 1
 241 58 l 1
EndSplineSet
EndChar

StartChar: scedilla
Encoding: 351 351 328
Width: 399
VWidth: 0
Flags: HMW
LayerCount: 2
Fore
SplineSet
79 167 m 1
 98 127 125 78 177 78 c 0
 206 77 247 96 258 126 c 0
 273 169 226 189 195 205 c 0
 137 234 89 274 111 345 c 0
 135 423 221 470 299 470 c 0
 366 470 413 438 447 387 c 1
 373 327 l 1
 353 356 328 384 289 384 c 0
 262 385 221 371 211 343 c 0
 195 300 260 284 287 271 c 0
 344 244 384 196 365 130 c 0
 341 43 255 -12 167 -12 c 0
 83 -12 32 41 1 107 c 1
 79 167 l 1
174 60 m 1
 258 58 l 1
 145 -56 l 1
 149 -55 154 -55 158 -55 c 0
 202 -61 225 -97 214 -140 c 0
 199 -198 129 -237 73 -237 c 0
 34 -237 6 -219 -24 -196 c 1
 24 -149 l 1
 40 -160 57 -172 78 -172 c 0
 98 -172 139 -155 144 -133 c 0
 149 -112 124 -101 108 -100 c 0
 84 -98 59 -108 36 -115 c 1
 174 60 l 1
EndSplineSet
EndChar

StartChar: Zcaron
Encoding: 381 381 329
Width: 540
VWidth: 0
Flags: HMW
LayerCount: 2
Fore
SplineSet
186 591 m 1
 225 700 l 1
 715 699 l 1
 180 107 l 1
 485 106 l 1
 447 0 l 1
 -49 0 l 1
 485 590 l 1
 186 591 l 1
521 875 m 1
 649 964 l 1
 706 909 l 1
 498 772 l 1
 374 916 l 1
 456 965 l 1
 521 875 l 1
EndSplineSet
EndChar

StartChar: zcaron
Encoding: 382 382 330
Width: 453
VWidth: 0
Flags: HMW
LayerCount: 2
Fore
SplineSet
400 633 m 1
 529 722 l 1
 585 666 l 1
 377 530 l 1
 253 673 l 1
 335 722 l 1
 400 633 l 1
329 359 m 1
 113 360 l 1
 148 460 l 1
 551 459 l 1
 180 101 l 1
 402 100 l 1
 366 0 l 1
 -46 0 l 1
 329 359 l 1
EndSplineSet
EndChar

StartChar: Ydieresis
Encoding: 376 376 331
Width: 564
VWidth: 0
Flags: HMW
LayerCount: 2
Fore
SplineSet
341 845 m 0
 349 876 393 909 425 907 c 0
 459 905 480 873 472 840 c 0
 464 809 420 776 388 778 c 0
 353 780 333 812 341 845 c 0
560 845 m 0
 568 876 611 909 643 907 c 0
 677 905 699 873 691 840 c 0
 683 809 638 776 606 778 c 0
 571 780 552 812 560 845 c 0
616 699 m 1
 754 699 l 1
 386 289 l 1
 286 0 l 1
 169 0 l 1
 274 301 l 1
 189 700 l 1
 313 700 l 1
 362 405 l 1
 616 699 l 1
EndSplineSet
EndChar

StartChar: Scaron
Encoding: 352 352 332
Width: 544
VWidth: 0
Flags: HMW
LayerCount: 2
Fore
SplineSet
143 236 m 1
 154 169 176 94 258 93 c 0
 317 92 376 131 397 187 c 0
 425 260 358 296 303 324 c 0
 221 365 166 435 195 530 c 0
 229 640 348 713 460 712 c 0
 557 711 617 650 635 559 c 1
 532 504 l 1
 519 554 501 604 441 606 c 0
 389 607 329 572 311 522 c 0
 286 456 369 426 415 403 c 0
 500 361 547 286 518 191 c 0
 481 67 360 -15 232 -14 c 0
 116 -13 56 73 40 179 c 1
 143 236 l 1
516 875 m 1
 644 964 l 1
 701 909 l 1
 492 772 l 1
 370 916 l 1
 451 965 l 1
 516 875 l 1
EndSplineSet
EndChar

StartChar: scaron
Encoding: 353 353 333
Width: 399
VWidth: 0
Flags: HMW
LayerCount: 2
Fore
SplineSet
81 165 m 1
 94 120 118 79 174 79 c 0
 205 78 246 94 257 126 c 0
 272 168 216 191 186 207 c 0
 133 236 87 279 107 345 c 0
 131 423 222 468 299 469 c 0
 366 470 417 439 447 386 c 1
 373 326 l 1
 351 355 325 379 285 379 c 0
 259 379 215 365 207 337 c 0
 195 298 262 280 287 267 c 0
 341 240 382 193 365 129 c 0
 341 39 249 -14 160 -13 c 0
 76 -13 23 35 1 105 c 1
 81 165 l 1
353 628 m 1
 481 717 l 1
 538 661 l 1
 329 525 l 1
 206 668 l 1
 288 717 l 1
 353 628 l 1
EndSplineSet
EndChar

StartChar: Lslash
Encoding: 321 321 334
Width: 454
VWidth: 0
Flags: HMW
LayerCount: 2
Fore
SplineSet
65 328 m 1
 58 394 l 1
 413 590 l 1
 422 525 l 1
 65 328 l 1
256 700 m 1
 373 700 l 1
 169 106 l 1
 430 106 l 1
 393 0 l 1
 16 0 l 1
 256 700 l 1
EndSplineSet
EndChar

StartChar: lslash
Encoding: 322 322 335
Width: 231
VWidth: 0
Flags: HMW
LayerCount: 2
Fore
SplineSet
61 328 m 1
 53 394 l 1
 378 568 l 1
 386 503 l 1
 61 328 l 1
274 779 m 1
 383 780 l 1
 113 0 l 1
 10 0 l 1
 274 779 l 1
EndSplineSet
EndChar

StartChar: uni0218
Encoding: 536 536 336
Width: 544
VWidth: 0
Flags: HMW
LayerCount: 2
Fore
SplineSet
143 236 m 1
 154 169 176 94 258 93 c 0
 317 92 376 131 397 187 c 0
 425 260 358 296 303 324 c 0
 221 365 166 435 195 530 c 0
 229 640 348 713 460 712 c 0
 557 711 617 650 635 559 c 1
 532 504 l 1
 519 554 501 604 441 606 c 0
 389 607 329 572 311 522 c 0
 286 456 369 426 415 403 c 0
 500 361 547 286 518 191 c 0
 481 67 360 -15 232 -14 c 0
 116 -13 56 73 40 179 c 1
 143 236 l 1
182 -72 m 1
 283 -105 l 1
 88 -349 l 1
 12 -327 l 1
 182 -72 l 1
EndSplineSet
EndChar

StartChar: uni0219
Encoding: 537 537 337
Width: 399
VWidth: 0
Flags: HMW
LayerCount: 2
Fore
SplineSet
81 165 m 1
 94 120 117 79 173 79 c 0
 204 78 246 94 257 126 c 0
 272 168 216 191 186 207 c 0
 133 236 87 279 107 345 c 0
 131 423 222 468 299 469 c 0
 366 470 417 439 447 386 c 1
 373 326 l 1
 351 355 325 379 285 379 c 0
 259 379 215 365 207 337 c 0
 195 298 262 280 287 267 c 0
 341 240 382 193 365 129 c 0
 341 39 249 -14 160 -13 c 0
 76 -13 23 35 1 105 c 1
 81 165 l 1
111 -71 m 1
 211 -104 l 1
 16 -348 l 1
 -59 -325 l 1
 111 -71 l 1
EndSplineSet
EndChar

StartChar: pi
Encoding: 960 960 338
Width: 531
VWidth: 0
Flags: HMW
LayerCount: 2
Fore
SplineSet
174 429 m 1
 280 430 l 1
 129 0 l 1
 30 0 l 1
 174 429 l 1
130 460 m 1
 600 460 l 1
 566 365 l 1
 96 365 l 1
 130 460 l 1
412 430 m 1
 515 430 l 1
 418 156 l 1
 407 117 408 101 445 86 c 1
 414 -8 l 1
 328 -1 281 28 306 121 c 1
 412 430 l 1
EndSplineSet
EndChar

StartChar: trademark
Encoding: 8482 8482 339
Width: 655
VWidth: 0
Flags: HMW
LayerCount: 2
Fore
SplineSet
194 646 m 1
 212 699 l 1
 445 699 l 1
 428 646 l 1
 340 646 l 1
 239 351 l 1
 179 351 l 1
 279 646 l 1
 194 646 l 1
692 601 m 1
 780 729 l 1
 693 350 l 1
 634 351 l 1
 692 601 l 1
502 717 m 1
 501 590 l 1
 392 351 l 1
 330 352 l 1
 502 717 l 1
783 729 m 1
 741 614 l 1
 526 380 l 1
 469 628 l 1
 502 717 l 1
 553 483 l 1
 783 729 l 1
EndSplineSet
EndChar

StartChar: uni2219
Encoding: 8729 8729 340
Width: 290
VWidth: 0
Flags: HMW
LayerCount: 2
Fore
SplineSet
169 428 m 0
 178 461 222 497 257 495 c 0
 293 493 314 458 305 424 c 0
 296 391 252 355 217 357 c 0
 181 359 160 394 169 428 c 0
EndSplineSet
EndChar

StartChar: agrave.alt
Encoding: 65537 -1 341
Width: 553
VWidth: 0
Flags: HMW
LayerCount: 2
Fore
SplineSet
494 459 m 1
 599 460 l 1
 440 0 l 1
 339 0 l 1
 494 459 l 1
53 230 m 0
 91 351 208 472 342 470 c 0
 474 468 484 329 452 230 c 0
 416 117 323 -8 193 -9 c 0
 59 -10 18 120 53 230 c 0
162 230 m 0
 139 167 155 86 235 85 c 0
 315 84 387 161 413 230 c 0
 434 290 425 371 348 375 c 0
 266 379 188 302 162 230 c 0
291 683 m 1
 388 726 l 1
 479 562 l 1
 415 530 l 1
 291 683 l 1
EndSplineSet
EndChar

StartChar: aacute.alt
Encoding: 65538 -1 342
Width: 553
VWidth: 0
Flags: HMW
LayerCount: 2
Fore
SplineSet
494 459 m 1
 599 460 l 1
 440 1 l 1
 339 0 l 1
 494 459 l 1
53 230 m 0
 91 351 208 472 342 470 c 0
 474 468 484 329 452 230 c 0
 416 117 323 -8 193 -9 c 0
 59 -10 18 120 53 230 c 0
162 230 m 0
 139 167 155 86 235 85 c 0
 315 84 387 161 413 230 c 0
 434 290 425 371 348 375 c 0
 266 379 188 302 162 230 c 0
571 675 m 1
 354 532 l 1
 301 569 l 1
 493 724 l 1
 571 675 l 1
EndSplineSet
EndChar

StartChar: acircumflex.alt
Encoding: 65539 -1 343
Width: 553
VWidth: 0
Flags: HMW
LayerCount: 2
Fore
SplineSet
494 459 m 1
 599 460 l 1
 440 0 l 1
 339 0 l 1
 494 459 l 1
53 230 m 0
 91 351 208 472 342 470 c 0
 474 468 484 329 452 230 c 0
 416 117 323 -8 193 -9 c 0
 59 -10 18 120 53 230 c 0
162 230 m 0
 139 167 155 86 235 85 c 0
 315 84 387 161 413 230 c 0
 434 290 425 371 348 375 c 0
 266 379 188 302 162 230 c 0
442 620 m 1
 313 531 l 1
 256 587 l 1
 465 723 l 1
 589 580 l 1
 507 531 l 1
 442 620 l 1
EndSplineSet
EndChar

StartChar: atilde.alt
Encoding: 65540 -1 344
Width: 553
VWidth: 0
Flags: HMW
LayerCount: 2
Fore
SplineSet
494 459 m 1
 599 460 l 1
 440 0 l 1
 339 0 l 1
 494 459 l 1
53 230 m 0
 91 351 208 472 342 470 c 0
 474 468 484 329 452 230 c 0
 416 117 323 -8 193 -9 c 0
 59 -10 18 120 53 230 c 0
162 230 m 0
 139 167 155 86 235 85 c 0
 315 84 387 161 413 230 c 0
 434 290 425 371 348 375 c 0
 266 379 188 302 162 230 c 0
255 582 m 1
 286 625 330 665 383 665 c 0
 424 665 446 615 488 618 c 0
 518 620 543 648 564 666 c 1
 604 608 l 1
 572 574 524 530 472 534 c 0
 432 537 409 586 368 582 c 0
 338 579 319 554 302 533 c 1
 255 582 l 1
EndSplineSet
EndChar

StartChar: adieresis.alt
Encoding: 65541 -1 345
Width: 553
VWidth: 0
Flags: HMW
LayerCount: 2
Fore
SplineSet
494 459 m 1
 599 460 l 1
 440 0 l 1
 339 0 l 1
 494 459 l 1
53 230 m 0
 91 351 208 472 342 470 c 0
 474 468 484 329 452 230 c 0
 416 117 323 -8 193 -9 c 0
 59 -10 18 120 53 230 c 0
162 230 m 0
 139 167 155 86 235 85 c 0
 315 84 387 161 413 230 c 0
 434 290 425 371 348 375 c 0
 266 379 188 302 162 230 c 0
461 598 m 0
 469 629 514 663 546 661 c 0
 580 659 601 627 593 594 c 0
 585 563 541 529 509 531 c 0
 475 533 453 565 461 598 c 0
257 598 m 0
 265 629 309 663 341 661 c 0
 375 659 396 627 388 594 c 0
 380 563 336 529 304 531 c 0
 270 533 249 565 257 598 c 0
EndSplineSet
EndChar

StartChar: aring.alt
Encoding: 65542 -1 346
Width: 553
VWidth: 0
Flags: HMW
LayerCount: 2
Fore
SplineSet
494 459 m 1
 599 460 l 1
 440 0 l 1
 339 0 l 1
 494 459 l 1
53 230 m 0
 91 351 208 472 342 470 c 0
 474 468 484 329 452 230 c 0
 416 117 323 -8 193 -9 c 0
 59 -10 18 120 53 230 c 0
162 230 m 0
 139 167 155 86 235 85 c 0
 315 84 387 161 413 230 c 0
 434 290 425 371 348 375 c 0
 266 379 188 302 162 230 c 0
293 637 m 0
 309 692 371 742 429 741 c 0
 487 740 522 689 506 634 c 0
 490 579 426 529 368 530 c 0
 310 531 277 583 293 637 c 0
352 634 m 0
 346 615 355 586 377 586 c 0
 401 586 440 616 446 637 c 0
 452 656 442 685 420 685 c 0
 396 685 358 655 352 634 c 0
EndSplineSet
EndChar

StartChar: amacron.alt
Encoding: 65543 -1 347
Width: 553
VWidth: 0
Flags: HMW
LayerCount: 2
Fore
SplineSet
494 459 m 1
 599 460 l 1
 440 0 l 1
 339 0 l 1
 494 459 l 1
53 230 m 0
 91 351 208 472 342 470 c 0
 474 468 484 329 452 230 c 0
 416 117 323 -8 193 -9 c 0
 59 -10 18 120 53 230 c 0
162 230 m 0
 139 167 155 86 235 85 c 0
 315 84 387 161 413 230 c 0
 434 290 425 371 348 375 c 0
 266 379 188 302 162 230 c 0
229 546 m 1
 261 643 l 1
 603 643 l 1
 569 545 l 1
 229 546 l 1
EndSplineSet
EndChar

StartChar: abreve.alt
Encoding: 65544 -1 348
Width: 553
VWidth: 0
Flags: HMW
LayerCount: 2
Fore
SplineSet
494 459 m 1
 599 460 l 1
 440 0 l 1
 339 0 l 1
 494 459 l 1
53 230 m 0
 91 351 208 472 342 470 c 0
 474 468 484 329 452 230 c 0
 416 117 323 -8 193 -9 c 0
 59 -10 18 120 53 230 c 0
162 230 m 0
 139 167 155 86 235 85 c 0
 315 84 387 161 413 230 c 0
 434 290 425 371 348 375 c 0
 266 379 188 302 162 230 c 0
253 672 m 1
 330 671 l 1
 329 636 336 606 378 604 c 0
 423 602 453 637 476 671 c 1
 558 670 l 1
 523 592 459 530 368 530 c 0
 280 530 244 591 253 672 c 1
EndSplineSet
EndChar

StartChar: aogonek.alt
Encoding: 65545 -1 349
Width: 553
VWidth: 0
Flags: HMW
LayerCount: 2
Fore
SplineSet
494 459 m 1
 599 460 l 1
 440 1 l 1
 339 0 l 1
 494 459 l 1
53 230 m 0
 91 351 208 472 342 470 c 0
 474 468 484 329 452 230 c 0
 416 117 323 -8 193 -9 c 0
 59 -10 18 120 53 230 c 0
162 230 m 0
 139 167 155 86 235 85 c 0
 315 84 387 161 413 230 c 0
 434 290 425 371 348 375 c 0
 266 379 188 302 162 230 c 0
388 -122 m 1
 402 -183 l 1
 372 -203 341 -218 305 -219 c 0
 246 -220 202 -180 219 -119 c 0
 241 -45 329 -6 392 24 c 1
 428 0 l 1
 389 -23 325 -49 311 -98 c 0
 306 -117 310 -137 332 -141 c 0
 350 -144 373 -130 388 -122 c 1
EndSplineSet
EndChar

StartChar: dagger
Encoding: 8224 8224 350
Width: 559
VWidth: 0
Flags: HMW
LayerCount: 2
Fore
SplineSet
216 540 m 1
 610 540 l 1
 579 445 l 1
 185 445 l 1
 216 540 l 1
409 700 m 1
 514 700 l 1
 249 -150 l 1
 150 -149 l 1
 409 700 l 1
EndSplineSet
EndChar

StartChar: daggerdbl
Encoding: 8225 8225 351
Width: 559
VWidth: 0
Flags: HMW
LayerCount: 2
Fore
SplineSet
90 135 m 1
 485 135 l 1
 454 40 l 1
 60 40 l 1
 90 135 l 1
216 540 m 1
 610 540 l 1
 579 445 l 1
 185 445 l 1
 216 540 l 1
409 700 m 1
 514 700 l 1
 249 -150 l 1
 150 -149 l 1
 409 700 l 1
EndSplineSet
EndChar

StartChar: ellipsis
Encoding: 8230 8230 352
Width: 855
VWidth: 0
Flags: HMW
LayerCount: 2
Fore
SplineSet
41 53 m 0
 50 86 94 122 129 120 c 0
 165 118 186 83 177 49 c 0
 168 16 124 -20 89 -18 c 0
 53 -16 32 19 41 53 c 0
323 53 m 0
 332 86 376 122 411 120 c 0
 447 118 468 83 459 49 c 0
 450 16 406 -20 371 -18 c 0
 335 -16 314 19 323 53 c 0
605 53 m 0
 614 86 658 122 693 120 c 0
 729 118 750 83 741 49 c 0
 732 16 688 -20 653 -18 c 0
 617 -16 596 19 605 53 c 0
EndSplineSet
EndChar

StartChar: uniFF10
Encoding: 65296 65296 353
Width: 563
VWidth: 0
Flags: HMW
LayerCount: 2
Fore
SplineSet
202 350 m 0
 177 279 129 99 253 96 c 0
 377 93 458 252 493 350 c 0
 518 421 566 601 442 604 c 0
 318 607 237 448 202 350 c 0
89 350 m 0
 142 510 273 712 463 711 c 0
 657 710 649 485 606 350 c 0
 553 189 422 -12 231 -11 c 0
 38 -10 46 216 89 350 c 0
EndSplineSet
EndChar

StartChar: uniFF11
Encoding: 65297 65297 354
Width: 563
VWidth: 0
Flags: HMW
LayerCount: 2
Fore
SplineSet
230 535 m 1
 272 650 l 1
 560 713 l 1
 315 0 l 1
 201 0 l 1
 400 578 l 1
 230 535 l 1
EndSplineSet
EndChar

StartChar: uniFF12
Encoding: 65298 65298 355
Width: 563
VWidth: 0
Flags: HMW
LayerCount: 2
Fore
SplineSet
-38 0 m 1
 379 341 l 2
 430 382 492 431 514 496 c 0
 532 549 512 602 451 605 c 0
 362 609 302 523 268 453 c 1
 155 454 l 1
 207 588 319 714 475 712 c 0
 597 711 665 609 629 494 c 0
 604 416 542 354 479 305 c 2
 225 111 l 1
 508 110 l 1
 471 0 l 1
 -38 0 l 1
EndSplineSet
EndChar

StartChar: uniFF13
Encoding: 65299 65299 356
Width: 563
VWidth: 0
Flags: HMW
LayerCount: 2
Fore
SplineSet
318 344 m 1
 337 406 l 1
 404 417 481 445 506 516 c 0
 521 561 508 608 455 610 c 0
 393 612 349 562 319 514 c 1
 209 516 l 1
 255 624 351 712 474 711 c 0
 580 710 655 626 622 521 c 0
 582 392 438 351 318 344 c 1
237 -12 m 0
 109 -12 48 80 71 200 c 1
 184 199 l 1
 176 140 192 93 260 91 c 0
 326 90 392 139 415 201 c 0
 445 283 375 309 308 317 c 1
 329 384 l 1
 445 377 569 326 526 186 c 0
 488 65 360 -12 237 -12 c 0
EndSplineSet
EndChar

StartChar: uniFF14
Encoding: 65300 65300 357
Width: 563
VWidth: 0
Flags: HMW
LayerCount: 2
Fore
SplineSet
-1 135 m 1
 124 226 l 1
 398 228 l 1
 417 236 l 1
 571 236 l 1
 535 134 l 1
 -1 135 l 1
128 155 m 1
 -3 132 l 1
 556 698 l 1
 628 699 l 1
 389 0 l 1
 270 0 l 1
 329 170 l 1
 340 181 l 1
 443 475 l 1
 128 155 l 1
EndSplineSet
EndChar

StartChar: uniFF15
Encoding: 65301 65301 358
Width: 563
VWidth: 0
Flags: HMW
LayerCount: 2
Fore
SplineSet
549 227 m 0
 506 90 371 -11 227 -11 c 0
 128 -11 59 38 15 115 c 1
 105 197 l 1
 130 143 170 100 236 99 c 0
 319 98 402 157 429 235 c 0
 453 304 417 365 342 369 c 0
 272 373 206 344 143 318 c 1
 233 388 l 1
 286 429 352 461 420 460 c 0
 547 458 582 332 549 227 c 0
417 596 m 1
 294 399 l 1
 130 307 l 1
 359 699 l 1
 704 700 l 1
 669 597 l 1
 417 596 l 1
EndSplineSet
EndChar

StartChar: uniFF16
Encoding: 65302 65302 359
Width: 563
VWidth: 0
Flags: HMW
LayerCount: 2
Fore
SplineSet
176 236 m 0
 152 171 172 93 252 92 c 0
 335 91 413 162 440 236 c 0
 464 301 446 381 365 382 c 0
 282 383 203 310 176 236 c 0
484 698 m 1
 637 698 l 1
 332 426 l 1
 310 426 l 1
 345 447 381 463 423 462 c 0
 545 460 583 336 552 235 c 0
 510 98 376 -12 231 -12 c 0
 90 -12 25 109 65 236 c 0
 85 299 126 355 173 401 c 2
 484 698 l 1
EndSplineSet
EndChar

StartChar: uniFF17
Encoding: 65303 65303 360
Width: 563
VWidth: 0
Flags: HMW
LayerCount: 2
Fore
SplineSet
192 589 m 1
 230 700 l 1
 729 699 l 1
 172 0 l 1
 43 0 l 1
 515 588 l 1
 192 589 l 1
EndSplineSet
EndChar

StartChar: uniFF18
Encoding: 65304 65304 361
Width: 563
VWidth: 0
Flags: HMW
LayerCount: 2
Fore
SplineSet
214 532 m 0
 247 637 361 713 469 712 c 0
 571 711 644 632 614 530 c 0
 582 423 469 351 360 351 c 0
 256 351 182 427 214 532 c 0
317 518 m 0
 301 474 318 423 370 421 c 0
 424 418 484 470 502 519 c 0
 518 563 504 616 450 618 c 0
 394 620 335 568 317 518 c 0
74 191 m 0
 110 310 237 393 359 392 c 0
 474 392 557 305 521 189 c 0
 485 72 356 -13 236 -12 c 0
 124 -11 40 78 74 191 c 0
191 206 m 0
 171 151 193 90 257 88 c 0
 323 86 394 146 416 207 c 0
 434 260 412 321 350 323 c 0
 285 325 213 264 191 206 c 0
EndSplineSet
EndChar

StartChar: uniFF19
Encoding: 65305 65305 362
Width: 563
VWidth: 0
Flags: HMW
LayerCount: 2
Fore
SplineSet
518 464 m 0
 542 529 523 607 443 608 c 0
 360 609 281 538 254 464 c 0
 230 399 248 319 329 318 c 0
 412 317 491 390 518 464 c 0
211 2 m 1
 57 2 l 1
 362 274 l 1
 385 274 l 1
 350 253 314 237 272 238 c 0
 150 240 111 364 142 465 c 0
 184 602 318 712 463 712 c 0
 604 712 670 591 630 464 c 0
 610 401 568 345 521 299 c 2
 211 2 l 1
EndSplineSet
EndChar

StartChar: caron
Encoding: 711 711 363
Width: 451
VWidth: 0
Flags: HMW
LayerCount: 2
Fore
SplineSet
392 665 m 1
 520 754 l 1
 577 698 l 1
 369 562 l 1
 246 706 l 1
 327 755 l 1
 392 665 l 1
EndSplineSet
EndChar

StartChar: napostrophe
Encoding: 329 329 364
Width: 639
VWidth: 0
Flags: HMW
LayerCount: 2
Fore
SplineSet
400 460 m 1
 241 0 l 1
 134 0 l 1
 293 460 l 1
 400 460 l 1
512 280 m 1
 525 322 531 378 473 382 c 0
 411 386 365 329 337 282 c 1
 302 280 l 1
 341 371 413 469 523 469 c 0
 629 469 646 377 622 292 c 1
 521 0 l 1
 416 0 l 1
 512 280 l 1
296 699 m 1
 419 699 l 1
 239 462 l 1
 161 462 l 1
 296 699 l 1
EndSplineSet
EndChar

StartChar: IJ
Encoding: 306 306 365
Width: 511
VWidth: 0
Flags: HMW
LayerCount: 2
Fore
SplineSet
96 -89 m 1
 113 -108 131 -125 159 -123 c 0
 205 -120 238 -75 255 -36 c 1
 509 700 l 1
 626 700 l 1
 368 -59 l 2
 332 -156 247 -229 140 -227 c 0
 89 -226 50 -205 12 -172 c 1
 96 -89 l 1
255 699 m 1
 374 700 l 1
 132 0 l 1
 18 0 l 1
 255 699 l 1
EndSplineSet
EndChar

StartChar: ij
Encoding: 307 307 366
Width: 492
VWidth: 0
Flags: HMW
LayerCount: 2
Fore
SplineSet
467 645 m 0
 475 676 520 710 552 708 c 0
 586 706 606 674 598 641 c 0
 590 610 547 576 515 578 c 0
 481 580 459 612 467 645 c 0
133 -100 m 1
 142 -100 158 -125 170 -126 c 0
 209 -130 234 -72 245 -44 c 1
 419 460 l 1
 523 460 l 1
 344 -66 l 2
 314 -148 247 -230 151 -227 c 0
 112 -226 87 -207 61 -180 c 1
 133 -100 l 1
225 645 m 0
 233 676 277 710 309 708 c 0
 343 706 365 674 357 641 c 0
 349 610 304 576 272 578 c 0
 238 580 217 612 225 645 c 0
174 459 m 1
 282 460 l 1
 121 0 l 1
 20 0 l 1
 174 459 l 1
EndSplineSet
EndChar

StartChar: uni0237
Encoding: 567 567 367
Width: 243
VWidth: 0
Flags: HMW
LayerCount: 2
Fore
SplineSet
-115 -100 m 1
 -106 -112 -98 -126 -80 -126 c 0
 -40 -125 -17 -75 -4 -44 c 1
 169 460 l 1
 274 460 l 1
 95 -66 l 2
 65 -148 -1 -230 -97 -227 c 0
 -136 -226 -162 -207 -188 -180 c 1
 -115 -100 l 1
EndSplineSet
EndChar

StartChar: Sacute
Encoding: 346 346 368
Width: 544
VWidth: 0
Flags: HMW
LayerCount: 2
Fore
SplineSet
143 236 m 1
 154 169 176 94 258 93 c 0
 317 92 376 131 397 187 c 0
 425 260 358 296 303 324 c 0
 221 365 166 435 195 530 c 0
 229 640 348 713 460 712 c 0
 557 711 617 650 635 559 c 1
 532 504 l 1
 519 554 501 604 441 606 c 0
 389 607 329 572 311 522 c 0
 286 456 369 426 415 403 c 0
 500 361 547 286 518 191 c 0
 481 67 360 -15 232 -14 c 0
 116 -13 56 73 40 179 c 1
 143 236 l 1
710 917 m 1
 493 774 l 1
 439 811 l 1
 632 966 l 1
 710 917 l 1
EndSplineSet
EndChar

StartChar: sacute
Encoding: 347 347 369
Width: 399
VWidth: 0
Flags: HMW
LayerCount: 2
Fore
SplineSet
81 165 m 1
 94 120 117 79 173 79 c 0
 204 78 246 94 257 126 c 0
 272 168 216 191 186 207 c 0
 133 236 87 279 107 345 c 0
 131 423 222 468 299 469 c 0
 366 470 417 439 447 386 c 1
 373 326 l 1
 351 355 325 379 285 379 c 0
 259 379 215 365 207 337 c 0
 195 298 262 280 287 267 c 0
 341 240 382 193 365 129 c 0
 341 39 249 -14 160 -13 c 0
 76 -13 23 35 1 105 c 1
 81 165 l 1
548 675 m 1
 332 532 l 1
 278 569 l 1
 470 724 l 1
 548 675 l 1
EndSplineSet
EndChar

StartChar: Scircumflex
Encoding: 348 348 370
Width: 544
VWidth: 0
Flags: HMW
LayerCount: 2
Fore
SplineSet
143 236 m 1
 154 169 176 94 258 93 c 0
 317 92 376 131 397 187 c 0
 425 260 358 296 303 324 c 0
 221 365 166 435 195 530 c 0
 229 640 348 713 460 712 c 0
 557 711 617 650 635 559 c 1
 532 504 l 1
 519 554 501 604 441 606 c 0
 389 607 329 572 311 522 c 0
 286 456 369 426 415 403 c 0
 500 361 547 286 518 191 c 0
 481 67 360 -15 232 -14 c 0
 116 -13 56 73 40 179 c 1
 143 236 l 1
524 862 m 1
 396 773 l 1
 340 829 l 1
 548 965 l 1
 671 822 l 1
 590 773 l 1
 524 862 l 1
EndSplineSet
EndChar

StartChar: scircumflex
Encoding: 349 349 371
Width: 399
VWidth: 0
Flags: HMW
LayerCount: 2
Fore
SplineSet
81 165 m 1
 94 120 118 79 174 79 c 0
 205 78 246 94 257 126 c 0
 272 168 216 191 186 207 c 0
 133 236 87 279 107 345 c 0
 131 423 222 468 299 469 c 0
 366 470 417 439 447 386 c 1
 373 326 l 1
 351 355 325 379 285 379 c 0
 259 379 215 365 207 337 c 0
 195 298 262 280 287 267 c 0
 341 240 382 193 365 129 c 0
 341 39 249 -14 160 -13 c 0
 76 -13 23 35 1 105 c 1
 81 165 l 1
367 620 m 1
 240 531 l 1
 183 587 l 1
 391 723 l 1
 514 580 l 1
 433 531 l 1
 367 620 l 1
EndSplineSet
EndChar

StartChar: uni1E9E
Encoding: 7838 7838 372
Width: 755
VWidth: 0
Flags: HMW
LayerCount: 2
Fore
SplineSet
474 -12 m 0
 612 -12 714 62 714 169 c 0
 714 310 604 294 604 356 c 0
 604 410 788 430 788 568 c 0
 788 660 694 712 556 712 c 0
 356 712 214 578 148 380 c 2
 20 -2 l 1
 142 -2 l 1
 268 369 l 2
 316 511 421 605 549 605 c 0
 623 605 660 576 660 536 c 0
 660 456 476 451 476 349 c 0
 476 258 584 271 584 182 c 0
 584 120 524 96 454 96 c 0
 394 96 350 115 300 144 c 1
 260 46 l 1
 316 11 388 -12 474 -12 c 0
EndSplineSet
EndChar

StartChar: Zacute
Encoding: 377 377 373
Width: 540
VWidth: 0
Flags: HW
LayerCount: 2
Fore
SplineSet
186 591 m 1
 225 700 l 1
 715 699 l 1
 180 107 l 1
 485 106 l 1
 447 0 l 1
 -49 0 l 1
 485 590 l 1
 186 591 l 1
700 917 m 1
 483 774 l 1
 430 811 l 1
 623 966 l 1
 700 917 l 1
EndSplineSet
EndChar

StartChar: zacute
Encoding: 378 378 374
Width: 455
VWidth: 0
Flags: HW
LayerCount: 2
Fore
SplineSet
329 359 m 1
 113 360 l 1
 148 460 l 1
 551 459 l 1
 180 101 l 1
 402 100 l 1
 366 0 l 1
 -46 0 l 1
 329 359 l 1
585 690 m 1
 368 547 l 1
 314 584 l 1
 507 739 l 1
 585 690 l 1
EndSplineSet
EndChar

StartChar: Zdotaccent
Encoding: 379 379 375
Width: 540
VWidth: 0
Flags: HW
LayerCount: 2
Fore
SplineSet
186 591 m 1
 225 700 l 1
 715 699 l 1
 180 107 l 1
 485 106 l 1
 447 0 l 1
 -49 0 l 1
 485 590 l 1
 186 591 l 1
449 841 m 0
 457 872 501 905 533 903 c 0
 567 901 588 869 580 836 c 0
 572 805 528 771 496 773 c 0
 462 775 441 808 449 841 c 0
EndSplineSet
EndChar

StartChar: zdotaccent
Encoding: 380 380 376
Width: 455
VWidth: 0
Flags: HW
LayerCount: 2
Fore
SplineSet
329 359 m 1
 113 360 l 1
 148 460 l 1
 551 459 l 1
 180 101 l 1
 402 100 l 1
 366 0 l 1
 -46 0 l 1
 329 359 l 1
335 621 m 0
 343 652 388 685 420 683 c 0
 454 681 475 649 467 616 c 0
 459 585 415 552 383 554 c 0
 349 556 327 588 335 621 c 0
EndSplineSet
EndChar

StartChar: Tcaron
Encoding: 356 356 377
Width: 473
VWidth: 0
Flags: HW
LayerCount: 2
Fore
SplineSet
152 591 m 1
 190 700 l 1
 654 700 l 1
 616 591 l 1
 443 591 l 1
 240 0 l 1
 124 0 l 1
 327 591 l 1
 152 591 l 1
475 875 m 1
 604 964 l 1
 660 909 l 1
 452 772 l 1
 329 916 l 1
 410 965 l 1
 475 875 l 1
EndSplineSet
EndChar

StartChar: tcaron
Encoding: 357 357 378
Width: 379
VWidth: 0
Flags: HW
LayerCount: 2
Fore
SplineSet
107 460 m 1
 356 460 l 1
 322 365 l 1
 72 365 l 1
 107 460 l 1
232 619 m 1
 338 620 l 1
 124 0 l 1
 23 0 l 1
 232 619 l 1
524 798 m 1
 624 766 l 1
 430 522 l 1
 355 544 l 1
 524 798 l 1
EndSplineSet
EndChar

StartChar: Uring
Encoding: 366 366 379
Width: 617
VWidth: 0
Flags: HW
LayerCount: 2
Fore
SplineSet
252 700 m 1
 368 700 l 1
 206 235 l 2
 186 168 195 94 279 92 c 0
 365 90 431 161 461 235 c 1
 621 700 l 1
 737 700 l 1
 576 230 l 2
 527 95 406 -17 256 -17 c 0
 113 -17 54 101 92 230 c 0
 252 700 l 1
448 881 m 0
 464 936 527 985 585 984 c 0
 643 983 677 932 661 877 c 0
 645 822 581 772 523 773 c 0
 465 774 432 827 448 881 c 0
508 877 m 0
 502 858 511 832 533 829 c 0
 557 825 595 859 601 880 c 0
 607 899 598 926 576 929 c 0
 552 933 514 898 508 877 c 0
EndSplineSet
EndChar

StartChar: uring
Encoding: 367 367 380
Width: 511
VWidth: 0
Flags: HW
LayerCount: 2
Fore
SplineSet
288 0 m 1
 447 460 l 1
 554 460 l 1
 395 0 l 1
 288 0 l 1
176 180 m 1
 163 138 157 82 215 78 c 0
 277 74 323 131 351 178 c 1
 379 180 l 1
 342 90 274 -9 165 -9 c 0
 59 -9 42 83 66 168 c 1
 167 460 l 1
 273 459 l 1
 176 180 l 1
313 638 m 0
 329 693 392 743 450 742 c 0
 508 741 542 689 526 634 c 0
 510 579 447 530 389 531 c 0
 331 532 297 584 313 638 c 0
373 635 m 0
 367 616 376 590 398 587 c 0
 422 583 460 617 466 638 c 0
 472 657 463 683 441 686 c 0
 417 690 379 656 373 635 c 0
EndSplineSet
EndChar

StartChar: Wcircumflex
Encoding: 372 372 381
Width: 959
VWidth: 0
Flags: HW
LayerCount: 2
Fore
SplineSet
690 226 m 1
 1003 699 l 1
 1144 699 l 1
 622 -44 l 1
 587 451 l 1
 214 -44 l 1
 192 700 l 1
 321 700 l 1
 311 228 l 1
 675 742 l 1
 690 226 l 1
735 886 m 1
 606 798 l 1
 548 854 l 1
 754 989 l 1
 879 846 l 1
 799 797 l 1
 735 886 l 1
EndSplineSet
EndChar

StartChar: wcircumflex
Encoding: 373 373 382
Width: 669
VWidth: 0
Flags: HW
LayerCount: 2
Fore
SplineSet
105 460 m 1
 213 460 l 1
 218 194 l 1
 447 501 l 1
 464 192 l 1
 658 459 l 1
 781 459 l 1
 403 -38 l 1
 377 271 l 1
 137 -38 l 1
 105 460 l 1
506 646 m 1
 377 558 l 1
 319 614 l 1
 525 749 l 1
 651 605 l 1
 570 556 l 1
 506 646 l 1
EndSplineSet
EndChar

StartChar: Ycircumflex
Encoding: 374 374 383
Width: 564
VWidth: 0
Flags: HW
LayerCount: 2
Fore
SplineSet
615 699 m 1
 756 699 l 1
 386 287 l 1
 287 0 l 1
 168 0 l 1
 274 304 l 1
 190 700 l 1
 312 700 l 1
 361 406 l 1
 615 699 l 1
528 862 m 1
 399 774 l 1
 341 830 l 1
 548 966 l 1
 673 821 l 1
 593 772 l 1
 528 862 l 1
EndSplineSet
EndChar

StartChar: ycircumflex
Encoding: 375 375 384
Width: 443
VWidth: 0
Flags: HW
LayerCount: 2
Fore
SplineSet
558 459 m 1
 42 -219 l 1
 -80 -219 l 1
 137 63 l 1
 101 460 l 1
 215 460 l 1
 230 96 l 1
 178 101 l 1
 436 459 l 1
 558 459 l 1
385 620 m 1
 256 531 l 1
 198 588 l 1
 405 723 l 1
 530 579 l 1
 450 530 l 1
 385 620 l 1
EndSplineSet
EndChar

StartChar: Utilde
Encoding: 360 360 385
Width: 617
VWidth: 0
Flags: HW
LayerCount: 2
Fore
SplineSet
251 700 m 1
 369 700 l 1
 206 235 l 2
 186 169 193 94 277 92 c 0
 363 89 429 161 459 235 c 1
 620 700 l 1
 737 700 l 1
 578 230 l 2
 529 95 408 -17 258 -17 c 0
 115 -17 53 100 91 230 c 0
 251 700 l 1
365 824 m 1
 365 865 455 908 492 907 c 0
 533 905 556 857 597 860 c 0
 627 862 653 891 673 909 c 1
 715 849 l 1
 684 815 636 772 585 776 c 0
 545 779 522 828 482 824 c 0
 452 821 432 796 415 775 c 1
 365 824 l 1
EndSplineSet
EndChar

StartChar: utilde
Encoding: 361 361 386
Width: 511
VWidth: 0
Flags: HW
LayerCount: 2
Fore
SplineSet
288 0 m 1
 447 460 l 1
 555 460 l 1
 396 0 l 1
 288 0 l 1
176 180 m 1
 163 138 156 83 214 79 c 0
 276 74 322 131 350 178 c 1
 379 180 l 1
 342 90 275 -8 167 -9 c 0
 61 -10 42 82 66 168 c 1
 167 459 l 1
 273 459 l 1
 176 180 l 1
231 582 m 1
 260 621 303 667 357 664 c 0
 398 662 421 615 462 618 c 0
 492 620 517 648 537 666 c 1
 580 607 l 1
 549 573 502 530 451 534 c 0
 411 537 386 585 346 581 c 0
 316 578 298 553 281 532 c 1
 231 582 l 1
EndSplineSet
EndChar

StartChar: Umacron
Encoding: 362 362 387
Width: 617
VWidth: 0
Flags: HW
LayerCount: 2
Fore
SplineSet
251 700 m 1
 369 700 l 1
 206 235 l 2
 186 169 193 94 277 92 c 0
 363 89 429 161 459 235 c 1
 620 700 l 1
 737 700 l 1
 578 230 l 2
 529 95 408 -17 258 -17 c 0
 115 -17 53 100 91 230 c 0
 251 700 l 1
350 773 m 1
 381 870 l 1
 724 870 l 1
 692 773 l 1
 350 773 l 1
EndSplineSet
EndChar

StartChar: umacron
Encoding: 363 363 388
Width: 511
VWidth: 0
Flags: HW
LayerCount: 2
Fore
SplineSet
288 0 m 1
 447 460 l 1
 555 460 l 1
 396 0 l 1
 288 0 l 1
176 180 m 1
 163 138 156 83 214 79 c 0
 276 74 322 131 350 178 c 1
 379 180 l 1
 342 90 275 -8 167 -9 c 0
 61 -10 42 82 66 168 c 1
 167 459 l 1
 273 459 l 1
 176 180 l 1
216 531 m 1
 246 628 l 1
 590 628 l 1
 558 531 l 1
 216 531 l 1
EndSplineSet
EndChar

StartChar: Ubreve
Encoding: 364 364 389
Width: 617
VWidth: 0
Flags: HW
LayerCount: 2
Fore
SplineSet
251 700 m 1
 369 700 l 1
 206 235 l 2
 186 169 193 94 277 92 c 0
 363 89 429 161 459 235 c 1
 620 700 l 1
 737 700 l 1
 578 230 l 2
 529 95 408 -17 258 -17 c 0
 115 -17 53 100 91 230 c 0
 251 700 l 1
413 915 m 1
 491 914 l 1
 489 879 493 849 535 847 c 0
 580 845 612 881 636 914 c 1
 719 912 l 1
 684 834 620 773 529 773 c 0
 440 773 403 834 413 915 c 1
EndSplineSet
EndChar

StartChar: ubreve
Encoding: 365 365 390
Width: 511
VWidth: 0
Flags: HW
LayerCount: 2
Fore
SplineSet
288 0 m 1
 447 460 l 1
 555 460 l 1
 396 0 l 1
 288 0 l 1
176 180 m 1
 163 138 156 83 214 79 c 0
 276 74 322 131 350 178 c 1
 379 180 l 1
 342 90 275 -8 167 -9 c 0
 61 -10 42 82 66 168 c 1
 167 459 l 1
 273 459 l 1
 176 180 l 1
278 672 m 1
 355 672 l 1
 353 637 358 607 400 605 c 0
 445 603 477 638 501 671 c 1
 584 670 l 1
 549 592 485 531 394 531 c 0
 305 531 268 591 278 672 c 1
EndSplineSet
EndChar

StartChar: uni0123
Encoding: 291 291 391
Width: 536
VWidth: 0
Flags: HW
LayerCount: 2
Fore
SplineSet
-66 -31 m 1
 35 -32 l 1
 28 -92 45 -137 113 -139 c 0
 199 -141 267 -63 297 10 c 1
 453 460 l 1
 560 460 l 1
 407 10 l 2
 360 -119 251 -232 106 -233 c 0
 -20 -234 -83 -151 -66 -31 c 1
16 233 m 0
 53 354 168 472 301 470 c 0
 433 468 449 334 418 232 c 0
 384 119 290 -3 161 -4 c 0
 28 -6 -18 121 16 233 c 0
127 232 m 0
 104 169 116 91 196 90 c 0
 275 89 349 164 375 233 c 0
 397 291 390 371 314 375 c 0
 232 380 154 304 127 232 c 0
379 545 m 1
 286 599 l 1
 504 819 l 1
 576 781 l 1
 379 545 l 1
EndSplineSet
EndChar

StartChar: Hbar
Encoding: 294 294 392
Width: 698
VWidth: 0
Flags: HW
LayerCount: 2
Fore
SplineSet
135 322 m 1
 170 430 l 1
 648 430 l 1
 610 322 l 1
 135 322 l 1
657 699 m 1
 779 700 l 1
 537 0 l 1
 422 0 l 1
 657 699 l 1
215 699 m 1
 337 700 l 1
 94 0 l 1
 -20 0 l 1
 215 699 l 1
96 539 m 1
 125 626 l 1
 822 626 l 1
 793 539 l 1
 96 539 l 1
EndSplineSet
EndChar

StartChar: hbar
Encoding: 295 295 393
Width: 509
VWidth: 0
Flags: HW
LayerCount: 2
Fore
SplineSet
346 780 m 1
 77 0 l 1
 -32 0 l 1
 237 780 l 1
 346 780 l 1
348 280 m 1
 361 321 368 377 311 381 c 0
 249 386 203 329 175 282 c 1
 145 283 l 1
 181 373 249 471 357 472 c 0
 463 473 481 380 457 295 c 1
 355 0 l 1
 251 0 l 1
 348 280 l 1
122 614 m 1
 154 711 l 1
 461 711 l 1
 429 614 l 1
 122 614 l 1
EndSplineSet
EndChar

StartChar: uni0400
Encoding: 1024 1024 394
Width: 517
VWidth: 0
Flags: HW
LayerCount: 2
Fore
SplineSet
87 0 m 1
 121 104 l 1
 460 104 l 1
 425 0 l 1
 87 0 l 1
290 597 m 1
 325 700 l 1
 664 700 l 1
 628 597 l 1
 290 597 l 1
198 325 m 1
 232 426 l 1
 551 426 l 1
 517 325 l 1
 198 325 l 1
253 699 m 1
 372 700 l 1
 129 0 l 1
 18 0 l 1
 253 699 l 1
375 925 m 1
 471 967 l 1
 567 803 l 1
 504 772 l 1
 375 925 l 1
EndSplineSet
EndChar

StartChar: uni0401
Encoding: 1025 1025 395
Width: 517
VWidth: 0
Flags: HW
LayerCount: 2
Fore
SplineSet
87 0 m 1
 121 104 l 1
 460 104 l 1
 425 0 l 1
 87 0 l 1
290 597 m 1
 325 700 l 1
 664 700 l 1
 628 597 l 1
 290 597 l 1
198 325 m 1
 232 426 l 1
 551 426 l 1
 517 325 l 1
 198 325 l 1
253 699 m 1
 372 700 l 1
 129 0 l 1
 18 0 l 1
 253 699 l 1
559 840 m 0
 566 871 610 905 642 903 c 0
 676 901 698 869 691 835 c 0
 684 804 641 771 609 773 c 0
 575 775 552 806 559 840 c 0
355 840 m 0
 362 871 405 905 437 903 c 0
 471 901 494 869 487 835 c 0
 480 804 436 771 404 773 c 0
 370 775 348 806 355 840 c 0
EndSplineSet
EndChar

StartChar: uni0403
Encoding: 1027 1027 396
Width: 435
VWidth: 0
Flags: HW
LayerCount: 2
Fore
SplineSet
254 699 m 1
 616 700 l 1
 577 591 l 1
 338 591 l 1
 134 0 l 1
 20 0 l 1
 254 699 l 1
659 916 m 1
 446 773 l 1
 391 811 l 1
 578 965 l 1
 659 916 l 1
EndSplineSet
EndChar

StartChar: uni040C
Encoding: 1036 1036 397
Width: 531
VWidth: 0
Flags: HW
LayerCount: 2
Fore
SplineSet
253 699 m 1
 377 700 l 1
 134 0 l 1
 18 0 l 1
 253 699 l 1
608 699 m 1
 761 699 l 1
 359 363 l 1
 521 0 l 1
 394 0 l 1
 226 378 l 1
 608 699 l 1
709 910 m 1
 495 769 l 1
 438 809 l 1
 628 961 l 1
 709 910 l 1
EndSplineSet
EndChar

StartChar: uni040D
Encoding: 1037 1037 398
Width: 735
VWidth: 0
Flags: HW
LayerCount: 2
Fore
SplineSet
801 566 m 1
 -5 -49 l 1
 66 134 l 1
 871 750 l 1
 801 566 l 1
372 700 m 1
 162 90 l 1
 -5 -49 l 1
 255 700 l 1
 372 700 l 1
871 750 m 1
 611 0 l 1
 495 0 l 1
 703 608 l 1
 871 750 l 1
445 904 m 1
 541 946 l 1
 634 780 l 1
 572 750 l 1
 445 904 l 1
EndSplineSet
EndChar

StartChar: uni040E
Encoding: 1038 1038 399
Width: 546
VWidth: 0
Flags: HW
LayerCount: 2
Fore
SplineSet
744 700 m 1
 193 0 l 1
 61 0 l 1
 229 219 l 1
 183 700 l 1
 305 700 l 1
 329 251 l 1
 271 256 l 1
 611 700 l 1
 744 700 l 1
370 915 m 1
 447 914 l 1
 446 879 453 849 494 847 c 0
 539 845 570 879 593 913 c 1
 675 912 l 1
 641 834 577 772 487 772 c 0
 399 772 361 834 370 915 c 1
EndSplineSet
EndChar

StartChar: uni0410
Encoding: 1040 1040 400
Width: 648
VWidth: 0
Flags: HW
LayerCount: 2
Fore
SplineSet
158 182 m 1
 211 279 l 1
 523 280 l 1
 512 179 l 1
 158 182 l 1
450 502 m 1
 257 245 l 1
 247 218 l 1
 81 0 l 1
 -61 0 l 1
 521 745 l 1
 591 0 l 1
 468 0 l 1
 450 214 l 1
 459 242 l 1
 450 502 l 1
EndSplineSet
EndChar

StartChar: uni0411
Encoding: 1041 1041 401
Width: 561
VWidth: 0
Flags: HW
LayerCount: 2
Fore
SplineSet
173 324 m 1
 209 426 l 1
 381 426 l 1
 501 422 583 334 547 213 c 0
 510 88 385 4 258 0 c 1
 61 0 l 1
 98 104 l 1
 260 104 l 2
 331 107 402 144 429 214 c 0
 454 279 416 319 352 323 c 1
 173 324 l 1
254 699 m 1
 664 700 l 1
 628 596 l 1
 342 596 l 1
 135 0 l 1
 20 0 l 1
 254 699 l 1
EndSplineSet
EndChar

StartChar: uni0412
Encoding: 1042 1042 402
Width: 565
VWidth: 0
Flags: HW
LayerCount: 2
Fore
SplineSet
226 362 m 1
 245 418 l 1
 345 419 l 1
 404 423 467 453 489 511 c 0
 509 564 478 598 426 602 c 1
 341 603 l 1
 166 97 l 1
 246 98 l 1
 321 102 398 142 425 215 c 0
 450 283 410 321 344 326 c 1
 214 328 l 1
 236 392 l 1
 353 392 l 1
 466 389 574 330 538 201 c 0
 501 69 370 4 241 0 c 1
 16 0 l 1
 256 700 l 1
 446 700 l 1
 549 696 646 639 611 523 c 0
 578 411 459 365 352 362 c 2
 226 362 l 1
EndSplineSet
EndChar

StartChar: uni0413
Encoding: 1043 1043 403
Width: 435
VWidth: 0
Flags: HW
LayerCount: 2
Fore
SplineSet
254 699 m 1
 616 700 l 1
 577 591 l 1
 338 591 l 1
 134 0 l 1
 20 0 l 1
 254 699 l 1
EndSplineSet
EndChar

StartChar: uni0414
Encoding: 1044 1044 404
Width: 780
VWidth: 0
Flags: HW
LayerCount: 2
Fore
SplineSet
508 494 m 1
 186 31 l 1
 47 31 l 1
 584 742 l 1
 631 30 l 1
 512 30 l 1
 508 494 l 1
581 0 m 1
 94 0 l 1
 55 -109 l 1
 -57 -109 l 1
 17 106 l 1
 725 106 l 1
 650 -109 l 1
 540 -109 l 1
 581 0 l 1
EndSplineSet
EndChar

StartChar: uni0415
Encoding: 1045 1045 405
Width: 538
VWidth: 0
Flags: HW
LayerCount: 2
Fore
SplineSet
88 0 m 1
 122 104 l 1
 461 104 l 1
 426 0 l 1
 88 0 l 1
291 597 m 1
 325 700 l 1
 665 700 l 1
 629 597 l 1
 291 597 l 1
199 325 m 1
 232 426 l 1
 552 426 l 1
 518 325 l 1
 199 325 l 1
253 699 m 1
 373 700 l 1
 130 0 l 1
 18 0 l 1
 253 699 l 1
EndSplineSet
EndChar

StartChar: uni0416
Encoding: 1046 1046 406
Width: 913
VWidth: 0
Flags: HW
LayerCount: 2
Fore
SplineSet
330 700 m 1
 501 361 l 1
 91 0 l 1
 -62 0 l 1
 371 381 l 1
 206 700 l 1
 330 700 l 1
583 699 m 1
 707 700 l 1
 465 0 l 1
 349 0 l 1
 583 699 l 1
936 699 m 1
 1093 699 l 1
 688 363 l 1
 852 0 l 1
 725 0 l 1
 564 380 l 1
 936 699 l 1
EndSplineSet
EndChar

StartChar: uni0417
Encoding: 1047 1047 407
Width: 593
VWidth: 0
Flags: HW
LayerCount: 2
Fore
SplineSet
336 343 m 1
 353 405 l 1
 426 413 519 437 547 514 c 0
 568 571 533 609 476 610 c 0
 405 612 350 570 313 514 c 1
 201 516 l 1
 248 636 357 712 487 711 c 0
 595 710 700 640 665 521 c 0
 625 383 460 349 336 343 c 1
263 -12 m 0
 130 -12 39 63 61 200 c 1
 174 199 l 1
 167 128 200 92 273 91 c 0
 348 90 429 127 457 201 c 0
 492 293 397 312 329 318 c 1
 348 385 l 1
 466 381 612 335 570 186 c 0
 532 54 391 -12 263 -12 c 0
EndSplineSet
EndChar

StartChar: uni0418
Encoding: 1048 1048 408
Width: 735
VWidth: 0
Flags: HW
LayerCount: 2
Fore
SplineSet
801 566 m 1
 -5 -49 l 1
 66 134 l 1
 871 750 l 1
 801 566 l 1
372 700 m 1
 162 90 l 1
 -5 -49 l 1
 255 700 l 1
 372 700 l 1
871 750 m 1
 611 0 l 1
 495 0 l 1
 703 608 l 1
 871 750 l 1
EndSplineSet
EndChar

StartChar: uni0419
Encoding: 1049 1049 409
Width: 735
VWidth: 0
Flags: HW
LayerCount: 2
Fore
SplineSet
801 566 m 1
 -5 -49 l 1
 66 134 l 1
 871 750 l 1
 801 566 l 1
372 700 m 1
 162 90 l 1
 -5 -49 l 1
 255 700 l 1
 372 700 l 1
871 750 m 1
 611 0 l 1
 495 0 l 1
 703 608 l 1
 871 750 l 1
462 914 m 1
 539 914 l 1
 538 879 545 849 587 847 c 0
 632 845 662 879 685 913 c 1
 766 912 l 1
 731 834 668 773 577 773 c 0
 489 773 453 833 462 914 c 1
EndSplineSet
EndChar

StartChar: uni041A
Encoding: 1050 1050 410
Width: 583
VWidth: 0
Flags: HW
LayerCount: 2
Fore
SplineSet
253 699 m 1
 377 700 l 1
 134 0 l 1
 18 0 l 1
 253 699 l 1
608 699 m 1
 761 699 l 1
 359 363 l 1
 521 0 l 1
 394 0 l 1
 226 378 l 1
 608 699 l 1
EndSplineSet
EndChar

StartChar: uni041B
Encoding: 1051 1051 411
Width: 661
VWidth: 0
Flags: HW
LayerCount: 2
Fore
SplineSet
775 700 m 1
 534 0 l 1
 415 0 l 1
 618 591 l 1
 363 591 l 1
 251 262 l 2
 201 119 110 19 -44 2 c 1
 -15 100 l 1
 66 124 106 195 135 271 c 1
 283 700 l 1
 775 700 l 1
EndSplineSet
EndChar

StartChar: uni041C
Encoding: 1052 1052 412
Width: 792
VWidth: 0
Flags: HW
LayerCount: 2
Fore
SplineSet
291 424 m 1
 100 0 l 1
 -25 0 l 1
 320 738 l 1
 426 265 l 1
 870 749 l 1
 704 0 l 1
 585 0 l 1
 684 410 l 1
 368 61 l 1
 291 424 l 1
EndSplineSet
EndChar

StartChar: uni041D
Encoding: 1053 1053 413
Width: 699
VWidth: 0
Flags: HW
LayerCount: 2
Fore
SplineSet
172 322 m 1
 208 430 l 1
 685 430 l 1
 648 322 l 1
 172 322 l 1
695 699 m 1
 817 700 l 1
 574 0 l 1
 460 0 l 1
 695 699 l 1
253 699 m 1
 375 700 l 1
 132 0 l 1
 18 0 l 1
 253 699 l 1
EndSplineSet
EndChar

StartChar: uni041E
Encoding: 1054 1054 414
Width: 754
VWidth: 0
Flags: HW
LayerCount: 2
Fore
SplineSet
222 350 m 0
 181 240 208 104 347 102 c 0
 490 100 617 224 664 350 c 0
 705 460 678 596 539 598 c 0
 396 600 269 476 222 350 c 0
97 350 m 0
 157 542 346 713 554 712 c 0
 755 711 843 528 788 350 c 0
 728 157 538 -16 329 -15 c 0
 127 -14 42 172 97 350 c 0
EndSplineSet
EndChar

StartChar: uni041F
Encoding: 1055 1055 415
Width: 693
VWidth: 0
Flags: HW
LayerCount: 2
Fore
SplineSet
654 592 m 1
 340 591 l 1
 137 0 l 1
 17 0 l 1
 257 700 l 1
 807 700 l 1
 566 0 l 1
 450 0 l 1
 654 592 l 1
EndSplineSet
EndChar

StartChar: uni0420
Encoding: 1056 1056 416
Width: 545
VWidth: 0
Flags: HW
LayerCount: 2
Fore
SplineSet
253 699 m 1
 375 700 l 1
 133 0 l 1
 18 0 l 1
 253 699 l 1
287 596 m 1
 322 700 l 1
 446 700 l 1
 572 695 662 611 623 481 c 0
 583 348 454 270 320 265 c 1
 172 265 l 1
 209 368 l 1
 334 369 l 2
 407 372 481 411 509 483 c 0
 534 549 497 591 431 595 c 1
 287 596 l 1
EndSplineSet
EndChar

StartChar: uni0421
Encoding: 1057 1057 417
Width: 649
VWidth: 0
Flags: HW
LayerCount: 2
Fore
SplineSet
224 350 m 0
 182 240 215 107 351 104 c 0
 442 102 527 151 599 201 c 1
 559 61 l 1
 490 17 413 -13 330 -12 c 0
 129 -11 41 172 97 350 c 0
 157 544 346 711 555 712 c 0
 631 713 694 688 750 637 c 1
 709 497 l 1
 673 561 618 596 542 596 c 0
 401 595 272 477 224 350 c 0
EndSplineSet
EndChar

StartChar: uni0422
Encoding: 1058 1058 418
Width: 474
VWidth: 0
Flags: HW
LayerCount: 2
Fore
SplineSet
151 591 m 1
 190 700 l 1
 656 700 l 1
 618 591 l 1
 445 591 l 1
 242 0 l 1
 123 0 l 1
 326 591 l 1
 151 591 l 1
EndSplineSet
EndChar

StartChar: uni0423
Encoding: 1059 1059 419
Width: 551
VWidth: 0
Flags: HW
LayerCount: 2
Fore
SplineSet
749 700 m 1
 198 0 l 1
 64 0 l 1
 232 219 l 1
 183 700 l 1
 307 700 l 1
 331 251 l 1
 273 256 l 1
 613 700 l 1
 749 700 l 1
EndSplineSet
EndChar

StartChar: uni0424
Encoding: 1060 1060 420
Width: 792
VWidth: 0
Flags: HW
LayerCount: 2
Fore
SplineSet
520 699 m 1
 643 700 l 1
 401 0 l 1
 285 0 l 1
 520 699 l 1
706 350 m 0
 748 456 667 506 571 509 c 1
 484 510 l 2
 374 507 259 459 217 350 c 0
 175 244 257 194 353 191 c 1
 440 190 l 2
 550 193 664 241 706 350 c 0
824 350 m 0
 773 183 604 84 436 80 c 1
 326 80 l 1
 171 83 51 188 100 350 c 0
 151 517 319 616 487 620 c 1
 598 620 l 1
 753 617 873 512 824 350 c 0
EndSplineSet
EndChar

StartChar: uni0425
Encoding: 1061 1061 421
Width: 594
VWidth: 0
Flags: HW
LayerCount: 2
Fore
SplineSet
600 699 m 1
 751 699 l 1
 426 354 l 1
 514 0 l 1
 384 0 l 1
 336 262 l 1
 102 0 l 1
 -51 0 l 1
 304 373 l 1
 225 700 l 1
 355 700 l 1
 395 470 l 1
 600 699 l 1
EndSplineSet
EndChar

StartChar: uni0426
Encoding: 1062 1062 422
Width: 752
VWidth: 0
Flags: HW
LayerCount: 2
Fore
SplineSet
167 108 m 1
 494 109 l 1
 697 700 l 1
 817 700 l 1
 614 109 l 1
 704 109 l 1
 625 -119 l 1
 515 -119 l 1
 557 0 l 1
 15 0 l 1
 256 700 l 1
 371 699 l 1
 167 108 l 1
EndSplineSet
EndChar

StartChar: uni0427
Encoding: 1063 1063 423
Width: 616
VWidth: 0
Flags: HW
LayerCount: 2
Fore
SplineSet
317 257 m 1
 368 361 l 1
 559 361 l 1
 522 257 l 1
 317 257 l 1
608 699 m 1
 732 700 l 1
 490 0 l 1
 373 0 l 1
 608 699 l 1
371 700 m 1
 302 506 l 1
 276 431 295 361 368 361 c 1
 317 257 l 1
 198 257 151 378 186 498 c 1
 255 700 l 1
 371 700 l 1
EndSplineSet
EndChar

StartChar: uni0428
Encoding: 1064 1064 424
Width: 962
VWidth: 0
Flags: HW
LayerCount: 2
Fore
SplineSet
755 109 m 1
 958 700 l 1
 1077 700 l 1
 837 0 l 1
 17 0 l 1
 257 700 l 1
 376 700 l 1
 173 109 l 1
 405 109 l 1
 609 700 l 1
 726 700 l 1
 522 109 l 1
 755 109 l 1
EndSplineSet
EndChar

StartChar: uni0429
Encoding: 1065 1065 425
Width: 1014
VWidth: 0
Flags: HW
LayerCount: 2
Fore
SplineSet
755 109 m 1
 958 700 l 1
 1077 700 l 1
 874 109 l 1
 964 109 l 1
 885 -119 l 1
 775 -119 l 1
 817 0 l 1
 17 0 l 1
 257 700 l 1
 376 700 l 1
 173 109 l 1
 405 109 l 1
 609 700 l 1
 726 700 l 1
 522 109 l 1
 755 109 l 1
EndSplineSet
EndChar

StartChar: uni042A
Encoding: 1066 1066 426
Width: 648
VWidth: 0
Flags: HW
LayerCount: 2
Fore
SplineSet
300 332 m 1
 336 435 l 1
 460 435 l 2
 586 434 676 347 637 217 c 0
 597 84 467 1 333 0 c 2
 185 0 l 1
 223 104 l 1
 346 104 l 2
 419 107 495 146 523 218 c 0
 548 284 511 329 445 330 c 2
 300 332 l 1
327 592 m 1
 153 592 l 1
 191 700 l 1
 479 700 l 1
 238 0 l 1
 124 0 l 1
 327 592 l 1
EndSplineSet
EndChar

StartChar: uni042B
Encoding: 1067 1067 427
Width: 773
VWidth: 0
Flags: HW
LayerCount: 2
Fore
SplineSet
768 699 m 1
 891 700 l 1
 649 0 l 1
 533 0 l 1
 768 699 l 1
253 699 m 1
 375 700 l 1
 132 0 l 1
 18 0 l 1
 253 699 l 1
195 332 m 1
 231 435 l 1
 354 435 l 2
 480 434 571 347 532 217 c 0
 492 84 363 1 229 0 c 2
 80 0 l 1
 118 104 l 1
 242 104 l 2
 315 107 390 146 418 218 c 0
 443 284 406 329 340 330 c 2
 195 332 l 1
EndSplineSet
EndChar

StartChar: uni042C
Encoding: 1068 1068 428
Width: 543
VWidth: 0
Flags: HW
LayerCount: 2
Fore
SplineSet
253 699 m 1
 375 700 l 1
 132 0 l 1
 18 0 l 1
 253 699 l 1
195 332 m 1
 231 435 l 1
 354 435 l 2
 480 434 571 347 532 217 c 0
 492 84 363 1 229 0 c 2
 80 0 l 1
 118 104 l 1
 242 104 l 2
 315 107 390 146 418 218 c 0
 443 284 406 329 340 330 c 2
 195 332 l 1
EndSplineSet
EndChar

StartChar: uni042D
Encoding: 1069 1069 429
Width: 650
VWidth: 0
Flags: HW
LayerCount: 2
Fore
SplineSet
173 299 m 1
 207 401 l 1
 593 401 l 1
 558 299 l 1
 173 299 l 1
564 350 m 0
 607 462 567 595 431 598 c 0
 341 600 257 554 184 507 c 1
 222 639 l 1
 291 683 367 713 450 712 c 0
 651 711 740 528 684 350 c 0
 624 156 435 -11 226 -12 c 0
 150 -13 86 12 30 63 c 1
 69 195 l 1
 107 134 164 102 238 102 c 0
 380 103 515 222 564 350 c 0
EndSplineSet
EndChar

StartChar: uni042E
Encoding: 1070 1070 430
Width: 1011
VWidth: 0
Flags: HW
LayerCount: 2
Fore
SplineSet
172 322 m 1
 208 430 l 1
 466 430 l 1
 429 322 l 1
 172 322 l 1
253 699 m 1
 375 700 l 1
 132 0 l 1
 18 0 l 1
 253 699 l 1
478 350 m 0
 437 240 464 104 603 102 c 0
 746 100 873 224 920 350 c 0
 961 460 935 596 796 598 c 0
 653 600 525 476 478 350 c 0
354 350 m 0
 414 542 603 713 811 712 c 0
 1012 711 1100 528 1045 350 c 0
 985 157 795 -16 586 -15 c 0
 384 -14 299 172 354 350 c 0
EndSplineSet
EndChar

StartChar: uni042F
Encoding: 1071 1071 431
Width: 558
VWidth: 0
Flags: HW
LayerCount: 2
Fore
SplineSet
420 333 m 1
 94 0 l 1
 -57 0 l 1
 282 333 l 1
 420 333 l 1
676 700 m 1
 435 0 l 1
 317 0 l 1
 557 700 l 1
 676 700 l 1
573 598 m 1
 449 597 l 2
 375 597 299 552 271 480 c 0
 245 414 280 369 348 364 c 1
 494 362 l 1
 459 265 l 1
 331 265 l 0
 206 270 115 354 154 483 c 0
 193 616 324 699 457 700 c 1
 610 700 l 1
 573 598 l 1
EndSplineSet
EndChar

StartChar: uni0430
Encoding: 1072 1072 432
Width: 478
VWidth: 0
Flags: HW
LayerCount: 2
Fore
SplineSet
121 135 m 0
 109 97 138 75 173 73 c 0
 247 69 297 123 332 181 c 1
 331 128 l 1
 292 48 222 -10 129 -9 c 0
 47 -8 -10 50 14 133 c 0
 43 231 150 283 246 283 c 0
 300 282 343 265 380 226 c 1
 364 171 l 1
 331 198 296 214 252 213 c 0
 202 212 137 188 121 135 c 0
173 338 m 1
 151 419 l 1
 211 448 275 472 342 471 c 0
 428 470 515 421 483 328 c 2
 372 0 l 1
 266 0 l 1
 379 316 l 2
 393 355 366 378 322 381 c 0
 270 385 219 359 173 338 c 1
EndSplineSet
Substitution2: "alt a" a.alt
EndChar

StartChar: uni0431
Encoding: 1073 1073 433
Width: 536
VWidth: 0
Flags: HW
LayerCount: 2
Fore
SplineSet
351 375 m 1
 386 469 l 1
 515 469 578 356 544 229 c 0
 509 98 381 -10 244 -10 c 0
 87 -10 74 132 74 185 c 1
 174 181 l 1
 175 148 182 87 254 86 c 0
 335 85 410 157 435 230 c 0
 462 308 428 375 351 375 c 1
131 232 m 1
 174 358 248 469 386 469 c 1
 351 375 l 1
 267 375 174 305 174 181 c 1
 131 232 l 1
74 185 m 1
 74 392 219 591 382 658 c 0
 452 687 512 717 558 779 c 1
 665 778 l 1
 616 676 526 625 425 583 c 0
 316 539 177 404 173 272 c 1
 174 181 l 1
 74 185 l 1
EndSplineSet
EndChar

StartChar: uni0432
Encoding: 1074 1074 434
Width: 452
VWidth: 0
Flags: HW
LayerCount: 2
Fore
SplineSet
154 239 m 1
 285 240 l 2
 357 238 439 213 416 124 c 0
 395 45 318 2 242 1 c 2
 74 0 l 1
 100 79 l 1
 219 80 l 2
 255 80 305 101 318 139 c 0
 329 174 303 191 273 192 c 2
 141 194 l 1
 154 239 l 1
151 221 m 1
 166 271 l 1
 277 272 l 2
 310 272 353 293 364 328 c 0
 374 358 354 378 327 379 c 2
 203 381 l 1
 229 460 l 1
 351 460 l 2
 424 459 495 417 470 334 c 0
 447 256 363 224 288 221 c 2
 151 221 l 1
168 460 m 1
 279 460 l 1
 118 0 l 1
 15 0 l 1
 168 460 l 1
EndSplineSet
EndChar

StartChar: uni0433
Encoding: 1075 1075 435
Width: 320
VWidth: 0
Flags: HW
LayerCount: 2
Fore
SplineSet
165 459 m 1
 424 460 l 1
 391 365 l 1
 244 365 l 1
 117 0 l 1
 13 0 l 1
 165 459 l 1
EndSplineSet
EndChar

StartChar: uni0434
Encoding: 1076 1076 436
Width: 634
VWidth: 0
Flags: HW
LayerCount: 2
Fore
SplineSet
371 301 m 1
 160 31 l 1
 45 45 l 1
 428 500 l 1
 496 41 l 1
 392 28 l 1
 371 301 l 1
442 0 m 1
 91 0 l 1
 58 -90 l 1
 -52 -90 l 1
 12 93 l 1
 575 93 l 1
 510 -90 l 1
 409 -90 l 1
 442 0 l 1
EndSplineSet
EndChar

StartChar: uni0435
Encoding: 1077 1077 437
Width: 506
VWidth: 0
Flags: HW
LayerCount: 2
Fore
SplineSet
119 205 m 1
 141 279 l 1
 410 280 l 1
 423 332 410 385 346 387 c 0
 268 390 211 321 181 257 c 2
 169 230 l 1
 147 166 153 83 236 80 c 0
 294 78 341 117 383 153 c 1
 469 111 l 1
 403 42 319 -11 220 -9 c 0
 86 -7 31 110 63 230 c 0
 68 247 74 263 81 279 c 0
 130 386 237 470 358 469 c 0
 495 468 541 355 512 235 c 0
 510 225 506 215 503 205 c 1
 119 205 l 1
EndSplineSet
EndChar

StartChar: uni0436
Encoding: 1078 1078 438
Width: 712
VWidth: 0
Flags: HW
LayerCount: 2
Fore
SplineSet
665 459 m 1
 808 459 l 1
 535 255 l 1
 654 0 l 1
 541 0 l 1
 422 279 l 1
 665 459 l 1
510 459 m 1
 353 1 l 1
 251 0 l 1
 408 459 l 1
 510 459 l 1
237 460 m 1
 367 261 l 1
 76 0 l 1
 -65 0 l 1
 248 271 l 1
 127 460 l 1
 237 460 l 1
EndSplineSet
EndChar

StartChar: uni0437
Encoding: 1079 1079 439
Width: 470
VWidth: 0
Flags: HW
LayerCount: 2
Fore
SplineSet
263 230 m 1
 278 281 l 1
 311 287 361 298 372 336 c 0
 379 362 360 380 333 381 c 0
 292 383 264 350 244 319 c 1
 139 321 l 1
 175 403 246 469 340 469 c 0
 416 469 498 417 473 332 c 0
 447 244 340 234 263 230 c 1
198 -9 m 0
 97 -9 45 53 49 150 c 1
 148 150 l 1
 151 109 161 78 210 76 c 0
 255 74 308 101 322 143 c 0
 339 193 292 202 255 208 c 1
 272 260 l 1
 344 255 450 231 424 134 c 0
 399 42 286 -9 198 -9 c 0
EndSplineSet
EndChar

StartChar: uni0438
Encoding: 1080 1080 440
Width: 529
VWidth: 0
Flags: HW
LayerCount: 2
Fore
SplineSet
527 354 m 1
 -9 -49 l 1
 52 106 l 1
 588 510 l 1
 527 354 l 1
275 460 m 1
 144 80 l 1
 -9 -49 l 1
 168 460 l 1
 275 460 l 1
588 510 m 1
 411 0 l 1
 304 0 l 1
 434 380 l 1
 588 510 l 1
EndSplineSet
EndChar

StartChar: uni0439
Encoding: 1081 1081 441
Width: 529
VWidth: 0
Flags: HW
LayerCount: 2
Fore
SplineSet
527 354 m 1
 -9 -49 l 1
 52 106 l 1
 588 510 l 1
 527 354 l 1
275 460 m 1
 144 80 l 1
 -9 -49 l 1
 168 460 l 1
 275 460 l 1
588 510 m 1
 411 0 l 1
 304 0 l 1
 434 380 l 1
 588 510 l 1
281 683 m 1
 358 683 l 1
 357 648 364 618 406 616 c 0
 451 614 481 648 504 682 c 1
 586 681 l 1
 551 603 487 542 396 542 c 0
 308 542 272 602 281 683 c 1
EndSplineSet
EndChar

StartChar: uni043A
Encoding: 1082 1082 442
Width: 460
VWidth: 0
Flags: HW
LayerCount: 2
Fore
SplineSet
159 459 m 1
 269 460 l 1
 108 0 l 1
 6 0 l 1
 159 459 l 1
413 459 m 1
 558 459 l 1
 293 262 l 1
 404 0 l 1
 291 0 l 1
 171 279 l 1
 413 459 l 1
EndSplineSet
EndChar

StartChar: uni043B
Encoding: 1083 1083 443
Width: 549
VWidth: 0
Flags: HW
LayerCount: 2
Fore
SplineSet
582 460 m 1
 423 0 l 1
 316 0 l 1
 441 360 l 1
 251 360 l 1
 184 159 l 1
 145 51 65 12 -44 1 c 1
 -16 97 l 1
 30 109 59 130 79 175 c 1
 178 460 l 1
 582 460 l 1
EndSplineSet
EndChar

StartChar: uni043C
Encoding: 1084 1084 444
Width: 589
VWidth: 0
Flags: HW
LayerCount: 2
Fore
SplineSet
421 0 m 1
 474 356 l 1
 584 507 l 1
 531 0 l 1
 421 0 l 1
243 104 m 1
 584 507 l 1
 529 308 l 1
 230 -35 l 1
 243 104 l 1
230 -35 m 1
 169 329 l 1
 240 501 l 1
 300 83 l 1
 230 -35 l 1
-57 0 m 1
 240 501 l 1
 242 333 l 1
 63 0 l 1
 -57 0 l 1
EndSplineSet
EndChar

StartChar: uni043D
Encoding: 1085 1085 445
Width: 549
VWidth: 0
Flags: HW
LayerCount: 2
Fore
SplineSet
122 198 m 1
 151 288 l 1
 489 288 l 1
 459 198 l 1
 122 198 l 1
483 459 m 1
 594 460 l 1
 433 0 l 1
 331 0 l 1
 483 459 l 1
162 459 m 1
 273 460 l 1
 112 0 l 1
 9 0 l 1
 162 459 l 1
EndSplineSet
EndChar

StartChar: uni043E
Encoding: 1086 1086 446
Width: 529
VWidth: 0
Flags: HW
LayerCount: 2
Fore
SplineSet
52 230 m 0
 91 360 222 469 360 469 c 0
 494 469 563 353 526 230 c 0
 487 100 357 -9 219 -9 c 0
 85 -9 15 107 52 230 c 0
162 230 m 0
 139 169 151 88 230 86 c 0
 311 84 389 158 417 230 c 0
 440 291 427 372 348 374 c 0
 267 376 190 302 162 230 c 0
EndSplineSet
EndChar

StartChar: uni043F
Encoding: 1087 1087 447
Width: 511
VWidth: 0
Flags: HW
LayerCount: 2
Fore
SplineSet
555 460 m 1
 397 0 l 1
 289 0 l 1
 415 363 l 1
 239 363 l 1
 113 0 l 1
 6 0 l 1
 165 460 l 1
 555 460 l 1
EndSplineSet
EndChar

StartChar: uni0440
Encoding: 1088 1088 448
Width: 553
VWidth: 0
Flags: HW
LayerCount: 2
Fore
SplineSet
39 -219 m 1
 -73 -220 l 1
 162 460 l 1
 267 459 l 1
 39 -219 l 1
550 230 m 0
 513 108 399 -14 264 -12 c 0
 130 -10 121 129 152 230 c 0
 187 344 276 471 407 472 c 0
 542 474 584 341 550 230 c 0
440 231 m 0
 463 294 449 372 369 373 c 0
 290 374 216 298 190 229 c 0
 168 171 177 91 253 87 c 0
 335 82 413 159 440 231 c 0
EndSplineSet
EndChar

StartChar: uni0441
Encoding: 1089 1089 449
Width: 453
VWidth: 0
Flags: HW
LayerCount: 2
Fore
SplineSet
158 230 m 0
 132 164 152 88 232 85 c 0
 297 83 358 120 407 159 c 1
 374 41 l 1
 326 10 274 -10 216 -10 c 0
 82 -9 13 107 50 230 c 0
 89 362 219 468 358 469 c 0
 412 469 457 452 497 418 c 1
 463 299 l 1
 444 349 408 377 353 376 c 0
 269 375 187 306 158 230 c 0
EndSplineSet
EndChar

StartChar: uni0442
Encoding: 1090 1090 450
Width: 283
VWidth: 0
Flags: HW
LayerCount: 2
Fore
SplineSet
105 460 m 1
 386 460 l 1
 352 365 l 1
 70 365 l 1
 105 460 l 1
183 439 m 1
 293 440 l 1
 139 0 l 1
 37 0 l 1
 183 439 l 1
EndSplineSet
EndChar

StartChar: uni0443
Encoding: 1091 1091 451
Width: 443
VWidth: 0
Flags: HW
LayerCount: 2
Fore
SplineSet
558 459 m 1
 42 -219 l 1
 -80 -219 l 1
 137 63 l 1
 101 460 l 1
 215 460 l 1
 230 96 l 1
 178 101 l 1
 436 459 l 1
 558 459 l 1
EndSplineSet
EndChar

StartChar: uni0444
Encoding: 1092 1092 452
Width: 581
VWidth: 0
Flags: HW
LayerCount: 2
Fore
SplineSet
374 559 m 1
 483 560 l 1
 253 -99 l 1
 153 -99 l 1
 374 559 l 1
53 230 m 0
 95 373 240 471 386 470 c 0
 524 469 618 368 577 230 c 0
 535 87 391 -11 245 -10 c 0
 107 -9 12 92 53 230 c 0
155 230 m 0
 123 149 170 88 255 86 c 0
 347 84 441 143 475 230 c 0
 507 311 460 372 375 374 c 0
 283 376 189 317 155 230 c 0
EndSplineSet
EndChar

StartChar: uni0445
Encoding: 1093 1093 453
Width: 437
VWidth: 0
Flags: HW
LayerCount: 2
Fore
SplineSet
412 459 m 1
 541 459 l 1
 301 230 l 1
 385 0 l 1
 277 0 l 1
 226 156 l 1
 73 0 l 1
 -58 0 l 1
 194 246 l 1
 117 460 l 1
 226 460 l 1
 270 320 l 1
 412 459 l 1
EndSplineSet
EndChar

StartChar: uni0446
Encoding: 1094 1094 454
Width: 552
VWidth: 0
Flags: HW
LayerCount: 2
Fore
SplineSet
429 94 m 1
 509 94 l 1
 443 -94 l 1
 344 -94 l 1
 377 0 l 1
 7 0 l 1
 165 460 l 1
 275 460 l 1
 148 95 l 1
 322 95 l 1
 450 459 l 1
 554 459 l 1
 429 94 l 1
EndSplineSet
EndChar

StartChar: uni0447
Encoding: 1095 1095 455
Width: 479
VWidth: 0
Flags: HW
LayerCount: 2
Fore
SplineSet
211 131 m 1
 252 224 l 1
 392 225 l 1
 359 131 l 1
 211 131 l 1
408 459 m 1
 521 460 l 1
 360 0 l 1
 255 0 l 1
 408 459 l 1
257 459 m 1
 206 323 l 2
 185 265 195 224 252 224 c 1
 211 131 l 1
 89 131 67 218 103 328 c 2
 147 460 l 1
 257 459 l 1
EndSplineSet
EndChar

StartChar: uni0448
Encoding: 1096 1096 456
Width: 754
VWidth: 0
Flags: HW
LayerCount: 2
Fore
SplineSet
405 94 m 1
 564 95 l 1
 691 460 l 1
 798 460 l 1
 639 0 l 1
 7 0 l 1
 165 460 l 1
 272 460 l 1
 145 95 l 1
 301 95 l 1
 429 459 l 1
 532 459 l 1
 405 94 l 1
EndSplineSet
EndChar

StartChar: uni0449
Encoding: 1097 1097 457
Width: 792
VWidth: 0
Flags: HW
LayerCount: 2
Fore
SplineSet
405 94 m 1
 564 95 l 1
 691 460 l 1
 798 460 l 1
 672 95 l 1
 747 95 l 1
 683 -94 l 1
 584 -94 l 1
 617 0 l 1
 7 0 l 1
 165 460 l 1
 272 460 l 1
 145 95 l 1
 301 95 l 1
 429 459 l 1
 532 459 l 1
 405 94 l 1
EndSplineSet
EndChar

StartChar: uni044A
Encoding: 1098 1098 458
Width: 555
VWidth: 0
Flags: HW
LayerCount: 2
Fore
SplineSet
236 213 m 1
 261 293 l 1
 388 294 l 2
 472 295 537 240 511 150 c 0
 485 60 399 0 309 0 c 2
 162 0 l 1
 192 88 l 1
 310 88 l 2
 350 88 392 112 408 152 c 0
 422 187 399 210 366 211 c 2
 236 213 l 1
222 366 m 1
 70 365 l 1
 105 460 l 1
 355 460 l 1
 195 0 l 1
 96 0 l 1
 222 366 l 1
EndSplineSet
EndChar

StartChar: uni044B
Encoding: 1099 1099 459
Width: 650
VWidth: 0
Flags: HW
LayerCount: 2
Fore
SplineSet
583 459 m 1
 695 460 l 1
 534 0 l 1
 430 0 l 1
 583 459 l 1
162 459 m 1
 276 460 l 1
 114 0 l 1
 9 0 l 1
 162 459 l 1
154 213 m 1
 179 293 l 1
 307 294 l 2
 391 295 454 240 428 150 c 0
 402 60 317 0 227 0 c 2
 80 0 l 1
 109 88 l 1
 228 88 l 2
 268 88 310 112 326 152 c 0
 340 187 318 210 285 211 c 2
 154 213 l 1
EndSplineSet
EndChar

StartChar: uni044C
Encoding: 1100 1100 460
Width: 477
VWidth: 0
Flags: HW
LayerCount: 2
Fore
SplineSet
164 459 m 1
 278 460 l 1
 117 0 l 1
 12 0 l 1
 164 459 l 1
156 213 m 1
 181 293 l 1
 309 294 l 2
 393 295 456 240 430 150 c 0
 404 60 319 0 229 0 c 2
 82 0 l 1
 111 88 l 1
 230 88 l 2
 270 88 312 112 328 152 c 0
 342 187 321 210 287 211 c 2
 156 213 l 1
EndSplineSet
EndChar

StartChar: uni044D
Encoding: 1101 1101 461
Width: 455
VWidth: 0
Flags: HW
LayerCount: 2
Fore
SplineSet
154 271 m 1
 447 271 l 1
 366 189 l 1
 127 189 l 1
 154 271 l 1
345 230 m 0
 371 296 357 378 274 382 c 0
 209 385 149 348 100 309 c 1
 130 419 l 1
 178 449 231 470 288 470 c 0
 422 470 491 353 454 230 c 0
 415 98 285 -8 146 -9 c 0
 92 -10 47 7 7 43 c 1
 40 153 l 1
 58 103 94 75 149 76 c 0
 237 77 315 152 345 230 c 0
EndSplineSet
EndChar

StartChar: uni044E
Encoding: 1102 1102 462
Width: 729
VWidth: 0
Flags: HW
LayerCount: 2
Fore
SplineSet
121 198 m 1
 152 287 l 1
 356 288 l 1
 324 198 l 1
 121 198 l 1
162 459 m 1
 273 460 l 1
 112 0 l 1
 9 0 l 1
 162 459 l 1
253 230 m 0
 292 360 422 469 560 469 c 0
 694 469 763 353 726 230 c 0
 687 100 557 -9 419 -9 c 0
 285 -9 216 107 253 230 c 0
362 230 m 0
 339 169 351 88 430 86 c 0
 511 84 589 158 617 230 c 0
 640 291 627 372 548 374 c 0
 467 376 390 302 362 230 c 0
EndSplineSet
EndChar

StartChar: uni044F
Encoding: 1103 1103 463
Width: 477
VWidth: 0
Flags: HW
LayerCount: 2
Fore
SplineSet
108 0 m 1
 -19 0 l 1
 218 226 l 1
 327 225 l 1
 108 0 l 1
385 0 m 1
 273 0 l 1
 434 459 l 1
 538 459 l 1
 385 0 l 1
404 258 m 1
 379 177 l 1
 252 176 l 1
 167 176 96 228 122 321 c 0
 148 412 239 455 328 459 c 2
 475 459 l 1
 445 371 l 1
 325 370 l 2
 289 370 239 354 226 314 c 0
 214 278 240 261 271 260 c 2
 404 258 l 1
EndSplineSet
EndChar

